# Created by FreeCAD <https://www.freecad.org>
v 0.000000 -220.000000 0.000000
v 50.000000 -220.000000 0.000000
v 0.000000 -220.000000 20.000000
v 50.000000 -220.000000 20.000000
v 50.000000 -70.000000 0.000000
v 50.000000 -70.000000 20.000000
v 0.000000 -70.000000 0.000000
v 0.000000 -70.000000 20.000000
v 50.000000 -220.000000 0.000000
v 0.000000 -220.000000 0.000000
v 0.000000 -214.823624 19.318516
v 50.000000 -214.823624 19.318516
v 50.000000 -269.823608 34.055721
v 50.000000 -275.000000 14.737206
v 0.000000 -275.000000 14.737206
v 0.000000 -269.823608 34.055721
v 0.000000 -15.000000 14.737206
v 0.000000 -70.000000 0.000000
v 0.000000 -75.176384 19.318516
v 0.000000 -20.176380 34.055721
v 50.000000 -15.000000 14.737206
v 50.000000 -20.176380 34.055721
v 50.000000 -70.000000 0.000000
v 50.000000 -75.176384 19.318516
v 50.000000 -275.000000 14.737206
v 0.000000 -275.000000 14.737206
v 0.000000 -255.000000 14.737206
v 50.000000 -255.000000 14.737206
v 50.000000 -255.000000 140.000000
v 50.000000 -275.000000 140.000000
v 0.000000 -275.000000 140.000000
v 0.000000 -255.000000 140.000000
v 0.000000 -35.000000 140.000000
v 0.000000 -15.000000 14.737206
v 0.000000 -35.000000 14.737206
v 0.000000 -15.000000 140.000000
v 50.000000 -15.000000 140.000000
v 50.000000 -35.000000 140.000000
v 50.000000 -35.000000 14.737206
v 50.000000 -15.000000 14.737206
v 50.000000 -220.000000 0.000000
v 220.000000 -220.000000 0.000000
v 50.000000 -220.000000 20.000000
v 220.000000 -220.000000 20.000000
v 220.000000 -70.000000 0.000000
v 220.000000 -70.000000 20.000000
v 50.000000 -70.000000 0.000000
v 50.000000 -70.000000 20.000000
v 220.000000 -220.000000 0.000000
v 50.000000 -220.000000 0.000000
v 50.000000 -214.823624 19.318516
v 220.000000 -214.823624 19.318516
v 220.000000 -269.823608 34.055721
v 220.000000 -275.000000 14.737206
v 50.000000 -275.000000 14.737206
v 50.000000 -269.823608 34.055721
v 50.000000 -15.000000 14.737206
v 50.000000 -70.000000 0.000000
v 50.000000 -75.176384 19.318516
v 50.000000 -20.176380 34.055721
v 220.000000 -15.000000 14.737206
v 220.000000 -20.176380 34.055721
v 220.000000 -70.000000 0.000000
v 220.000000 -75.176384 19.318516
v 220.000000 -275.000000 14.737206
v 50.000000 -275.000000 14.737206
v 50.000000 -255.000000 14.737206
v 220.000000 -255.000000 14.737206
v 220.000000 -255.000000 140.000000
v 220.000000 -275.000000 140.000000
v 50.000000 -275.000000 140.000000
v 50.000000 -255.000000 140.000000
v 50.000000 -35.000000 140.000000
v 50.000000 -15.000000 14.737206
v 50.000000 -35.000000 14.737206
v 50.000000 -15.000000 140.000000
v 220.000000 -15.000000 140.000000
v 220.000000 -35.000000 140.000000
v 220.000000 -35.000000 14.737206
v 220.000000 -15.000000 14.737206
v 220.000000 -220.000000 0.000000
v 390.000000 -220.000000 0.000000
v 220.000000 -220.000000 20.000000
v 390.000000 -220.000000 20.000000
v 390.000000 -70.000000 0.000000
v 390.000000 -70.000000 20.000000
v 220.000000 -70.000000 0.000000
v 220.000000 -70.000000 20.000000
v 390.000000 -220.000000 0.000000
v 220.000000 -220.000000 0.000000
v 220.000000 -214.823624 19.318516
v 390.000000 -214.823624 19.318516
v 390.000000 -269.823608 34.055721
v 390.000000 -275.000000 14.737206
v 220.000000 -275.000000 14.737206
v 220.000000 -269.823608 34.055721
v 220.000000 -15.000000 14.737206
v 220.000000 -70.000000 0.000000
v 220.000000 -75.176384 19.318516
v 220.000000 -20.176380 34.055721
v 390.000000 -15.000000 14.737206
v 390.000000 -20.176380 34.055721
v 390.000000 -70.000000 0.000000
v 390.000000 -75.176384 19.318516
v 390.000000 -275.000000 14.737206
v 220.000000 -275.000000 14.737206
v 220.000000 -255.000000 14.737206
v 390.000000 -255.000000 14.737206
v 390.000000 -255.000000 140.000000
v 390.000000 -275.000000 140.000000
v 220.000000 -275.000000 140.000000
v 220.000000 -255.000000 140.000000
v 220.000000 -35.000000 140.000000
v 220.000000 -15.000000 14.737206
v 220.000000 -35.000000 14.737206
v 220.000000 -15.000000 140.000000
v 390.000000 -15.000000 140.000000
v 390.000000 -35.000000 140.000000
v 390.000000 -35.000000 14.737206
v 390.000000 -15.000000 14.737206
v 390.000000 -220.000000 0.000000
v 560.000000 -220.000000 0.000000
v 390.000000 -220.000000 20.000000
v 560.000000 -220.000000 20.000000
v 560.000000 -70.000000 0.000000
v 560.000000 -70.000000 20.000000
v 390.000000 -70.000000 0.000000
v 390.000000 -70.000000 20.000000
v 560.000000 -220.000000 0.000000
v 390.000000 -220.000000 0.000000
v 390.000000 -214.823624 19.318516
v 560.000000 -214.823624 19.318516
v 560.000000 -269.823608 34.055721
v 560.000000 -275.000000 14.737206
v 390.000000 -275.000000 14.737206
v 390.000000 -269.823608 34.055721
v 390.000000 -15.000000 14.737206
v 390.000000 -70.000000 0.000000
v 390.000000 -75.176384 19.318516
v 390.000000 -20.176380 34.055721
v 560.000000 -15.000000 14.737206
v 560.000000 -20.176380 34.055721
v 560.000000 -70.000000 0.000000
v 560.000000 -75.176384 19.318516
v 560.000000 -275.000000 14.737206
v 390.000000 -275.000000 14.737206
v 390.000000 -255.000000 14.737206
v 560.000000 -255.000000 14.737206
v 560.000000 -255.000000 140.000000
v 560.000000 -275.000000 140.000000
v 390.000000 -275.000000 140.000000
v 390.000000 -255.000000 140.000000
v 390.000000 -35.000000 140.000000
v 390.000000 -15.000000 14.737206
v 390.000000 -35.000000 14.737206
v 390.000000 -15.000000 140.000000
v 560.000000 -15.000000 140.000000
v 560.000000 -35.000000 140.000000
v 560.000000 -35.000000 14.737206
v 560.000000 -15.000000 14.737206
v 560.000000 -220.000000 0.000000
v 730.000000 -190.454544 20.000000
v 560.000000 -220.000000 20.000000
v 730.000000 -190.454544 0.000000
v 730.000000 -99.545456 0.000000
v 730.000000 -99.545456 20.000000
v 560.000000 -70.000000 0.000000
v 560.000000 -70.000000 20.000000
v 730.000000 -190.454544 0.000000
v 560.000000 -220.000000 0.000000
v 559.101257 -214.828842 19.299002
v 729.101257 -185.283386 19.299002
v 730.000000 -245.454544 14.737206
v 729.101257 -240.283386 34.036209
v 559.101257 -269.828857 34.036209
v 560.000000 -275.000000 14.737206
v 560.000000 -15.000000 14.737206
v 560.000000 -70.000000 0.000000
v 559.101257 -75.171150 19.299002
v 559.101257 -20.171152 34.036209
v 730.000000 -44.545456 14.737206
v 729.101257 -49.716606 34.036209
v 730.000000 -99.545456 0.000000
v 729.101257 -104.716606 19.299002
v 730.000000 -245.454544 14.737206
v 560.000000 -275.000000 14.737206
v 556.575378 -255.295380 14.737206
v 726.575378 -225.749924 14.737206
v 726.575378 -225.749924 140.000000
v 730.000000 -245.454544 140.000000
v 556.575378 -255.295380 140.000000
v 560.000000 -275.000000 140.000000
v 556.575378 -34.704620 140.000000
v 560.000000 -15.000000 14.737206
v 556.575378 -34.704620 14.737206
v 560.000000 -15.000000 140.000000
v 730.000000 -44.545456 140.000000
v 726.575378 -64.250076 140.000000
v 726.575378 -64.250076 14.737206
v 730.000000 -44.545456 14.737206
v 730.000000 -190.454544 0.000000
v 900.000000 -145.000000 20.000000
v 730.000000 -190.454544 20.000000
v 900.000000 -145.000000 0.000000
v 730.000000 -99.545456 20.000000
v 730.000000 -99.545456 0.000000
v 900.000000 -145.000000 0.000000
v 730.000000 -190.454544 0.000000
v 728.619263 -185.290512 19.272423
v 898.619263 -139.835968 19.272423
v 728.619263 -240.290512 34.009628
v 730.000000 -245.454544 14.737206
v 730.000000 -44.545456 14.737206
v 730.000000 -99.545456 0.000000
v 728.619263 -104.709488 19.272423
v 728.619263 -49.709484 34.009628
v 898.619263 -150.164032 19.272423
v 900.000000 -145.000000 0.000000
v 900.000000 -145.000000 0.000000
v 730.000000 -245.454544 14.737206
v 719.825439 -228.236008 14.737206
v 889.825439 -127.781471 0.000000
v 900.000000 -145.000000 140.000000
v 889.825439 -127.781471 140.000000
v 719.825439 -228.236008 140.000000
v 730.000000 -245.454544 140.000000
v 730.000000 -44.545456 140.000000
v 730.000000 -44.545456 14.737206
v 719.825439 -61.763985 14.737206
v 719.825439 -61.763985 140.000000
v 900.000000 -145.000000 140.000000
v 889.825439 -162.218536 140.000000
v 900.000000 -145.000000 0.000000
v 889.825439 -162.218536 0.000000
v 0.000000 -220.000000 0.000000
v 0.000000 -70.000000 0.000000
v 20.000000 -220.000000 0.000000
v 20.000000 -70.000000 0.000000
v 0.000000 -15.000000 14.737206
v 20.000000 -15.000000 14.737206
v 20.000000 -15.000000 140.000000
v 0.000000 -15.000000 140.000000
v 20.000000 -275.000000 140.000000
v 0.000000 -275.000000 140.000000
v 20.000000 -275.000000 14.737206
v 0.000000 -275.000000 14.737206
v 50.000000 -220.000000 0.000000
v 50.000000 -70.000000 0.000000
v 70.000000 -220.000000 0.000000
v 70.000000 -70.000000 0.000000
v 50.000000 -15.000000 14.737206
v 70.000000 -15.000000 14.737206
v 70.000000 -15.000000 120.000000
v 50.000000 -15.000000 120.000000
v 70.000000 -275.000000 120.000000
v 50.000000 -275.000000 120.000000
v 50.000000 -275.000000 14.737206
v 70.000000 -275.000000 14.737206
v 220.000000 -220.000000 0.000000
v 220.000000 -70.000000 0.000000
v 240.000000 -220.000000 0.000000
v 240.000000 -70.000000 0.000000
v 220.000000 -15.000000 14.737206
v 240.000000 -15.000000 14.737206
v 240.000000 -15.000000 120.000000
v 220.000000 -15.000000 120.000000
v 240.000000 -275.000000 120.000000
v 220.000000 -275.000000 120.000000
v 220.000000 -275.000000 14.737206
v 240.000000 -275.000000 14.737206
v 390.000000 -220.000000 0.000000
v 390.000000 -70.000000 0.000000
v 410.000000 -220.000000 0.000000
v 410.000000 -70.000000 0.000000
v 390.000000 -15.000000 14.737206
v 410.000000 -15.000000 14.737206
v 410.000000 -15.000000 120.000000
v 390.000000 -15.000000 120.000000
v 410.000000 -275.000000 120.000000
v 390.000000 -275.000000 120.000000
v 390.000000 -275.000000 14.737206
v 410.000000 -275.000000 14.737206
v 560.000000 -220.000000 0.000000
v 560.000000 -70.000000 0.000000
v 580.000000 -220.000000 0.000000
v 580.000000 -70.000000 0.000000
v 560.000000 -15.000000 14.737206
v 580.000000 -15.000000 14.737206
v 580.000000 -15.000000 120.000000
v 560.000000 -15.000000 120.000000
v 580.000000 -275.000000 120.000000
v 560.000000 -275.000000 120.000000
v 560.000000 -275.000000 14.737206
v 580.000000 -275.000000 14.737206
v 730.000000 -190.454544 0.000000
v 730.000000 -99.545456 0.000000
v 750.000000 -190.454544 0.000000
v 750.000000 -99.545456 0.000000
v 730.000000 -44.545456 14.737206
v 750.000000 -44.545456 14.737206
v 750.000000 -44.545456 120.000000
v 730.000000 -44.545456 120.000000
v 730.000000 -245.454544 120.000000
v 750.000000 -245.454544 120.000000
v 730.000000 -245.454544 14.737206
v 750.000000 -245.454544 14.737206
v 0.000000 -275.000000 120.000000
v 50.000000 -275.000000 120.000000
v 0.000000 -275.000000 140.000000
v 50.000000 -275.000000 140.000000
v 50.000000 -15.000000 140.000000
v 50.000000 -15.000000 120.000000
v 0.000000 -15.000000 120.000000
v 0.000000 -15.000000 140.000000
v 50.000000 -275.000000 120.000000
v 220.000000 -275.000000 120.000000
v 50.000000 -275.000000 140.000000
v 220.000000 -275.000000 140.000000
v 220.000000 -15.000000 140.000000
v 220.000000 -15.000000 120.000000
v 50.000000 -15.000000 120.000000
v 50.000000 -15.000000 140.000000
v 220.000000 -275.000000 120.000000
v 390.000000 -275.000000 120.000000
v 220.000000 -275.000000 140.000000
v 390.000000 -275.000000 140.000000
v 390.000000 -15.000000 140.000000
v 390.000000 -15.000000 120.000000
v 220.000000 -15.000000 120.000000
v 220.000000 -15.000000 140.000000
v 390.000000 -275.000000 120.000000
v 560.000000 -275.000000 120.000000
v 390.000000 -275.000000 140.000000
v 560.000000 -275.000000 140.000000
v 560.000000 -15.000000 140.000000
v 560.000000 -15.000000 120.000000
v 390.000000 -15.000000 120.000000
v 390.000000 -15.000000 140.000000
v 560.000000 -275.000000 120.000000
v 730.000000 -245.454544 140.000000
v 560.000000 -275.000000 140.000000
v 730.000000 -245.454544 120.000000
v 730.000000 -44.545456 120.000000
v 730.000000 -44.545456 140.000000
v 560.000000 -15.000000 120.000000
v 560.000000 -15.000000 140.000000
v 730.000000 -245.454544 120.000000
v 900.000000 -145.000000 120.000000
v 730.000000 -245.454544 140.000000
v 900.000000 -145.000000 140.000000
v 730.000000 -44.545456 120.000000
v 730.000000 -44.545456 140.000000
v 0.000000 70.000000 0.000000
v 50.000000 70.000000 0.000000
v 0.000000 70.000000 20.000000
v 50.000000 70.000000 20.000000
v 50.000000 220.000000 0.000000
v 50.000000 220.000000 20.000000
v 0.000000 220.000000 0.000000
v 0.000000 220.000000 20.000000
v 50.000000 70.000000 0.000000
v 0.000000 70.000000 0.000000
v 0.000000 75.176384 19.318516
v 50.000000 75.176384 19.318516
v 50.000000 15.000000 14.737206
v 50.000000 20.176380 34.055721
v 0.000000 15.000000 14.737206
v 0.000000 20.176380 34.055721
v 0.000000 269.823608 34.055721
v 0.000000 220.000000 0.000000
v 0.000000 214.823624 19.318516
v 0.000000 275.000000 14.737206
v 50.000000 275.000000 14.737206
v 50.000000 269.823608 34.055721
v 50.000000 220.000000 0.000000
v 50.000000 214.823624 19.318516
v 50.000000 15.000000 14.737206
v 0.000000 15.000000 14.737206
v 0.000000 35.000000 14.737206
v 50.000000 35.000000 14.737206
v 50.000000 35.000000 140.000000
v 50.000000 15.000000 140.000000
v 0.000000 15.000000 140.000000
v 0.000000 35.000000 140.000000
v 0.000000 255.000000 140.000000
v 0.000000 275.000000 14.737206
v 0.000000 255.000000 14.737206
v 0.000000 275.000000 140.000000
v 50.000000 275.000000 140.000000
v 50.000000 255.000000 140.000000
v 50.000000 255.000000 14.737206
v 50.000000 275.000000 14.737206
v 50.000000 70.000000 0.000000
v 220.000000 70.000000 0.000000
v 50.000000 70.000000 20.000000
v 220.000000 70.000000 20.000000
v 220.000000 220.000000 0.000000
v 220.000000 220.000000 20.000000
v 50.000000 220.000000 0.000000
v 50.000000 220.000000 20.000000
v 220.000000 70.000000 0.000000
v 50.000000 70.000000 0.000000
v 50.000000 75.176384 19.318516
v 220.000000 75.176384 19.318516
v 220.000000 15.000000 14.737206
v 220.000000 20.176380 34.055721
v 50.000000 15.000000 14.737206
v 50.000000 20.176380 34.055721
v 50.000000 269.823608 34.055721
v 50.000000 220.000000 0.000000
v 50.000000 214.823624 19.318516
v 50.000000 275.000000 14.737206
v 220.000000 275.000000 14.737206
v 220.000000 269.823608 34.055721
v 220.000000 220.000000 0.000000
v 220.000000 214.823624 19.318516
v 220.000000 15.000000 14.737206
v 50.000000 15.000000 14.737206
v 50.000000 35.000000 14.737206
v 220.000000 35.000000 14.737206
v 220.000000 35.000000 140.000000
v 220.000000 15.000000 140.000000
v 50.000000 15.000000 140.000000
v 50.000000 35.000000 140.000000
v 50.000000 255.000000 140.000000
v 50.000000 275.000000 14.737206
v 50.000000 255.000000 14.737206
v 50.000000 275.000000 140.000000
v 220.000000 275.000000 140.000000
v 220.000000 255.000000 140.000000
v 220.000000 255.000000 14.737206
v 220.000000 275.000000 14.737206
v 220.000000 70.000000 0.000000
v 390.000000 70.000000 0.000000
v 220.000000 70.000000 20.000000
v 390.000000 70.000000 20.000000
v 390.000000 220.000000 0.000000
v 390.000000 220.000000 20.000000
v 220.000000 220.000000 0.000000
v 220.000000 220.000000 20.000000
v 390.000000 70.000000 0.000000
v 220.000000 70.000000 0.000000
v 220.000000 75.176384 19.318516
v 390.000000 75.176384 19.318516
v 390.000000 15.000000 14.737206
v 390.000000 20.176380 34.055721
v 220.000000 15.000000 14.737206
v 220.000000 20.176380 34.055721
v 220.000000 269.823608 34.055721
v 220.000000 220.000000 0.000000
v 220.000000 214.823624 19.318516
v 220.000000 275.000000 14.737206
v 390.000000 275.000000 14.737206
v 390.000000 269.823608 34.055721
v 390.000000 220.000000 0.000000
v 390.000000 214.823624 19.318516
v 390.000000 15.000000 14.737206
v 220.000000 15.000000 14.737206
v 220.000000 35.000000 14.737206
v 390.000000 35.000000 14.737206
v 390.000000 35.000000 140.000000
v 390.000000 15.000000 140.000000
v 220.000000 15.000000 140.000000
v 220.000000 35.000000 140.000000
v 220.000000 255.000000 140.000000
v 220.000000 275.000000 14.737206
v 220.000000 255.000000 14.737206
v 220.000000 275.000000 140.000000
v 390.000000 275.000000 140.000000
v 390.000000 255.000000 140.000000
v 390.000000 255.000000 14.737206
v 390.000000 275.000000 14.737206
v 390.000000 70.000000 0.000000
v 560.000000 70.000000 0.000000
v 390.000000 70.000000 20.000000
v 560.000000 70.000000 20.000000
v 560.000000 220.000000 0.000000
v 560.000000 220.000000 20.000000
v 390.000000 220.000000 0.000000
v 390.000000 220.000000 20.000000
v 560.000000 70.000000 0.000000
v 390.000000 70.000000 0.000000
v 390.000000 75.176384 19.318516
v 560.000000 75.176384 19.318516
v 560.000000 15.000000 14.737206
v 560.000000 20.176380 34.055721
v 390.000000 15.000000 14.737206
v 390.000000 20.176380 34.055721
v 390.000000 269.823608 34.055721
v 390.000000 220.000000 0.000000
v 390.000000 214.823624 19.318516
v 390.000000 275.000000 14.737206
v 560.000000 275.000000 14.737206
v 560.000000 269.823608 34.055721
v 560.000000 220.000000 0.000000
v 560.000000 214.823624 19.318516
v 560.000000 15.000000 14.737206
v 390.000000 15.000000 14.737206
v 390.000000 35.000000 14.737206
v 560.000000 35.000000 14.737206
v 560.000000 35.000000 140.000000
v 560.000000 15.000000 140.000000
v 390.000000 15.000000 140.000000
v 390.000000 35.000000 140.000000
v 390.000000 255.000000 140.000000
v 390.000000 275.000000 14.737206
v 390.000000 255.000000 14.737206
v 390.000000 275.000000 140.000000
v 560.000000 275.000000 140.000000
v 560.000000 255.000000 140.000000
v 560.000000 255.000000 14.737206
v 560.000000 275.000000 14.737206
v 560.000000 70.000000 0.000000
v 730.000000 99.545456 0.000000
v 560.000000 70.000000 20.000000
v 730.000000 99.545456 20.000000
v 730.000000 190.454544 0.000000
v 730.000000 190.454544 20.000000
v 560.000000 220.000000 20.000000
v 560.000000 220.000000 0.000000
v 730.000000 99.545456 0.000000
v 560.000000 70.000000 0.000000
v 559.101257 75.171150 19.299002
v 729.101257 104.716606 19.299002
v 730.000000 44.545456 14.737206
v 729.101257 49.716606 34.036209
v 559.101257 20.171152 34.036209
v 560.000000 15.000000 14.737206
v 560.000000 275.000000 14.737206
v 560.000000 220.000000 0.000000
v 559.101257 214.828842 19.299002
v 559.101257 269.828857 34.036209
v 730.000000 245.454544 14.737206
v 729.101257 240.283386 34.036209
v 729.101257 185.283386 19.299002
v 730.000000 190.454544 0.000000
v 730.000000 44.545456 14.737206
v 560.000000 15.000000 14.737206
v 556.575378 34.704620 14.737206
v 726.575378 64.250076 14.737206
v 726.575378 64.250076 140.000000
v 730.000000 44.545456 140.000000
v 560.000000 15.000000 140.000000
v 556.575378 34.704620 140.000000
v 556.575378 255.295380 140.000000
v 560.000000 275.000000 14.737206
v 556.575378 255.295380 14.737206
v 560.000000 275.000000 140.000000
v 730.000000 245.454544 140.000000
v 726.575378 225.749924 140.000000
v 726.575378 225.749924 14.737206
v 730.000000 245.454544 14.737206
v 730.000000 99.545456 0.000000
v 900.000000 145.000000 20.000000
v 730.000000 99.545456 20.000000
v 900.000000 145.000000 0.000000
v 730.000000 190.454544 20.000000
v 730.000000 190.454544 0.000000
v 898.619263 150.164032 19.272423
v 730.000000 99.545456 0.000000
v 728.619263 104.709488 19.272423
v 900.000000 145.000000 0.000000
v 730.000000 44.545456 14.737206
v 728.619263 49.709484 34.009628
v 730.000000 245.454544 14.737206
v 730.000000 190.454544 0.000000
v 728.619263 185.290512 19.272423
v 728.619263 240.290512 34.009628
v 898.619263 139.835968 19.272423
v 900.000000 145.000000 0.000000
v 900.000000 145.000000 0.000000
v 730.000000 44.545456 14.737206
v 719.825439 61.763985 14.737206
v 889.825439 162.218536 0.000000
v 900.000000 145.000000 140.000000
v 889.825439 162.218536 140.000000
v 719.825439 61.763985 140.000000
v 730.000000 44.545456 140.000000
v 730.000000 245.454544 140.000000
v 730.000000 245.454544 14.737206
v 719.825439 228.236008 14.737206
v 719.825439 228.236008 140.000000
v 900.000000 145.000000 140.000000
v 889.825439 127.781471 140.000000
v 900.000000 145.000000 0.000000
v 889.825439 127.781471 0.000000
v 0.000000 70.000000 0.000000
v 0.000000 220.000000 0.000000
v 20.000000 70.000000 0.000000
v 20.000000 220.000000 0.000000
v 0.000000 275.000000 14.737206
v 20.000000 275.000000 14.737206
v 20.000000 275.000000 140.000000
v 0.000000 275.000000 140.000000
v 20.000000 15.000000 140.000000
v 0.000000 15.000000 140.000000
v 20.000000 15.000000 14.737206
v 0.000000 15.000000 14.737206
v 50.000000 70.000000 0.000000
v 50.000000 220.000000 0.000000
v 70.000000 70.000000 0.000000
v 70.000000 220.000000 0.000000
v 50.000000 275.000000 14.737206
v 70.000000 275.000000 14.737206
v 70.000000 275.000000 120.000000
v 50.000000 275.000000 120.000000
v 70.000000 15.000000 120.000000
v 50.000000 15.000000 120.000000
v 50.000000 15.000000 14.737206
v 70.000000 15.000000 14.737206
v 220.000000 70.000000 0.000000
v 220.000000 220.000000 0.000000
v 240.000000 70.000000 0.000000
v 240.000000 220.000000 0.000000
v 220.000000 275.000000 14.737206
v 240.000000 275.000000 14.737206
v 240.000000 275.000000 120.000000
v 220.000000 275.000000 120.000000
v 240.000000 15.000000 120.000000
v 220.000000 15.000000 120.000000
v 220.000000 15.000000 14.737206
v 240.000000 15.000000 14.737206
v 390.000000 70.000000 0.000000
v 390.000000 220.000000 0.000000
v 410.000000 70.000000 0.000000
v 410.000000 220.000000 0.000000
v 390.000000 275.000000 14.737206
v 410.000000 275.000000 14.737206
v 410.000000 275.000000 120.000000
v 390.000000 275.000000 120.000000
v 410.000000 15.000000 120.000000
v 390.000000 15.000000 120.000000
v 390.000000 15.000000 14.737206
v 410.000000 15.000000 14.737206
v 560.000000 70.000000 0.000000
v 560.000000 220.000000 0.000000
v 580.000000 70.000000 0.000000
v 580.000000 220.000000 0.000000
v 560.000000 275.000000 14.737206
v 580.000000 275.000000 14.737206
v 580.000000 275.000000 120.000000
v 560.000000 275.000000 120.000000
v 580.000000 15.000000 120.000000
v 560.000000 15.000000 120.000000
v 560.000000 15.000000 14.737206
v 580.000000 15.000000 14.737206
v 730.000000 99.545456 0.000000
v 730.000000 190.454544 0.000000
v 750.000000 99.545456 0.000000
v 750.000000 190.454544 0.000000
v 730.000000 245.454544 14.737206
v 750.000000 245.454544 14.737206
v 750.000000 245.454544 120.000000
v 730.000000 245.454544 120.000000
v 730.000000 44.545456 120.000000
v 750.000000 44.545456 120.000000
v 730.000000 44.545456 14.737206
v 750.000000 44.545456 14.737206
v 0.000000 15.000000 120.000000
v 50.000000 15.000000 120.000000
v 0.000000 15.000000 140.000000
v 50.000000 15.000000 140.000000
v 50.000000 275.000000 140.000000
v 50.000000 275.000000 120.000000
v 0.000000 275.000000 120.000000
v 0.000000 275.000000 140.000000
v 50.000000 15.000000 120.000000
v 220.000000 15.000000 120.000000
v 50.000000 15.000000 140.000000
v 220.000000 15.000000 140.000000
v 220.000000 275.000000 140.000000
v 220.000000 275.000000 120.000000
v 50.000000 275.000000 120.000000
v 50.000000 275.000000 140.000000
v 220.000000 15.000000 120.000000
v 390.000000 15.000000 120.000000
v 220.000000 15.000000 140.000000
v 390.000000 15.000000 140.000000
v 390.000000 275.000000 140.000000
v 390.000000 275.000000 120.000000
v 220.000000 275.000000 120.000000
v 220.000000 275.000000 140.000000
v 390.000000 15.000000 120.000000
v 560.000000 15.000000 120.000000
v 390.000000 15.000000 140.000000
v 560.000000 15.000000 140.000000
v 560.000000 275.000000 140.000000
v 560.000000 275.000000 120.000000
v 390.000000 275.000000 120.000000
v 390.000000 275.000000 140.000000
v 560.000000 15.000000 120.000000
v 730.000000 44.545456 120.000000
v 560.000000 15.000000 140.000000
v 730.000000 44.545456 140.000000
v 730.000000 245.454544 120.000000
v 730.000000 245.454544 140.000000
v 560.000000 275.000000 140.000000
v 560.000000 275.000000 120.000000
v 730.000000 44.545456 120.000000
v 900.000000 145.000000 120.000000
v 730.000000 44.545456 140.000000
v 900.000000 145.000000 140.000000
v 730.000000 245.454544 120.000000
v 730.000000 245.454544 140.000000
v 110.000000 -15.000000 120.000000
v 130.000000 -15.000000 120.000000
v 110.000000 -15.000000 140.000000
v 130.000000 -15.000000 140.000000
v 130.000000 15.000000 120.000000
v 130.000000 15.000000 140.000000
v 110.000000 15.000000 120.000000
v 110.000000 15.000000 140.000000
v 280.000000 -15.000000 120.000000
v 300.000000 -15.000000 120.000000
v 280.000000 -15.000000 140.000000
v 300.000000 -15.000000 140.000000
v 300.000000 15.000000 120.000000
v 300.000000 15.000000 140.000000
v 280.000000 15.000000 120.000000
v 280.000000 15.000000 140.000000
v 450.000000 -15.000000 120.000000
v 470.000000 -15.000000 120.000000
v 450.000000 -15.000000 140.000000
v 470.000000 -15.000000 140.000000
v 470.000000 15.000000 120.000000
v 470.000000 15.000000 140.000000
v 450.000000 15.000000 120.000000
v 450.000000 15.000000 140.000000
v 620.000000 -15.000000 120.000000
v 640.000000 -15.000000 120.000000
v 620.000000 -15.000000 140.000000
v 640.000000 -15.000000 140.000000
v 640.000000 15.000000 120.000000
v 640.000000 15.000000 140.000000
v 620.000000 15.000000 120.000000
v 620.000000 15.000000 140.000000
vn 0.000000 -1.000000 0.000000
vn 0.000000 -1.000000 0.000000
vn 1.000000 0.000000 0.000000
vn 1.000000 -0.000000 0.000000
vn 0.000000 1.000000 -0.000000
vn 0.000000 1.000000 0.000000
vn -1.000000 0.000000 0.000000
vn -1.000000 -0.000000 0.000000
vn 0.000000 0.000000 -1.000000
vn 0.000000 0.000000 -1.000000
vn 0.000000 0.000000 1.000000
vn 0.000000 0.000000 1.000000
vn 0.000000 0.965926 -0.258819
vn 0.000000 0.965926 -0.258819
vn 1.000000 0.000000 0.000000
vn 1.000000 -0.000000 0.000000
vn 0.000000 -0.965926 0.258820
vn 0.000000 -0.965926 0.258820
vn -1.000000 0.000000 0.000000
vn -1.000000 0.000000 0.000000
vn 0.000000 -0.258819 -0.965926
vn 0.000000 -0.258819 -0.965926
vn -0.000000 0.258819 0.965926
vn 0.000000 0.258819 0.965926
vn -1.000000 -0.000000 0.000000
vn -1.000000 0.000000 0.000000
vn 0.000000 0.965926 0.258819
vn 0.000000 0.965926 0.258819
vn 1.000000 0.000000 0.000000
vn 1.000000 0.000000 -0.000000
vn 0.000000 -0.965926 -0.258819
vn 0.000000 -0.965926 -0.258819
vn 0.000000 0.258819 -0.965926
vn 0.000000 0.258819 -0.965926
vn 0.000000 -0.258819 0.965926
vn 0.000000 -0.258819 0.965926
vn 0.000000 0.000000 -1.000000
vn 0.000000 0.000000 -1.000000
vn 1.000000 0.000000 0.000000
vn 1.000000 -0.000000 0.000000
vn 0.000000 0.000000 1.000000
vn 0.000000 0.000000 1.000000
vn -1.000000 0.000000 0.000000
vn -1.000000 0.000000 0.000000
vn 0.000000 -1.000000 0.000000
vn 0.000000 -1.000000 0.000000
vn 0.000000 1.000000 0.000000
vn 0.000000 1.000000 0.000000
vn -1.000000 0.000000 0.000000
vn -1.000000 -0.000000 -0.000000
vn 0.000000 0.000000 1.000000
vn 0.000000 0.000000 1.000000
vn 1.000000 0.000000 0.000000
vn 1.000000 0.000000 -0.000000
vn 0.000000 0.000000 -1.000000
vn 0.000000 0.000000 -1.000000
vn 0.000000 1.000000 0.000000
vn 0.000000 1.000000 0.000000
vn 0.000000 -1.000000 0.000000
vn 0.000000 -1.000000 0.000000
vn 0.000000 -1.000000 0.000000
vn 0.000000 -1.000000 0.000000
vn 1.000000 0.000000 0.000000
vn 1.000000 -0.000000 0.000000
vn 0.000000 1.000000 -0.000000
vn 0.000000 1.000000 0.000000
vn -1.000000 0.000000 0.000000
vn -1.000000 -0.000000 0.000000
vn 0.000000 0.000000 -1.000000
vn 0.000000 0.000000 -1.000000
vn 0.000000 0.000000 1.000000
vn 0.000000 0.000000 1.000000
vn 0.000000 0.965926 -0.258819
vn 0.000000 0.965926 -0.258819
vn 1.000000 0.000000 0.000000
vn 1.000000 -0.000000 0.000000
vn 0.000000 -0.965926 0.258820
vn 0.000000 -0.965926 0.258820
vn -1.000000 0.000000 0.000000
vn -1.000000 0.000000 0.000000
vn 0.000000 -0.258819 -0.965926
vn 0.000000 -0.258819 -0.965926
vn -0.000000 0.258819 0.965926
vn 0.000000 0.258819 0.965926
vn -1.000000 -0.000000 0.000000
vn -1.000000 0.000000 0.000000
vn 0.000000 0.965926 0.258819
vn 0.000000 0.965926 0.258819
vn 1.000000 0.000000 0.000000
vn 1.000000 0.000000 -0.000000
vn 0.000000 -0.965926 -0.258819
vn 0.000000 -0.965926 -0.258819
vn 0.000000 0.258819 -0.965926
vn 0.000000 0.258819 -0.965926
vn 0.000000 -0.258819 0.965926
vn 0.000000 -0.258819 0.965926
vn 0.000000 0.000000 -1.000000
vn 0.000000 0.000000 -1.000000
vn 1.000000 0.000000 0.000000
vn 1.000000 -0.000000 0.000000
vn 0.000000 0.000000 1.000000
vn 0.000000 0.000000 1.000000
vn -1.000000 0.000000 0.000000
vn -1.000000 0.000000 0.000000
vn 0.000000 -1.000000 0.000000
vn 0.000000 -1.000000 0.000000
vn 0.000000 1.000000 0.000000
vn 0.000000 1.000000 0.000000
vn -1.000000 0.000000 0.000000
vn -1.000000 -0.000000 -0.000000
vn 0.000000 0.000000 1.000000
vn 0.000000 0.000000 1.000000
vn 1.000000 0.000000 0.000000
vn 1.000000 0.000000 -0.000000
vn 0.000000 0.000000 -1.000000
vn 0.000000 0.000000 -1.000000
vn 0.000000 1.000000 0.000000
vn 0.000000 1.000000 0.000000
vn 0.000000 -1.000000 0.000000
vn 0.000000 -1.000000 0.000000
vn 0.000000 -1.000000 0.000000
vn 0.000000 -1.000000 0.000000
vn 1.000000 0.000000 0.000000
vn 1.000000 -0.000000 0.000000
vn 0.000000 1.000000 -0.000000
vn 0.000000 1.000000 0.000000
vn -1.000000 0.000000 0.000000
vn -1.000000 -0.000000 0.000000
vn 0.000000 0.000000 -1.000000
vn 0.000000 0.000000 -1.000000
vn 0.000000 0.000000 1.000000
vn 0.000000 0.000000 1.000000
vn 0.000000 0.965926 -0.258819
vn 0.000000 0.965926 -0.258819
vn 1.000000 0.000000 0.000000
vn 1.000000 -0.000000 0.000000
vn 0.000000 -0.965926 0.258820
vn 0.000000 -0.965926 0.258820
vn -1.000000 0.000000 0.000000
vn -1.000000 0.000000 0.000000
vn 0.000000 -0.258819 -0.965926
vn 0.000000 -0.258819 -0.965926
vn -0.000000 0.258819 0.965926
vn 0.000000 0.258819 0.965926
vn -1.000000 -0.000000 0.000000
vn -1.000000 0.000000 0.000000
vn 0.000000 0.965926 0.258819
vn 0.000000 0.965926 0.258819
vn 1.000000 0.000000 0.000000
vn 1.000000 0.000000 -0.000000
vn 0.000000 -0.965926 -0.258819
vn 0.000000 -0.965926 -0.258819
vn 0.000000 0.258819 -0.965926
vn 0.000000 0.258819 -0.965926
vn 0.000000 -0.258819 0.965926
vn 0.000000 -0.258819 0.965926
vn 0.000000 0.000000 -1.000000
vn 0.000000 0.000000 -1.000000
vn 1.000000 0.000000 0.000000
vn 1.000000 -0.000000 0.000000
vn 0.000000 0.000000 1.000000
vn 0.000000 0.000000 1.000000
vn -1.000000 0.000000 0.000000
vn -1.000000 0.000000 0.000000
vn 0.000000 -1.000000 0.000000
vn 0.000000 -1.000000 0.000000
vn 0.000000 1.000000 0.000000
vn 0.000000 1.000000 0.000000
vn -1.000000 0.000000 0.000000
vn -1.000000 -0.000000 -0.000000
vn 0.000000 0.000000 1.000000
vn 0.000000 0.000000 1.000000
vn 1.000000 0.000000 0.000000
vn 1.000000 0.000000 -0.000000
vn 0.000000 0.000000 -1.000000
vn 0.000000 0.000000 -1.000000
vn 0.000000 1.000000 0.000000
vn 0.000000 1.000000 0.000000
vn 0.000000 -1.000000 0.000000
vn 0.000000 -1.000000 0.000000
vn 0.000000 -1.000000 0.000000
vn 0.000000 -1.000000 0.000000
vn 1.000000 0.000000 0.000000
vn 1.000000 -0.000000 0.000000
vn 0.000000 1.000000 -0.000000
vn 0.000000 1.000000 0.000000
vn -1.000000 0.000000 0.000000
vn -1.000000 -0.000000 0.000000
vn 0.000000 0.000000 -1.000000
vn 0.000000 0.000000 -1.000000
vn 0.000000 0.000000 1.000000
vn 0.000000 0.000000 1.000000
vn 0.000000 0.965926 -0.258819
vn 0.000000 0.965926 -0.258819
vn 1.000000 0.000000 0.000000
vn 1.000000 -0.000000 0.000000
vn 0.000000 -0.965926 0.258820
vn 0.000000 -0.965926 0.258820
vn -1.000000 0.000000 0.000000
vn -1.000000 0.000000 0.000000
vn 0.000000 -0.258819 -0.965926
vn 0.000000 -0.258819 -0.965926
vn -0.000000 0.258819 0.965926
vn 0.000000 0.258819 0.965926
vn -1.000000 -0.000000 0.000000
vn -1.000000 0.000000 0.000000
vn 0.000000 0.965926 0.258819
vn 0.000000 0.965926 0.258819
vn 1.000000 0.000000 0.000000
vn 1.000000 0.000000 -0.000000
vn 0.000000 -0.965926 -0.258819
vn 0.000000 -0.965926 -0.258819
vn 0.000000 0.258819 -0.965926
vn 0.000000 0.258819 -0.965926
vn 0.000000 -0.258819 0.965926
vn 0.000000 -0.258819 0.965926
vn 0.000000 0.000000 -1.000000
vn 0.000000 0.000000 -1.000000
vn 1.000000 0.000000 0.000000
vn 1.000000 -0.000000 0.000000
vn 0.000000 0.000000 1.000000
vn 0.000000 0.000000 1.000000
vn -1.000000 0.000000 0.000000
vn -1.000000 0.000000 0.000000
vn 0.000000 -1.000000 0.000000
vn 0.000000 -1.000000 0.000000
vn 0.000000 1.000000 0.000000
vn 0.000000 1.000000 0.000000
vn -1.000000 0.000000 0.000000
vn -1.000000 -0.000000 -0.000000
vn 0.000000 0.000000 1.000000
vn 0.000000 0.000000 1.000000
vn 1.000000 0.000000 0.000000
vn 1.000000 0.000000 -0.000000
vn 0.000000 0.000000 -1.000000
vn 0.000000 0.000000 -1.000000
vn 0.000000 1.000000 0.000000
vn 0.000000 1.000000 0.000000
vn 0.000000 -1.000000 0.000000
vn 0.000000 -1.000000 0.000000
vn 0.171230 -0.985231 0.000000
vn 0.171230 -0.985231 0.000000
vn 1.000000 0.000000 0.000000
vn 1.000000 -0.000000 0.000000
vn 0.171230 0.985231 -0.000000
vn 0.171230 0.985231 0.000000
vn -1.000000 0.000000 0.000000
vn -1.000000 -0.000000 0.000000
vn 0.000000 0.000000 -1.000000
vn 0.000000 0.000000 -1.000000
vn 0.000000 0.000000 1.000000
vn 0.000000 0.000000 1.000000
vn -0.165228 0.950699 -0.262434
vn -0.165228 0.950699 -0.262434
vn 0.998990 0.011631 0.043406
vn 0.998990 0.011631 0.043406
vn 0.165228 -0.950699 0.262434
vn 0.165228 -0.950699 0.262433
vn -0.998990 -0.011631 -0.043406
vn -0.998990 -0.011631 -0.043406
vn 0.044936 -0.258558 -0.964950
vn 0.044936 -0.258558 -0.964950
vn -0.044936 0.258558 0.964950
vn -0.044936 0.258558 0.964950
vn -0.998990 0.011631 -0.043406
vn -0.998990 0.011631 -0.043406
vn 0.165228 0.950699 0.262433
vn 0.165228 0.950699 0.262433
vn 0.998990 -0.011631 0.043406
vn 0.998990 -0.011631 0.043406
vn -0.165228 -0.950699 -0.262433
vn -0.165228 -0.950699 -0.262433
vn 0.044936 0.258558 -0.964950
vn 0.044936 0.258558 -0.964950
vn -0.044936 -0.258558 0.964950
vn -0.044936 -0.258558 0.964950
vn 0.000000 0.000000 -1.000000
vn -0.000000 0.000000 -1.000000
vn 0.985231 0.171231 0.000000
vn 0.985231 0.171231 0.000000
vn 0.000000 0.000000 1.000000
vn 0.000000 -0.000000 1.000000
vn -0.985231 -0.171231 0.000000
vn -0.985231 -0.171231 0.000000
vn 0.171230 -0.985231 0.000000
vn 0.171230 -0.985231 0.000000
vn -0.171230 0.985231 0.000000
vn -0.171230 0.985231 0.000000
vn -0.985231 0.171231 0.000000
vn -0.985231 0.171231 0.000000
vn 0.000000 0.000000 1.000000
vn 0.000000 0.000000 1.000000
vn 0.985231 -0.171231 0.000000
vn 0.985231 -0.171231 0.000000
vn 0.000000 0.000000 -1.000000
vn 0.000000 -0.000000 -1.000000
vn 0.171230 0.985231 0.000000
vn 0.171230 0.985231 -0.000000
vn -0.171230 -0.985231 0.000000
vn -0.171230 -0.985231 0.000000
vn 0.258306 -0.966063 0.000000
vn 0.258306 -0.966063 0.000000
vn 0.258306 0.966063 -0.000000
vn 0.258306 0.966063 0.000000
vn -1.000000 0.000000 0.000000
vn -1.000000 -0.000000 0.000000
vn 0.000000 0.000000 -1.000000
vn 0.000000 0.000000 1.000000
vn -0.248909 0.930919 -0.267272
vn -0.248909 0.930919 -0.267272
vn 0.508080 -0.822168 0.256700
vn 0.508080 -0.822168 0.256700
vn -0.997614 -0.017868 -0.066684
vn -0.997614 -0.017868 -0.066684
vn 0.069038 -0.258202 -0.963621
vn -0.069038 0.258202 0.963621
vn -0.997614 0.017868 -0.066684
vn -0.997614 0.017868 -0.066684
vn 0.508080 0.822168 0.256700
vn 0.508080 0.822168 0.256700
vn -0.248909 -0.930919 -0.267272
vn -0.248909 -0.930919 -0.267272
vn 0.069038 0.258202 -0.963621
vn -0.069038 -0.258201 0.963621
vn -0.064076 -0.037863 -0.997226
vn -0.064076 -0.037863 -0.997226
vn 0.860927 0.508728 0.000000
vn 0.860927 0.508728 0.000000
vn 0.000000 0.000000 1.000000
vn 0.000000 -0.000000 1.000000
vn -0.860927 -0.508728 0.000000
vn -0.860927 -0.508728 0.000000
vn 0.508729 -0.860927 0.000000
vn 0.508729 -0.860927 0.000000
vn -0.508729 0.860927 0.000000
vn -0.508729 0.860927 0.000000
vn -0.860927 0.508728 0.000000
vn -0.860927 0.508728 0.000000
vn 0.000000 0.000000 1.000000
vn 0.000000 0.000000 1.000000
vn 0.860927 -0.508728 0.000000
vn 0.860927 -0.508728 0.000000
vn -0.064076 0.037863 -0.997226
vn -0.064076 0.037863 -0.997226
vn 0.508729 0.860927 0.000000
vn 0.508729 0.860927 -0.000000
vn -0.508729 -0.860927 0.000000
vn -0.508729 -0.860927 0.000000
vn 0.000000 0.000000 -1.000000
vn 0.000000 0.000000 -1.000000
vn 0.000000 0.258819 -0.965926
vn 0.000000 0.258819 -0.965926
vn 0.000000 1.000000 0.000000
vn 0.000000 1.000000 0.000000
vn -0.000000 0.000000 1.000000
vn 0.000000 0.000000 1.000000
vn 0.000000 -1.000000 0.000000
vn 0.000000 -1.000000 0.000000
vn 0.000000 -0.258819 -0.965926
vn 0.000000 -0.258819 -0.965926
vn -1.000000 0.000000 0.000000
vn -1.000000 0.000000 0.000000
vn -1.000000 0.000000 0.000000
vn -1.000000 0.000000 0.000000
vn 1.000000 0.000000 0.000000
vn 1.000000 0.000000 0.000000
vn 1.000000 0.000000 0.000000
vn 1.000000 -0.000000 0.000000
vn 0.000000 0.000000 -1.000000
vn 0.000000 0.000000 -1.000000
vn 0.000000 0.258819 -0.965926
vn 0.000000 0.258819 -0.965926
vn 0.000000 1.000000 0.000000
vn 0.000000 1.000000 0.000000
vn -0.000000 0.000000 1.000000
vn 0.000000 0.000000 1.000000
vn 0.000000 -1.000000 0.000000
vn 0.000000 -1.000000 -0.000000
vn 0.000000 -0.258819 -0.965926
vn 0.000000 -0.258819 -0.965926
vn -1.000000 0.000000 0.000000
vn -1.000000 0.000000 0.000000
vn -1.000000 0.000000 0.000000
vn -1.000000 0.000000 0.000000
vn 1.000000 0.000000 0.000000
vn 1.000000 0.000000 0.000000
vn 1.000000 0.000000 0.000000
vn 1.000000 -0.000000 0.000000
vn 0.000000 0.000000 -1.000000
vn 0.000000 0.000000 -1.000000
vn 0.000000 0.258819 -0.965926
vn 0.000000 0.258819 -0.965926
vn 0.000000 1.000000 0.000000
vn 0.000000 1.000000 0.000000
vn -0.000000 0.000000 1.000000
vn 0.000000 0.000000 1.000000
vn 0.000000 -1.000000 0.000000
vn 0.000000 -1.000000 -0.000000
vn 0.000000 -0.258819 -0.965926
vn 0.000000 -0.258819 -0.965926
vn -1.000000 0.000000 0.000000
vn -1.000000 0.000000 0.000000
vn -1.000000 0.000000 0.000000
vn -1.000000 0.000000 0.000000
vn 1.000000 0.000000 0.000000
vn 1.000000 0.000000 0.000000
vn 1.000000 0.000000 0.000000
vn 1.000000 -0.000000 0.000000
vn 0.000000 0.000000 -1.000000
vn 0.000000 0.000000 -1.000000
vn 0.000000 0.258819 -0.965926
vn 0.000000 0.258819 -0.965926
vn 0.000000 1.000000 0.000000
vn 0.000000 1.000000 0.000000
vn -0.000000 0.000000 1.000000
vn 0.000000 0.000000 1.000000
vn 0.000000 -1.000000 0.000000
vn 0.000000 -1.000000 -0.000000
vn 0.000000 -0.258819 -0.965926
vn 0.000000 -0.258819 -0.965926
vn -1.000000 0.000000 0.000000
vn -1.000000 0.000000 0.000000
vn -1.000000 0.000000 0.000000
vn -1.000000 0.000000 0.000000
vn 1.000000 0.000000 0.000000
vn 1.000000 0.000000 0.000000
vn 1.000000 0.000000 0.000000
vn 1.000000 -0.000000 0.000000
vn 0.000000 0.000000 -1.000000
vn 0.000000 0.000000 -1.000000
vn 0.000000 0.258819 -0.965926
vn 0.000000 0.258819 -0.965926
vn 0.000000 1.000000 0.000000
vn 0.000000 1.000000 0.000000
vn -0.000000 0.000000 1.000000
vn 0.000000 0.000000 1.000000
vn 0.000000 -1.000000 0.000000
vn 0.000000 -1.000000 -0.000000
vn 0.000000 -0.258819 -0.965926
vn 0.000000 -0.258819 -0.965926
vn -1.000000 0.000000 0.000000
vn -1.000000 0.000000 0.000000
vn -1.000000 0.000000 0.000000
vn -1.000000 0.000000 0.000000
vn 1.000000 0.000000 0.000000
vn 1.000000 0.000000 0.000000
vn 1.000000 0.000000 0.000000
vn 1.000000 -0.000000 0.000000
vn 0.000000 0.000000 -1.000000
vn 0.000000 0.000000 -1.000000
vn 0.000000 0.258819 -0.965926
vn 0.000000 0.258819 -0.965926
vn 0.000000 1.000000 0.000000
vn 0.000000 1.000000 0.000000
vn -0.000000 0.000000 1.000000
vn 0.000000 0.000000 1.000000
vn 0.000000 -1.000000 0.000000
vn 0.000000 -1.000000 -0.000000
vn 0.000000 -0.258819 -0.965926
vn 0.000000 -0.258819 -0.965926
vn -1.000000 0.000000 0.000000
vn -1.000000 0.000000 0.000000
vn -1.000000 0.000000 0.000000
vn -1.000000 0.000000 0.000000
vn 1.000000 0.000000 0.000000
vn 1.000000 0.000000 0.000000
vn 1.000000 0.000000 0.000000
vn 1.000000 -0.000000 0.000000
vn 0.000000 -1.000000 0.000000
vn 0.000000 -1.000000 0.000000
vn 1.000000 0.000000 0.000000
vn 1.000000 0.000000 0.000000
vn 0.000000 1.000000 -0.000000
vn 0.000000 1.000000 0.000000
vn -1.000000 0.000000 0.000000
vn -1.000000 0.000000 0.000000
vn 0.000000 0.000000 -1.000000
vn 0.000000 0.000000 -1.000000
vn 0.000000 0.000000 1.000000
vn 0.000000 0.000000 1.000000
vn 0.000000 -1.000000 0.000000
vn 0.000000 -1.000000 0.000000
vn 1.000000 0.000000 0.000000
vn 1.000000 0.000000 0.000000
vn 0.000000 1.000000 -0.000000
vn 0.000000 1.000000 0.000000
vn -1.000000 0.000000 0.000000
vn -1.000000 0.000000 0.000000
vn 0.000000 0.000000 -1.000000
vn 0.000000 0.000000 -1.000000
vn 0.000000 0.000000 1.000000
vn 0.000000 0.000000 1.000000
vn 0.000000 -1.000000 0.000000
vn 0.000000 -1.000000 0.000000
vn 1.000000 0.000000 0.000000
vn 1.000000 0.000000 0.000000
vn 0.000000 1.000000 -0.000000
vn 0.000000 1.000000 0.000000
vn -1.000000 0.000000 0.000000
vn -1.000000 0.000000 0.000000
vn 0.000000 0.000000 -1.000000
vn 0.000000 0.000000 -1.000000
vn 0.000000 0.000000 1.000000
vn 0.000000 0.000000 1.000000
vn 0.000000 -1.000000 0.000000
vn 0.000000 -1.000000 0.000000
vn 1.000000 0.000000 0.000000
vn 1.000000 0.000000 0.000000
vn 0.000000 1.000000 -0.000000
vn 0.000000 1.000000 0.000000
vn -1.000000 0.000000 0.000000
vn -1.000000 0.000000 0.000000
vn 0.000000 0.000000 -1.000000
vn 0.000000 0.000000 -1.000000
vn 0.000000 0.000000 1.000000
vn 0.000000 0.000000 1.000000
vn 0.171230 -0.985231 0.000000
vn 0.171230 -0.985231 0.000000
vn 1.000000 0.000000 0.000000
vn 1.000000 -0.000000 0.000000
vn 0.171230 0.985231 -0.000000
vn 0.171230 0.985231 0.000000
vn -1.000000 0.000000 0.000000
vn -1.000000 0.000000 0.000000
vn 0.000000 0.000000 -1.000000
vn 0.000000 0.000000 -1.000000
vn 0.000000 0.000000 1.000000
vn 0.000000 0.000000 1.000000
vn 0.508729 -0.860927 0.000000
vn 0.508729 -0.860927 0.000000
vn 0.508729 0.860927 -0.000000
vn 0.508729 0.860927 0.000000
vn -1.000000 0.000000 0.000000
vn -1.000000 -0.000000 0.000000
vn 0.000000 0.000000 -1.000000
vn 0.000000 0.000000 1.000000
vn 0.000000 -1.000000 0.000000
vn 0.000000 -1.000000 0.000000
vn 1.000000 0.000000 0.000000
vn 1.000000 -0.000000 0.000000
vn 0.000000 1.000000 -0.000000
vn 0.000000 1.000000 0.000000
vn -1.000000 0.000000 0.000000
vn -1.000000 -0.000000 0.000000
vn 0.000000 0.000000 -1.000000
vn 0.000000 0.000000 -1.000000
vn 0.000000 0.000000 1.000000
vn 0.000000 0.000000 1.000000
vn 0.000000 0.965926 -0.258819
vn 0.000000 0.965926 -0.258819
vn 1.000000 -0.000000 0.000000
vn 1.000000 0.000000 0.000000
vn 0.000000 -0.965926 0.258819
vn 0.000000 -0.965926 0.258819
vn -1.000000 0.000000 0.000000
vn -1.000000 0.000000 0.000000
vn 0.000000 -0.258819 -0.965926
vn 0.000000 -0.258819 -0.965926
vn -0.000000 0.258819 0.965926
vn 0.000000 0.258819 0.965926
vn -1.000000 0.000000 0.000000
vn -1.000000 -0.000000 0.000000
vn 0.000000 0.965926 0.258820
vn 0.000000 0.965926 0.258820
vn 1.000000 0.000000 0.000000
vn 1.000000 0.000000 -0.000000
vn 0.000000 -0.965926 -0.258819
vn 0.000000 -0.965926 -0.258819
vn 0.000000 0.258819 -0.965926
vn 0.000000 0.258819 -0.965926
vn 0.000000 -0.258819 0.965926
vn 0.000000 -0.258819 0.965926
vn 0.000000 0.000000 -1.000000
vn 0.000000 0.000000 -1.000000
vn 1.000000 0.000000 0.000000
vn 1.000000 -0.000000 0.000000
vn 0.000000 0.000000 1.000000
vn 0.000000 0.000000 1.000000
vn -1.000000 0.000000 0.000000
vn -1.000000 0.000000 0.000000
vn 0.000000 -1.000000 0.000000
vn 0.000000 -1.000000 0.000000
vn 0.000000 1.000000 0.000000
vn 0.000000 1.000000 0.000000
vn -1.000000 0.000000 0.000000
vn -1.000000 -0.000000 -0.000000
vn 0.000000 0.000000 1.000000
vn 0.000000 0.000000 1.000000
vn 1.000000 0.000000 0.000000
vn 1.000000 0.000000 -0.000000
vn 0.000000 0.000000 -1.000000
vn 0.000000 0.000000 -1.000000
vn 0.000000 1.000000 0.000000
vn 0.000000 1.000000 0.000000
vn 0.000000 -1.000000 0.000000
vn 0.000000 -1.000000 0.000000
vn 0.000000 -1.000000 0.000000
vn 0.000000 -1.000000 0.000000
vn 1.000000 0.000000 0.000000
vn 1.000000 -0.000000 0.000000
vn 0.000000 1.000000 -0.000000
vn 0.000000 1.000000 0.000000
vn -1.000000 0.000000 0.000000
vn -1.000000 -0.000000 0.000000
vn 0.000000 0.000000 -1.000000
vn 0.000000 0.000000 -1.000000
vn 0.000000 0.000000 1.000000
vn 0.000000 0.000000 1.000000
vn 0.000000 0.965926 -0.258819
vn 0.000000 0.965926 -0.258819
vn 1.000000 -0.000000 0.000000
vn 1.000000 0.000000 0.000000
vn 0.000000 -0.965926 0.258819
vn 0.000000 -0.965926 0.258819
vn -1.000000 0.000000 0.000000
vn -1.000000 0.000000 0.000000
vn 0.000000 -0.258819 -0.965926
vn 0.000000 -0.258819 -0.965926
vn -0.000000 0.258819 0.965926
vn 0.000000 0.258819 0.965926
vn -1.000000 0.000000 0.000000
vn -1.000000 -0.000000 0.000000
vn 0.000000 0.965926 0.258820
vn 0.000000 0.965926 0.258820
vn 1.000000 0.000000 0.000000
vn 1.000000 0.000000 -0.000000
vn 0.000000 -0.965926 -0.258819
vn 0.000000 -0.965926 -0.258819
vn 0.000000 0.258819 -0.965926
vn 0.000000 0.258819 -0.965926
vn 0.000000 -0.258819 0.965926
vn 0.000000 -0.258819 0.965926
vn 0.000000 0.000000 -1.000000
vn 0.000000 0.000000 -1.000000
vn 1.000000 0.000000 0.000000
vn 1.000000 -0.000000 0.000000
vn 0.000000 0.000000 1.000000
vn 0.000000 0.000000 1.000000
vn -1.000000 0.000000 0.000000
vn -1.000000 0.000000 0.000000
vn 0.000000 -1.000000 0.000000
vn 0.000000 -1.000000 0.000000
vn 0.000000 1.000000 0.000000
vn 0.000000 1.000000 0.000000
vn -1.000000 0.000000 0.000000
vn -1.000000 -0.000000 -0.000000
vn 0.000000 0.000000 1.000000
vn 0.000000 0.000000 1.000000
vn 1.000000 0.000000 0.000000
vn 1.000000 0.000000 -0.000000
vn 0.000000 0.000000 -1.000000
vn 0.000000 0.000000 -1.000000
vn 0.000000 1.000000 0.000000
vn 0.000000 1.000000 0.000000
vn 0.000000 -1.000000 0.000000
vn 0.000000 -1.000000 0.000000
vn 0.000000 -1.000000 0.000000
vn 0.000000 -1.000000 0.000000
vn 1.000000 0.000000 0.000000
vn 1.000000 -0.000000 0.000000
vn 0.000000 1.000000 -0.000000
vn 0.000000 1.000000 0.000000
vn -1.000000 0.000000 0.000000
vn -1.000000 -0.000000 0.000000
vn 0.000000 0.000000 -1.000000
vn 0.000000 0.000000 -1.000000
vn 0.000000 0.000000 1.000000
vn 0.000000 0.000000 1.000000
vn 0.000000 0.965926 -0.258819
vn 0.000000 0.965926 -0.258819
vn 1.000000 -0.000000 0.000000
vn 1.000000 0.000000 0.000000
vn 0.000000 -0.965926 0.258819
vn 0.000000 -0.965926 0.258819
vn -1.000000 0.000000 0.000000
vn -1.000000 0.000000 0.000000
vn 0.000000 -0.258819 -0.965926
vn 0.000000 -0.258819 -0.965926
vn -0.000000 0.258819 0.965926
vn 0.000000 0.258819 0.965926
vn -1.000000 0.000000 0.000000
vn -1.000000 -0.000000 0.000000
vn 0.000000 0.965926 0.258820
vn 0.000000 0.965926 0.258820
vn 1.000000 0.000000 0.000000
vn 1.000000 0.000000 -0.000000
vn 0.000000 -0.965926 -0.258819
vn 0.000000 -0.965926 -0.258819
vn 0.000000 0.258819 -0.965926
vn 0.000000 0.258819 -0.965926
vn 0.000000 -0.258819 0.965926
vn 0.000000 -0.258819 0.965926
vn 0.000000 0.000000 -1.000000
vn 0.000000 0.000000 -1.000000
vn 1.000000 0.000000 0.000000
vn 1.000000 -0.000000 0.000000
vn 0.000000 0.000000 1.000000
vn 0.000000 0.000000 1.000000
vn -1.000000 0.000000 0.000000
vn -1.000000 0.000000 0.000000
vn 0.000000 -1.000000 0.000000
vn 0.000000 -1.000000 0.000000
vn 0.000000 1.000000 0.000000
vn 0.000000 1.000000 0.000000
vn -1.000000 0.000000 0.000000
vn -1.000000 -0.000000 -0.000000
vn 0.000000 0.000000 1.000000
vn 0.000000 0.000000 1.000000
vn 1.000000 0.000000 0.000000
vn 1.000000 0.000000 -0.000000
vn 0.000000 0.000000 -1.000000
vn 0.000000 0.000000 -1.000000
vn 0.000000 1.000000 0.000000
vn 0.000000 1.000000 0.000000
vn 0.000000 -1.000000 0.000000
vn 0.000000 -1.000000 0.000000
vn 0.000000 -1.000000 0.000000
vn 0.000000 -1.000000 0.000000
vn 1.000000 0.000000 0.000000
vn 1.000000 -0.000000 0.000000
vn 0.000000 1.000000 -0.000000
vn 0.000000 1.000000 0.000000
vn -1.000000 0.000000 0.000000
vn -1.000000 -0.000000 0.000000
vn 0.000000 0.000000 -1.000000
vn 0.000000 0.000000 -1.000000
vn 0.000000 0.000000 1.000000
vn 0.000000 0.000000 1.000000
vn 0.000000 0.965926 -0.258819
vn 0.000000 0.965926 -0.258819
vn 1.000000 -0.000000 0.000000
vn 1.000000 0.000000 0.000000
vn 0.000000 -0.965926 0.258819
vn 0.000000 -0.965926 0.258819
vn -1.000000 0.000000 0.000000
vn -1.000000 0.000000 0.000000
vn 0.000000 -0.258819 -0.965926
vn 0.000000 -0.258819 -0.965926
vn -0.000000 0.258819 0.965926
vn 0.000000 0.258819 0.965926
vn -1.000000 0.000000 0.000000
vn -1.000000 -0.000000 0.000000
vn 0.000000 0.965926 0.258820
vn 0.000000 0.965926 0.258820
vn 1.000000 0.000000 0.000000
vn 1.000000 0.000000 -0.000000
vn 0.000000 -0.965926 -0.258819
vn 0.000000 -0.965926 -0.258819
vn 0.000000 0.258819 -0.965926
vn 0.000000 0.258819 -0.965926
vn 0.000000 -0.258819 0.965926
vn 0.000000 -0.258819 0.965926
vn 0.000000 0.000000 -1.000000
vn 0.000000 0.000000 -1.000000
vn 1.000000 0.000000 0.000000
vn 1.000000 -0.000000 0.000000
vn 0.000000 0.000000 1.000000
vn 0.000000 0.000000 1.000000
vn -1.000000 0.000000 0.000000
vn -1.000000 0.000000 0.000000
vn 0.000000 -1.000000 0.000000
vn 0.000000 -1.000000 0.000000
vn 0.000000 1.000000 0.000000
vn 0.000000 1.000000 0.000000
vn -1.000000 0.000000 0.000000
vn -1.000000 -0.000000 -0.000000
vn 0.000000 0.000000 1.000000
vn 0.000000 0.000000 1.000000
vn 1.000000 0.000000 0.000000
vn 1.000000 0.000000 -0.000000
vn 0.000000 0.000000 -1.000000
vn 0.000000 0.000000 -1.000000
vn 0.000000 1.000000 0.000000
vn 0.000000 1.000000 0.000000
vn 0.000000 -1.000000 0.000000
vn 0.000000 -1.000000 0.000000
vn 0.171230 -0.985231 0.000000
vn 0.171230 -0.985231 0.000000
vn 1.000000 0.000000 0.000000
vn 1.000000 -0.000000 0.000000
vn 0.171230 0.985231 -0.000000
vn 0.171230 0.985231 0.000000
vn -1.000000 0.000000 0.000000
vn -1.000000 -0.000000 0.000000
vn 0.000000 0.000000 -1.000000
vn 0.000000 0.000000 -1.000000
vn 0.000000 0.000000 1.000000
vn 0.000000 0.000000 1.000000
vn -0.165228 0.950699 -0.262433
vn -0.165228 0.950699 -0.262433
vn 0.998990 0.011631 0.043406
vn 0.998990 0.011631 0.043406
vn 0.165228 -0.950699 0.262433
vn 0.165228 -0.950699 0.262434
vn -0.998990 -0.011631 -0.043406
vn -0.998990 -0.011631 -0.043406
vn 0.044936 -0.258558 -0.964950
vn 0.044936 -0.258558 -0.964950
vn -0.044936 0.258558 0.964950
vn -0.044936 0.258558 0.964950
vn -0.998990 0.011631 -0.043406
vn -0.998990 0.011631 -0.043406
vn 0.165228 0.950699 0.262433
vn 0.165228 0.950699 0.262434
vn 0.998990 -0.011631 0.043406
vn 0.998990 -0.011631 0.043406
vn -0.165228 -0.950699 -0.262434
vn -0.165228 -0.950699 -0.262434
vn 0.044936 0.258558 -0.964950
vn 0.044936 0.258558 -0.964950
vn -0.044936 -0.258558 0.964950
vn -0.044936 -0.258558 0.964950
vn 0.000000 0.000000 -1.000000
vn -0.000000 0.000000 -1.000000
vn 0.985231 0.171231 0.000000
vn 0.985231 0.171231 0.000000
vn 0.000000 0.000000 1.000000
vn 0.000000 -0.000000 1.000000
vn -0.985231 -0.171231 0.000000
vn -0.985231 -0.171231 0.000000
vn 0.171230 -0.985231 0.000000
vn 0.171230 -0.985231 0.000000
vn -0.171230 0.985231 0.000000
vn -0.171230 0.985231 0.000000
vn -0.985231 0.171231 0.000000
vn -0.985231 0.171231 0.000000
vn 0.000000 0.000000 1.000000
vn 0.000000 0.000000 1.000000
vn 0.985231 -0.171231 0.000000
vn 0.985231 -0.171231 0.000000
vn 0.000000 0.000000 -1.000000
vn 0.000000 -0.000000 -1.000000
vn 0.171230 0.985231 0.000000
vn 0.171230 0.985231 -0.000000
vn -0.171230 -0.985231 0.000000
vn -0.171230 -0.985231 0.000000
vn 0.258306 -0.966063 0.000000
vn 0.258306 -0.966063 0.000000
vn 0.258306 0.966063 -0.000000
vn 0.258306 0.966063 0.000000
vn -1.000000 0.000000 0.000000
vn -1.000000 -0.000000 0.000000
vn 0.000000 0.000000 -1.000000
vn 0.000000 0.000000 1.000000
vn -0.248909 0.930919 -0.267272
vn -0.248909 0.930919 -0.267272
vn 0.508080 -0.822168 0.256700
vn 0.508080 -0.822168 0.256700
vn -0.997614 -0.017868 -0.066684
vn -0.997614 -0.017868 -0.066684
vn 0.069038 -0.258202 -0.963621
vn -0.069038 0.258201 0.963621
vn -0.997614 0.017868 -0.066684
vn -0.997614 0.017868 -0.066684
vn 0.508080 0.822168 0.256700
vn 0.508080 0.822168 0.256700
vn -0.248909 -0.930919 -0.267272
vn -0.248909 -0.930919 -0.267272
vn 0.069038 0.258202 -0.963621
vn -0.069038 -0.258202 0.963621
vn -0.064076 -0.037863 -0.997226
vn -0.064076 -0.037863 -0.997226
vn 0.860927 0.508728 0.000000
vn 0.860927 0.508728 0.000000
vn 0.000000 0.000000 1.000000
vn 0.000000 -0.000000 1.000000
vn -0.860927 -0.508728 0.000000
vn -0.860927 -0.508728 0.000000
vn 0.508729 -0.860927 0.000000
vn 0.508729 -0.860927 0.000000
vn -0.508729 0.860927 0.000000
vn -0.508729 0.860927 0.000000
vn -0.860927 0.508728 0.000000
vn -0.860927 0.508728 0.000000
vn 0.000000 0.000000 1.000000
vn 0.000000 0.000000 1.000000
vn 0.860927 -0.508728 0.000000
vn 0.860927 -0.508728 0.000000
vn -0.064076 0.037863 -0.997226
vn -0.064076 0.037863 -0.997226
vn 0.508729 0.860927 0.000000
vn 0.508729 0.860927 -0.000000
vn -0.508729 -0.860927 0.000000
vn -0.508729 -0.860927 0.000000
vn 0.000000 0.000000 -1.000000
vn 0.000000 0.000000 -1.000000
vn 0.000000 0.258819 -0.965926
vn 0.000000 0.258819 -0.965926
vn 0.000000 1.000000 0.000000
vn 0.000000 1.000000 0.000000
vn -0.000000 0.000000 1.000000
vn 0.000000 0.000000 1.000000
vn 0.000000 -1.000000 0.000000
vn 0.000000 -1.000000 0.000000
vn 0.000000 -0.258819 -0.965926
vn 0.000000 -0.258819 -0.965926
vn -1.000000 0.000000 0.000000
vn -1.000000 0.000000 0.000000
vn -1.000000 0.000000 0.000000
vn -1.000000 0.000000 0.000000
vn 1.000000 0.000000 0.000000
vn 1.000000 0.000000 0.000000
vn 1.000000 0.000000 0.000000
vn 1.000000 -0.000000 0.000000
vn 0.000000 0.000000 -1.000000
vn 0.000000 0.000000 -1.000000
vn 0.000000 0.258819 -0.965926
vn 0.000000 0.258819 -0.965926
vn 0.000000 1.000000 0.000000
vn 0.000000 1.000000 0.000000
vn -0.000000 0.000000 1.000000
vn 0.000000 0.000000 1.000000
vn 0.000000 -1.000000 0.000000
vn 0.000000 -1.000000 -0.000000
vn 0.000000 -0.258819 -0.965926
vn 0.000000 -0.258819 -0.965926
vn -1.000000 0.000000 0.000000
vn -1.000000 0.000000 0.000000
vn -1.000000 0.000000 0.000000
vn -1.000000 0.000000 0.000000
vn 1.000000 0.000000 0.000000
vn 1.000000 0.000000 0.000000
vn 1.000000 0.000000 0.000000
vn 1.000000 -0.000000 0.000000
vn 0.000000 0.000000 -1.000000
vn 0.000000 0.000000 -1.000000
vn 0.000000 0.258819 -0.965926
vn 0.000000 0.258819 -0.965926
vn 0.000000 1.000000 0.000000
vn 0.000000 1.000000 0.000000
vn -0.000000 0.000000 1.000000
vn 0.000000 0.000000 1.000000
vn 0.000000 -1.000000 0.000000
vn 0.000000 -1.000000 -0.000000
vn 0.000000 -0.258819 -0.965926
vn 0.000000 -0.258819 -0.965926
vn -1.000000 0.000000 0.000000
vn -1.000000 0.000000 0.000000
vn -1.000000 0.000000 0.000000
vn -1.000000 0.000000 0.000000
vn 1.000000 0.000000 0.000000
vn 1.000000 0.000000 0.000000
vn 1.000000 0.000000 0.000000
vn 1.000000 -0.000000 0.000000
vn 0.000000 0.000000 -1.000000
vn 0.000000 0.000000 -1.000000
vn 0.000000 0.258819 -0.965926
vn 0.000000 0.258819 -0.965926
vn 0.000000 1.000000 0.000000
vn 0.000000 1.000000 0.000000
vn -0.000000 0.000000 1.000000
vn 0.000000 0.000000 1.000000
vn 0.000000 -1.000000 0.000000
vn 0.000000 -1.000000 -0.000000
vn 0.000000 -0.258819 -0.965926
vn 0.000000 -0.258819 -0.965926
vn -1.000000 0.000000 0.000000
vn -1.000000 0.000000 0.000000
vn -1.000000 0.000000 0.000000
vn -1.000000 0.000000 0.000000
vn 1.000000 0.000000 0.000000
vn 1.000000 0.000000 0.000000
vn 1.000000 0.000000 0.000000
vn 1.000000 -0.000000 0.000000
vn 0.000000 0.000000 -1.000000
vn 0.000000 0.000000 -1.000000
vn 0.000000 0.258819 -0.965926
vn 0.000000 0.258819 -0.965926
vn 0.000000 1.000000 0.000000
vn 0.000000 1.000000 0.000000
vn -0.000000 0.000000 1.000000
vn 0.000000 0.000000 1.000000
vn 0.000000 -1.000000 0.000000
vn 0.000000 -1.000000 -0.000000
vn 0.000000 -0.258819 -0.965926
vn 0.000000 -0.258819 -0.965926
vn -1.000000 0.000000 0.000000
vn -1.000000 0.000000 0.000000
vn -1.000000 0.000000 0.000000
vn -1.000000 0.000000 0.000000
vn 1.000000 0.000000 0.000000
vn 1.000000 0.000000 0.000000
vn 1.000000 0.000000 0.000000
vn 1.000000 -0.000000 0.000000
vn 0.000000 0.000000 -1.000000
vn 0.000000 0.000000 -1.000000
vn 0.000000 0.258819 -0.965926
vn 0.000000 0.258819 -0.965926
vn 0.000000 1.000000 0.000000
vn 0.000000 1.000000 0.000000
vn -0.000000 0.000000 1.000000
vn 0.000000 0.000000 1.000000
vn 0.000000 -1.000000 0.000000
vn 0.000000 -1.000000 -0.000000
vn 0.000000 -0.258819 -0.965926
vn 0.000000 -0.258819 -0.965926
vn -1.000000 0.000000 0.000000
vn -1.000000 0.000000 0.000000
vn -1.000000 0.000000 0.000000
vn -1.000000 0.000000 0.000000
vn 1.000000 0.000000 0.000000
vn 1.000000 0.000000 0.000000
vn 1.000000 0.000000 0.000000
vn 1.000000 -0.000000 0.000000
vn 0.000000 -1.000000 0.000000
vn 0.000000 -1.000000 0.000000
vn 1.000000 0.000000 0.000000
vn 1.000000 0.000000 0.000000
vn 0.000000 1.000000 -0.000000
vn 0.000000 1.000000 0.000000
vn -1.000000 0.000000 0.000000
vn -1.000000 0.000000 0.000000
vn 0.000000 0.000000 -1.000000
vn 0.000000 0.000000 -1.000000
vn 0.000000 0.000000 1.000000
vn 0.000000 0.000000 1.000000
vn 0.000000 -1.000000 0.000000
vn 0.000000 -1.000000 0.000000
vn 1.000000 0.000000 0.000000
vn 1.000000 0.000000 0.000000
vn 0.000000 1.000000 -0.000000
vn 0.000000 1.000000 0.000000
vn -1.000000 0.000000 0.000000
vn -1.000000 0.000000 0.000000
vn 0.000000 0.000000 -1.000000
vn 0.000000 0.000000 -1.000000
vn 0.000000 0.000000 1.000000
vn 0.000000 0.000000 1.000000
vn 0.000000 -1.000000 0.000000
vn 0.000000 -1.000000 0.000000
vn 1.000000 0.000000 0.000000
vn 1.000000 0.000000 0.000000
vn 0.000000 1.000000 -0.000000
vn 0.000000 1.000000 0.000000
vn -1.000000 0.000000 0.000000
vn -1.000000 0.000000 0.000000
vn 0.000000 0.000000 -1.000000
vn 0.000000 0.000000 -1.000000
vn 0.000000 0.000000 1.000000
vn 0.000000 0.000000 1.000000
vn 0.000000 -1.000000 0.000000
vn 0.000000 -1.000000 0.000000
vn 1.000000 0.000000 0.000000
vn 1.000000 0.000000 0.000000
vn 0.000000 1.000000 -0.000000
vn 0.000000 1.000000 0.000000
vn -1.000000 0.000000 0.000000
vn -1.000000 0.000000 0.000000
vn 0.000000 0.000000 -1.000000
vn 0.000000 0.000000 -1.000000
vn 0.000000 0.000000 1.000000
vn 0.000000 0.000000 1.000000
vn 0.171230 -0.985231 0.000000
vn 0.171230 -0.985231 0.000000
vn 1.000000 0.000000 0.000000
vn 1.000000 -0.000000 0.000000
vn 0.171230 0.985231 -0.000000
vn 0.171230 0.985231 0.000000
vn -1.000000 0.000000 0.000000
vn -1.000000 0.000000 0.000000
vn 0.000000 0.000000 -1.000000
vn 0.000000 0.000000 -1.000000
vn 0.000000 0.000000 1.000000
vn 0.000000 0.000000 1.000000
vn 0.508729 -0.860927 0.000000
vn 0.508729 -0.860927 0.000000
vn 0.508729 0.860927 -0.000000
vn 0.508729 0.860927 0.000000
vn -1.000000 0.000000 0.000000
vn -1.000000 -0.000000 0.000000
vn 0.000000 0.000000 -1.000000
vn 0.000000 0.000000 1.000000
vn 0.000000 -1.000000 0.000000
vn 0.000000 -1.000000 0.000000
vn 1.000000 0.000000 0.000000
vn 1.000000 -0.000000 0.000000
vn 0.000000 1.000000 -0.000000
vn 0.000000 1.000000 0.000000
vn -1.000000 0.000000 0.000000
vn -1.000000 -0.000000 0.000000
vn 0.000000 0.000000 -1.000000
vn 0.000000 0.000000 -1.000000
vn 0.000000 0.000000 1.000000
vn 0.000000 0.000000 1.000000
vn 0.000000 -1.000000 0.000000
vn 0.000000 -1.000000 0.000000
vn 1.000000 0.000000 0.000000
vn 1.000000 -0.000000 0.000000
vn 0.000000 1.000000 -0.000000
vn 0.000000 1.000000 0.000000
vn -1.000000 0.000000 0.000000
vn -1.000000 -0.000000 0.000000
vn 0.000000 0.000000 -1.000000
vn 0.000000 0.000000 -1.000000
vn 0.000000 0.000000 1.000000
vn 0.000000 0.000000 1.000000
vn 0.000000 -1.000000 0.000000
vn 0.000000 -1.000000 0.000000
vn 1.000000 0.000000 0.000000
vn 1.000000 -0.000000 0.000000
vn 0.000000 1.000000 -0.000000
vn 0.000000 1.000000 0.000000
vn -1.000000 0.000000 0.000000
vn -1.000000 -0.000000 0.000000
vn 0.000000 0.000000 -1.000000
vn 0.000000 0.000000 -1.000000
vn 0.000000 0.000000 1.000000
vn 0.000000 0.000000 1.000000
vn 0.000000 -1.000000 0.000000
vn 0.000000 -1.000000 0.000000
vn 1.000000 0.000000 0.000000
vn 1.000000 -0.000000 0.000000
vn 0.000000 1.000000 -0.000000
vn 0.000000 1.000000 0.000000
vn -1.000000 0.000000 0.000000
vn -1.000000 -0.000000 0.000000
vn 0.000000 0.000000 -1.000000
vn 0.000000 0.000000 -1.000000
vn 0.000000 0.000000 1.000000
vn 0.000000 0.000000 1.000000
g CAT-PORT-BOTTOM-01 | BottomFlat | nominal plywood 20 mm
f 1//1 2//1 3//1
f 3//2 2//2 4//2
f 2//3 5//3 4//3
f 4//4 5//4 6//4
f 5//5 7//5 6//5
f 6//6 7//6 8//6
f 7//7 1//7 8//7
f 8//8 1//8 3//8
f 1//9 5//9 2//9
f 7//10 5//10 1//10
f 6//11 3//11 4//11
f 6//12 8//12 3//12
g CAT-PORT-CHINE-PORT-01 | ChinePort | nominal plywood 20 mm
f 9//13 10//13 11//13
f 9//14 11//14 12//14
f 13//15 9//15 12//15
f 14//16 9//16 13//16
f 15//17 14//17 13//17
f 15//18 13//18 16//18
f 10//19 15//19 16//19
f 10//20 16//20 11//20
f 14//21 10//21 9//21
f 15//22 10//22 14//22
f 11//23 13//23 12//23
f 11//24 16//24 13//24
g CAT-PORT-CHINE-STARBOARD-01 | ChineStarboard | nominal plywood 20 mm
f 17//25 18//25 19//25
f 17//26 19//26 20//26
f 21//27 17//27 20//27
f 21//28 20//28 22//28
f 23//29 21//29 22//29
f 23//30 22//30 24//30
f 18//31 23//31 24//31
f 18//32 24//32 19//32
f 23//33 17//33 21//33
f 18//34 17//34 23//34
f 20//35 24//35 22//35
f 20//36 19//36 24//36
g CAT-PORT-SIDE-PORT-01 | SidePort | nominal plywood 20 mm
f 25//37 26//37 27//37
f 25//38 27//38 28//38
f 29//39 25//39 28//39
f 30//40 25//40 29//40
f 31//41 30//41 29//41
f 31//42 29//42 32//42
f 27//43 31//43 32//43
f 26//44 31//44 27//44
f 25//45 30//45 31//45
f 25//46 31//46 26//46
f 29//47 28//47 32//47
f 32//48 28//48 27//48
g CAT-PORT-SIDE-STARBOARD-01 | SideStarboard | nominal plywood 20 mm
f 33//49 34//49 35//49
f 36//50 34//50 33//50
f 37//51 36//51 33//51
f 37//52 33//52 38//52
f 39//53 37//53 38//53
f 40//54 37//54 39//54
f 34//55 40//55 39//55
f 34//56 39//56 35//56
f 37//57 34//57 36//57
f 37//58 40//58 34//58
f 35//59 38//59 33//59
f 39//60 38//60 35//60
g CAT-PORT-BOTTOM-02 | BottomFlat | nominal plywood 20 mm
f 41//61 42//61 43//61
f 43//62 42//62 44//62
f 42//63 45//63 44//63
f 44//64 45//64 46//64
f 45//65 47//65 46//65
f 46//66 47//66 48//66
f 47//67 41//67 48//67
f 48//68 41//68 43//68
f 41//69 45//69 42//69
f 47//70 45//70 41//70
f 46//71 43//71 44//71
f 46//72 48//72 43//72
g CAT-PORT-CHINE-PORT-02 | ChinePort | nominal plywood 20 mm
f 49//73 50//73 51//73
f 49//74 51//74 52//74
f 53//75 49//75 52//75
f 54//76 49//76 53//76
f 55//77 54//77 53//77
f 55//78 53//78 56//78
f 50//79 55//79 56//79
f 50//80 56//80 51//80
f 55//81 50//81 49//81
f 55//82 49//82 54//82
f 51//83 56//83 52//83
f 52//84 56//84 53//84
g CAT-PORT-CHINE-STARBOARD-02 | ChineStarboard | nominal plywood 20 mm
f 57//85 58//85 59//85
f 57//86 59//86 60//86
f 61//87 57//87 60//87
f 61//88 60//88 62//88
f 63//89 61//89 62//89
f 63//90 62//90 64//90
f 58//91 63//91 64//91
f 58//92 64//92 59//92
f 57//93 61//93 63//93
f 58//94 57//94 63//94
f 62//95 60//95 64//95
f 60//96 59//96 64//96
g CAT-PORT-SIDE-PORT-02 | SidePort | nominal plywood 20 mm
f 65//97 66//97 67//97
f 65//98 67//98 68//98
f 69//99 65//99 68//99
f 70//100 65//100 69//100
f 71//101 70//101 69//101
f 71//102 69//102 72//102
f 67//103 71//103 72//103
f 66//104 71//104 67//104
f 65//105 70//105 71//105
f 65//106 71//106 66//106
f 69//107 68//107 72//107
f 72//108 68//108 67//108
g CAT-PORT-SIDE-STARBOARD-02 | SideStarboard | nominal plywood 20 mm
f 73//109 74//109 75//109
f 76//110 74//110 73//110
f 77//111 76//111 73//111
f 77//112 73//112 78//112
f 79//113 77//113 78//113
f 80//114 77//114 79//114
f 74//115 80//115 79//115
f 74//116 79//116 75//116
f 77//117 74//117 76//117
f 77//118 80//118 74//118
f 75//119 78//119 73//119
f 79//120 78//120 75//120
g CAT-PORT-BOTTOM-03 | BottomFlat | nominal plywood 20 mm
f 81//121 82//121 83//121
f 83//122 82//122 84//122
f 82//123 85//123 84//123
f 84//124 85//124 86//124
f 85//125 87//125 86//125
f 86//126 87//126 88//126
f 87//127 81//127 88//127
f 88//128 81//128 83//128
f 81//129 85//129 82//129
f 87//130 85//130 81//130
f 86//131 83//131 84//131
f 86//132 88//132 83//132
g CAT-PORT-CHINE-PORT-03 | ChinePort | nominal plywood 20 mm
f 89//133 90//133 91//133
f 89//134 91//134 92//134
f 93//135 89//135 92//135
f 94//136 89//136 93//136
f 95//137 94//137 93//137
f 95//138 93//138 96//138
f 90//139 95//139 96//139
f 90//140 96//140 91//140
f 95//141 90//141 89//141
f 95//142 89//142 94//142
f 91//143 96//143 92//143
f 92//144 96//144 93//144
g CAT-PORT-CHINE-STARBOARD-03 | ChineStarboard | nominal plywood 20 mm
f 97//145 98//145 99//145
f 97//146 99//146 100//146
f 101//147 97//147 100//147
f 101//148 100//148 102//148
f 103//149 101//149 102//149
f 103//150 102//150 104//150
f 98//151 103//151 104//151
f 98//152 104//152 99//152
f 97//153 101//153 103//153
f 98//154 97//154 103//154
f 102//155 100//155 104//155
f 100//156 99//156 104//156
g CAT-PORT-SIDE-PORT-03 | SidePort | nominal plywood 20 mm
f 105//157 106//157 107//157
f 105//158 107//158 108//158
f 109//159 105//159 108//159
f 110//160 105//160 109//160
f 111//161 110//161 109//161
f 111//162 109//162 112//162
f 107//163 111//163 112//163
f 106//164 111//164 107//164
f 105//165 110//165 111//165
f 105//166 111//166 106//166
f 109//167 108//167 112//167
f 112//168 108//168 107//168
g CAT-PORT-SIDE-STARBOARD-03 | SideStarboard | nominal plywood 20 mm
f 113//169 114//169 115//169
f 116//170 114//170 113//170
f 117//171 116//171 113//171
f 117//172 113//172 118//172
f 119//173 117//173 118//173
f 120//174 117//174 119//174
f 114//175 120//175 119//175
f 114//176 119//176 115//176
f 117//177 114//177 116//177
f 117//178 120//178 114//178
f 115//179 118//179 113//179
f 119//180 118//180 115//180
g CAT-PORT-BOTTOM-04 | BottomFlat | nominal plywood 20 mm
f 121//181 122//181 123//181
f 123//182 122//182 124//182
f 122//183 125//183 124//183
f 124//184 125//184 126//184
f 125//185 127//185 126//185
f 126//186 127//186 128//186
f 127//187 121//187 128//187
f 128//188 121//188 123//188
f 121//189 125//189 122//189
f 127//190 125//190 121//190
f 126//191 123//191 124//191
f 126//192 128//192 123//192
g CAT-PORT-CHINE-PORT-04 | ChinePort | nominal plywood 20 mm
f 129//193 130//193 131//193
f 129//194 131//194 132//194
f 133//195 129//195 132//195
f 134//196 129//196 133//196
f 135//197 134//197 133//197
f 135//198 133//198 136//198
f 130//199 135//199 136//199
f 130//200 136//200 131//200
f 135//201 130//201 129//201
f 135//202 129//202 134//202
f 131//203 136//203 132//203
f 132//204 136//204 133//204
g CAT-PORT-CHINE-STARBOARD-04 | ChineStarboard | nominal plywood 20 mm
f 137//205 138//205 139//205
f 137//206 139//206 140//206
f 141//207 137//207 140//207
f 141//208 140//208 142//208
f 143//209 141//209 142//209
f 143//210 142//210 144//210
f 138//211 143//211 144//211
f 138//212 144//212 139//212
f 137//213 141//213 143//213
f 138//214 137//214 143//214
f 142//215 140//215 144//215
f 140//216 139//216 144//216
g CAT-PORT-SIDE-PORT-04 | SidePort | nominal plywood 20 mm
f 145//217 146//217 147//217
f 145//218 147//218 148//218
f 149//219 145//219 148//219
f 150//220 145//220 149//220
f 151//221 150//221 149//221
f 151//222 149//222 152//222
f 147//223 151//223 152//223
f 146//224 151//224 147//224
f 145//225 150//225 151//225
f 145//226 151//226 146//226
f 149//227 148//227 152//227
f 152//228 148//228 147//228
g CAT-PORT-SIDE-STARBOARD-04 | SideStarboard | nominal plywood 20 mm
f 153//229 154//229 155//229
f 156//230 154//230 153//230
f 157//231 156//231 153//231
f 157//232 153//232 158//232
f 159//233 157//233 158//233
f 160//234 157//234 159//234
f 154//235 160//235 159//235
f 154//236 159//236 155//236
f 157//237 154//237 156//237
f 157//238 160//238 154//238
f 155//239 158//239 153//239
f 159//240 158//240 155//240
g CAT-PORT-BOTTOM-05 | BottomFlat | nominal plywood 20 mm
f 161//241 162//241 163//241
f 161//242 164//242 162//242
f 164//243 165//243 162//243
f 162//244 165//244 166//244
f 165//245 167//245 166//245
f 166//246 167//246 168//246
f 167//247 161//247 168//247
f 168//248 161//248 163//248
f 161//249 165//249 164//249
f 167//250 165//250 161//250
f 166//251 163//251 162//251
f 166//252 168//252 163//252
g CAT-PORT-CHINE-PORT-05 | ChinePort | nominal plywood 20 mm
f 169//253 170//253 171//253
f 169//254 171//254 172//254
f 173//255 169//255 172//255
f 173//256 172//256 174//256
f 175//257 173//257 174//257
f 176//258 173//258 175//258
f 170//259 176//259 175//259
f 170//260 175//260 171//260
f 170//261 169//261 173//261
f 176//262 170//262 173//262
f 172//263 171//263 174//263
f 171//264 175//264 174//264
g CAT-PORT-CHINE-STARBOARD-05 | ChineStarboard | nominal plywood 20 mm
f 177//265 178//265 179//265
f 177//266 179//266 180//266
f 181//267 177//267 180//267
f 181//268 180//268 182//268
f 183//269 181//269 182//269
f 183//270 182//270 184//270
f 179//271 183//271 184//271
f 178//272 183//272 179//272
f 178//273 177//273 181//273
f 178//274 181//274 183//274
f 180//275 179//275 182//275
f 182//276 179//276 184//276
g CAT-PORT-SIDE-PORT-05 | SidePort | nominal plywood 20 mm
f 185//277 186//277 187//277
f 185//278 187//278 188//278
f 189//279 185//279 188//279
f 190//280 185//280 189//280
f 191//281 190//281 189//281
f 192//282 190//282 191//282
f 187//283 192//283 191//283
f 186//284 192//284 187//284
f 186//285 185//285 190//285
f 186//286 190//286 192//286
f 188//287 187//287 189//287
f 189//288 187//288 191//288
g CAT-PORT-SIDE-STARBOARD-05 | SideStarboard | nominal plywood 20 mm
f 193//289 194//289 195//289
f 196//290 194//290 193//290
f 197//291 196//291 193//291
f 197//292 193//292 198//292
f 199//293 197//293 198//293
f 200//294 197//294 199//294
f 194//295 200//295 199//295
f 194//296 199//296 195//296
f 197//297 194//297 196//297
f 200//298 194//298 197//298
f 195//299 198//299 193//299
f 195//300 199//300 198//300
g CAT-PORT-BOTTOM-06 | BottomFlat | nominal plywood 20 mm
f 201//301 202//301 203//301
f 201//302 204//302 202//302
f 204//303 205//303 202//303
f 204//304 206//304 205//304
f 206//305 201//305 205//305
f 205//306 201//306 203//306
f 206//307 204//307 201//307
f 202//308 205//308 203//308
g CAT-PORT-CHINE-PORT-06 | ChinePort | nominal plywood 20 mm
f 207//309 208//309 209//309
f 207//310 209//310 210//310
f 211//311 207//311 210//311
f 212//312 207//312 211//312
f 208//313 212//313 211//313
f 208//314 211//314 209//314
f 212//315 208//315 207//315
f 209//316 211//316 210//316
g CAT-PORT-CHINE-STARBOARD-06 | ChineStarboard | nominal plywood 20 mm
f 213//317 214//317 215//317
f 213//318 215//318 216//318
f 217//319 213//319 216//319
f 218//320 213//320 217//320
f 214//321 218//321 217//321
f 214//322 217//322 215//322
f 214//323 213//323 218//323
f 216//324 215//324 217//324
g CAT-PORT-SIDE-PORT-06 | SidePort | nominal plywood 20 mm
f 219//325 220//325 221//325
f 219//326 221//326 222//326
f 223//327 219//327 222//327
f 223//328 222//328 224//328
f 225//329 223//329 224//329
f 226//330 223//330 225//330
f 220//331 226//331 225//331
f 220//332 225//332 221//332
f 220//333 219//333 223//333
f 220//334 223//334 226//334
f 222//335 221//335 224//335
f 224//336 221//336 225//336
g CAT-PORT-SIDE-STARBOARD-06 | SideStarboard | nominal plywood 20 mm
f 227//337 228//337 229//337
f 227//338 229//338 230//338
f 231//339 227//339 230//339
f 231//340 230//340 232//340
f 233//341 231//341 232//341
f 233//342 232//342 234//342
f 229//343 233//343 234//343
f 228//344 233//344 229//344
f 231//345 228//345 227//345
f 233//346 228//346 231//346
f 229//347 232//347 230//347
f 229//348 234//348 232//348
g CAT-PORT-TRANSOM-01 | Transom | nominal plywood 20 mm
f 235//349 236//349 237//349
f 237//350 236//350 238//350
f 236//351 239//351 238//351
f 238//352 239//352 240//352
f 239//353 241//353 240//353
f 239//354 242//354 241//354
f 242//355 243//355 241//355
f 242//356 244//356 243//356
f 244//357 245//357 243//357
f 244//358 246//358 245//358
f 246//359 235//359 245//359
f 245//360 235//360 237//360
f 236//361 242//361 239//361
f 235//362 244//362 236//362
f 246//363 244//363 235//363
f 236//364 244//364 242//364
f 241//365 238//365 240//365
f 243//366 237//366 238//366
f 243//367 245//367 237//367
f 243//368 238//368 241//368
g CAT-PORT-BULKHEAD-01 | Bulkhead | nominal plywood 20 mm
f 247//369 248//369 249//369
f 249//370 248//370 250//370
f 248//371 251//371 250//371
f 250//372 251//372 252//372
f 251//373 253//373 252//373
f 251//374 254//374 253//374
f 254//375 255//375 253//375
f 254//376 256//376 255//376
f 256//377 257//377 255//377
f 255//378 257//378 258//378
f 257//379 247//379 258//379
f 258//380 247//380 249//380
f 248//381 254//381 251//381
f 248//382 247//382 254//382
f 257//383 256//383 247//383
f 247//384 256//384 254//384
f 253//385 250//385 252//385
f 249//386 250//386 253//386
f 255//387 258//387 249//387
f 255//388 249//388 253//388
g CAT-PORT-BULKHEAD-02 | Bulkhead | nominal plywood 20 mm
f 259//389 260//389 261//389
f 261//390 260//390 262//390
f 260//391 263//391 262//391
f 262//392 263//392 264//392
f 263//393 265//393 264//393
f 263//394 266//394 265//394
f 266//395 267//395 265//395
f 266//396 268//396 267//396
f 268//397 269//397 267//397
f 267//398 269//398 270//398
f 269//399 259//399 270//399
f 270//400 259//400 261//400
f 260//401 266//401 263//401
f 260//402 259//402 266//402
f 269//403 268//403 259//403
f 259//404 268//404 266//404
f 265//405 262//405 264//405
f 261//406 262//406 265//406
f 267//407 270//407 261//407
f 267//408 261//408 265//408
g CAT-PORT-BULKHEAD-03 | Bulkhead | nominal plywood 20 mm
f 271//409 272//409 273//409
f 273//410 272//410 274//410
f 272//411 275//411 274//411
f 274//412 275//412 276//412
f 275//413 277//413 276//413
f 275//414 278//414 277//414
f 278//415 279//415 277//415
f 278//416 280//416 279//416
f 280//417 281//417 279//417
f 279//418 281//418 282//418
f 281//419 271//419 282//419
f 282//420 271//420 273//420
f 272//421 278//421 275//421
f 272//422 271//422 278//422
f 281//423 280//423 271//423
f 271//424 280//424 278//424
f 277//425 274//425 276//425
f 273//426 274//426 277//426
f 279//427 282//427 273//427
f 279//428 273//428 277//428
g CAT-PORT-BULKHEAD-04 | Bulkhead | nominal plywood 20 mm
f 283//429 284//429 285//429
f 285//430 284//430 286//430
f 284//431 287//431 286//431
f 286//432 287//432 288//432
f 287//433 289//433 288//433
f 287//434 290//434 289//434
f 290//435 291//435 289//435
f 290//436 292//436 291//436
f 292//437 293//437 291//437
f 291//438 293//438 294//438
f 293//439 283//439 294//439
f 294//440 283//440 285//440
f 284//441 290//441 287//441
f 284//442 283//442 290//442
f 293//443 292//443 283//443
f 283//444 292//444 290//444
f 289//445 286//445 288//445
f 285//446 286//446 289//446
f 291//447 294//447 285//447
f 291//448 285//448 289//448
g CAT-PORT-BULKHEAD-05 | Bulkhead | nominal plywood 20 mm
f 295//449 296//449 297//449
f 297//450 296//450 298//450
f 296//451 299//451 298//451
f 298//452 299//452 300//452
f 299//453 301//453 300//453
f 299//454 302//454 301//454
f 302//455 303//455 301//455
f 301//456 303//456 304//456
f 303//457 305//457 304//457
f 304//458 305//458 306//458
f 305//459 295//459 306//459
f 306//460 295//460 297//460
f 296//461 302//461 299//461
f 295//462 303//462 296//462
f 305//463 303//463 295//463
f 296//464 303//464 302//464
f 301//465 298//465 300//465
f 304//466 297//466 298//466
f 304//467 306//467 297//467
f 304//468 298//468 301//468
g CAT-PORT-DECK-01 | Deck | nominal plywood 20 mm
f 307//469 308//469 309//469
f 309//470 308//470 310//470
f 308//471 311//471 310//471
f 308//472 312//472 311//472
f 312//473 313//473 311//473
f 311//474 313//474 314//474
f 313//475 309//475 314//475
f 313//476 307//476 309//476
f 307//477 312//477 308//477
f 313//478 312//478 307//478
f 311//479 309//479 310//479
f 311//480 314//480 309//480
g CAT-PORT-DECK-02 | Deck | nominal plywood 20 mm
f 315//481 316//481 317//481
f 317//482 316//482 318//482
f 316//483 319//483 318//483
f 316//484 320//484 319//484
f 320//485 321//485 319//485
f 319//486 321//486 322//486
f 321//487 317//487 322//487
f 321//488 315//488 317//488
f 315//489 320//489 316//489
f 321//490 320//490 315//490
f 319//491 317//491 318//491
f 319//492 322//492 317//492
g CAT-PORT-DECK-03 | Deck | nominal plywood 20 mm
f 323//493 324//493 325//493
f 325//494 324//494 326//494
f 324//495 327//495 326//495
f 324//496 328//496 327//496
f 328//497 329//497 327//497
f 327//498 329//498 330//498
f 329//499 325//499 330//499
f 329//500 323//500 325//500
f 323//501 328//501 324//501
f 329//502 328//502 323//502
f 327//503 325//503 326//503
f 327//504 330//504 325//504
g CAT-PORT-DECK-04 | Deck | nominal plywood 20 mm
f 331//505 332//505 333//505
f 333//506 332//506 334//506
f 332//507 335//507 334//507
f 332//508 336//508 335//508
f 336//509 337//509 335//509
f 335//510 337//510 338//510
f 337//511 333//511 338//511
f 337//512 331//512 333//512
f 331//513 336//513 332//513
f 337//514 336//514 331//514
f 335//515 333//515 334//515
f 335//516 338//516 333//516
g CAT-PORT-DECK-05 | Deck | nominal plywood 20 mm
f 339//517 340//517 341//517
f 339//518 342//518 340//518
f 342//519 343//519 340//519
f 340//520 343//520 344//520
f 343//521 345//521 344//521
f 344//522 345//522 346//522
f 345//523 341//523 346//523
f 345//524 339//524 341//524
f 339//525 343//525 342//525
f 345//526 343//526 339//526
f 344//527 341//527 340//527
f 344//528 346//528 341//528
g CAT-PORT-DECK-06 | Deck | nominal plywood 20 mm
f 347//529 348//529 349//529
f 349//530 348//530 350//530
f 348//531 351//531 350//531
f 350//532 351//532 352//532
f 351//533 347//533 352//533
f 352//534 347//534 349//534
f 351//535 348//535 347//535
f 350//536 352//536 349//536
g CAT-STARBOARD-BOTTOM-01 | BottomFlat | nominal plywood 20 mm
f 353//537 354//537 355//537
f 355//538 354//538 356//538
f 354//539 357//539 356//539
f 356//540 357//540 358//540
f 357//541 359//541 358//541
f 358//542 359//542 360//542
f 359//543 353//543 360//543
f 360//544 353//544 355//544
f 353//545 357//545 354//545
f 359//546 357//546 353//546
f 358//547 355//547 356//547
f 358//548 360//548 355//548
g CAT-STARBOARD-CHINE-PORT-01 | ChinePort | nominal plywood 20 mm
f 361//549 362//549 363//549
f 361//550 363//550 364//550
f 365//551 361//551 364//551
f 365//552 364//552 366//552
f 367//553 365//553 366//553
f 367//554 366//554 368//554
f 362//555 367//555 368//555
f 362//556 368//556 363//556
f 365//557 362//557 361//557
f 367//558 362//558 365//558
f 363//559 366//559 364//559
f 363//560 368//560 366//560
g CAT-STARBOARD-CHINE-STARBOARD-01 | ChineStarboard | nominal plywood 20 mm
f 369//561 370//561 371//561
f 372//562 370//562 369//562
f 373//563 372//563 369//563
f 373//564 369//564 374//564
f 375//565 373//565 374//565
f 375//566 374//566 376//566
f 370//567 375//567 376//567
f 370//568 376//568 371//568
f 370//569 372//569 373//569
f 370//570 373//570 375//570
f 369//571 371//571 374//571
f 374//572 371//572 376//572
g CAT-STARBOARD-SIDE-PORT-01 | SidePort | nominal plywood 20 mm
f 377//573 378//573 379//573
f 377//574 379//574 380//574
f 381//575 377//575 380//575
f 382//576 377//576 381//576
f 383//577 382//577 381//577
f 383//578 381//578 384//578
f 379//579 383//579 384//579
f 378//580 383//580 379//580
f 377//581 382//581 383//581
f 377//582 383//582 378//582
f 381//583 380//583 384//583
f 384//584 380//584 379//584
g CAT-STARBOARD-SIDE-STARBOARD-01 | SideStarboard | nominal plywood 20 mm
f 385//585 386//585 387//585
f 388//586 386//586 385//586
f 389//587 388//587 385//587
f 389//588 385//588 390//588
f 391//589 389//589 390//589
f 392//590 389//590 391//590
f 386//591 392//591 391//591
f 386//592 391//592 387//592
f 389//593 386//593 388//593
f 389//594 392//594 386//594
f 387//595 390//595 385//595
f 391//596 390//596 387//596
g CAT-STARBOARD-BOTTOM-02 | BottomFlat | nominal plywood 20 mm
f 393//597 394//597 395//597
f 395//598 394//598 396//598
f 394//599 397//599 396//599
f 396//600 397//600 398//600
f 397//601 399//601 398//601
f 398//602 399//602 400//602
f 399//603 393//603 400//603
f 400//604 393//604 395//604
f 393//605 397//605 394//605
f 399//606 397//606 393//606
f 398//607 395//607 396//607
f 398//608 400//608 395//608
g CAT-STARBOARD-CHINE-PORT-02 | ChinePort | nominal plywood 20 mm
f 401//609 402//609 403//609
f 401//610 403//610 404//610
f 405//611 401//611 404//611
f 405//612 404//612 406//612
f 407//613 405//613 406//613
f 407//614 406//614 408//614
f 402//615 407//615 408//615
f 402//616 408//616 403//616
f 407//617 402//617 401//617
f 407//618 401//618 405//618
f 403//619 408//619 404//619
f 404//620 408//620 406//620
g CAT-STARBOARD-CHINE-STARBOARD-02 | ChineStarboard | nominal plywood 20 mm
f 409//621 410//621 411//621
f 412//622 410//622 409//622
f 413//623 412//623 409//623
f 413//624 409//624 414//624
f 415//625 413//625 414//625
f 415//626 414//626 416//626
f 410//627 415//627 416//627
f 410//628 416//628 411//628
f 410//629 412//629 413//629
f 410//630 413//630 415//630
f 409//631 411//631 414//631
f 414//632 411//632 416//632
g CAT-STARBOARD-SIDE-PORT-02 | SidePort | nominal plywood 20 mm
f 417//633 418//633 419//633
f 417//634 419//634 420//634
f 421//635 417//635 420//635
f 422//636 417//636 421//636
f 423//637 422//637 421//637
f 423//638 421//638 424//638
f 419//639 423//639 424//639
f 418//640 423//640 419//640
f 417//641 422//641 423//641
f 417//642 423//642 418//642
f 421//643 420//643 424//643
f 424//644 420//644 419//644
g CAT-STARBOARD-SIDE-STARBOARD-02 | SideStarboard | nominal plywood 20 mm
f 425//645 426//645 427//645
f 428//646 426//646 425//646
f 429//647 428//647 425//647
f 429//648 425//648 430//648
f 431//649 429//649 430//649
f 432//650 429//650 431//650
f 426//651 432//651 431//651
f 426//652 431//652 427//652
f 429//653 426//653 428//653
f 429//654 432//654 426//654
f 427//655 430//655 425//655
f 431//656 430//656 427//656
g CAT-STARBOARD-BOTTOM-03 | BottomFlat | nominal plywood 20 mm
f 433//657 434//657 435//657
f 435//658 434//658 436//658
f 434//659 437//659 436//659
f 436//660 437//660 438//660
f 437//661 439//661 438//661
f 438//662 439//662 440//662
f 439//663 433//663 440//663
f 440//664 433//664 435//664
f 433//665 437//665 434//665
f 439//666 437//666 433//666
f 438//667 435//667 436//667
f 438//668 440//668 435//668
g CAT-STARBOARD-CHINE-PORT-03 | ChinePort | nominal plywood 20 mm
f 441//669 442//669 443//669
f 441//670 443//670 444//670
f 445//671 441//671 444//671
f 445//672 444//672 446//672
f 447//673 445//673 446//673
f 447//674 446//674 448//674
f 442//675 447//675 448//675
f 442//676 448//676 443//676
f 447//677 442//677 441//677
f 447//678 441//678 445//678
f 443//679 448//679 444//679
f 444//680 448//680 446//680
g CAT-STARBOARD-CHINE-STARBOARD-03 | ChineStarboard | nominal plywood 20 mm
f 449//681 450//681 451//681
f 452//682 450//682 449//682
f 453//683 452//683 449//683
f 453//684 449//684 454//684
f 455//685 453//685 454//685
f 455//686 454//686 456//686
f 450//687 455//687 456//687
f 450//688 456//688 451//688
f 450//689 452//689 453//689
f 450//690 453//690 455//690
f 449//691 451//691 454//691
f 454//692 451//692 456//692
g CAT-STARBOARD-SIDE-PORT-03 | SidePort | nominal plywood 20 mm
f 457//693 458//693 459//693
f 457//694 459//694 460//694
f 461//695 457//695 460//695
f 462//696 457//696 461//696
f 463//697 462//697 461//697
f 463//698 461//698 464//698
f 459//699 463//699 464//699
f 458//700 463//700 459//700
f 457//701 462//701 463//701
f 457//702 463//702 458//702
f 461//703 460//703 464//703
f 464//704 460//704 459//704
g CAT-STARBOARD-SIDE-STARBOARD-03 | SideStarboard | nominal plywood 20 mm
f 465//705 466//705 467//705
f 468//706 466//706 465//706
f 469//707 468//707 465//707
f 469//708 465//708 470//708
f 471//709 469//709 470//709
f 472//710 469//710 471//710
f 466//711 472//711 471//711
f 466//712 471//712 467//712
f 469//713 466//713 468//713
f 469//714 472//714 466//714
f 467//715 470//715 465//715
f 471//716 470//716 467//716
g CAT-STARBOARD-BOTTOM-04 | BottomFlat | nominal plywood 20 mm
f 473//717 474//717 475//717
f 475//718 474//718 476//718
f 474//719 477//719 476//719
f 476//720 477//720 478//720
f 477//721 479//721 478//721
f 478//722 479//722 480//722
f 479//723 473//723 480//723
f 480//724 473//724 475//724
f 473//725 477//725 474//725
f 479//726 477//726 473//726
f 478//727 475//727 476//727
f 478//728 480//728 475//728
g CAT-STARBOARD-CHINE-PORT-04 | ChinePort | nominal plywood 20 mm
f 481//729 482//729 483//729
f 481//730 483//730 484//730
f 485//731 481//731 484//731
f 485//732 484//732 486//732
f 487//733 485//733 486//733
f 487//734 486//734 488//734
f 482//735 487//735 488//735
f 482//736 488//736 483//736
f 487//737 482//737 481//737
f 487//738 481//738 485//738
f 483//739 488//739 484//739
f 484//740 488//740 486//740
g CAT-STARBOARD-CHINE-STARBOARD-04 | ChineStarboard | nominal plywood 20 mm
f 489//741 490//741 491//741
f 492//742 490//742 489//742
f 493//743 492//743 489//743
f 493//744 489//744 494//744
f 495//745 493//745 494//745
f 495//746 494//746 496//746
f 490//747 495//747 496//747
f 490//748 496//748 491//748
f 490//749 492//749 493//749
f 490//750 493//750 495//750
f 489//751 491//751 494//751
f 494//752 491//752 496//752
g CAT-STARBOARD-SIDE-PORT-04 | SidePort | nominal plywood 20 mm
f 497//753 498//753 499//753
f 497//754 499//754 500//754
f 501//755 497//755 500//755
f 502//756 497//756 501//756
f 503//757 502//757 501//757
f 503//758 501//758 504//758
f 499//759 503//759 504//759
f 498//760 503//760 499//760
f 497//761 502//761 503//761
f 497//762 503//762 498//762
f 501//763 500//763 504//763
f 504//764 500//764 499//764
g CAT-STARBOARD-SIDE-STARBOARD-04 | SideStarboard | nominal plywood 20 mm
f 505//765 506//765 507//765
f 508//766 506//766 505//766
f 509//767 508//767 505//767
f 509//768 505//768 510//768
f 511//769 509//769 510//769
f 512//770 509//770 511//770
f 506//771 512//771 511//771
f 506//772 511//772 507//772
f 509//773 506//773 508//773
f 509//774 512//774 506//774
f 507//775 510//775 505//775
f 511//776 510//776 507//776
g CAT-STARBOARD-BOTTOM-05 | BottomFlat | nominal plywood 20 mm
f 513//777 514//777 515//777
f 515//778 514//778 516//778
f 514//779 517//779 516//779
f 516//780 517//780 518//780
f 517//781 519//781 518//781
f 517//782 520//782 519//782
f 520//783 513//783 519//783
f 519//784 513//784 515//784
f 513//785 517//785 514//785
f 520//786 517//786 513//786
f 518//787 515//787 516//787
f 518//788 519//788 515//788
g CAT-STARBOARD-CHINE-PORT-05 | ChinePort | nominal plywood 20 mm
f 521//789 522//789 523//789
f 521//790 523//790 524//790
f 525//791 521//791 524//791
f 525//792 524//792 526//792
f 527//793 525//793 526//793
f 528//794 525//794 527//794
f 522//795 528//795 527//795
f 522//796 527//796 523//796
f 522//797 521//797 525//797
f 528//798 522//798 525//798
f 524//799 523//799 526//799
f 523//800 527//800 526//800
g CAT-STARBOARD-CHINE-STARBOARD-05 | ChineStarboard | nominal plywood 20 mm
f 529//801 530//801 531//801
f 529//802 531//802 532//802
f 533//803 529//803 532//803
f 533//804 532//804 534//804
f 535//805 533//805 534//805
f 536//806 533//806 535//806
f 531//807 536//807 535//807
f 530//808 536//808 531//808
f 530//809 529//809 533//809
f 530//810 533//810 536//810
f 532//811 531//811 534//811
f 534//812 531//812 535//812
g CAT-STARBOARD-SIDE-PORT-05 | SidePort | nominal plywood 20 mm
f 537//813 538//813 539//813
f 537//814 539//814 540//814
f 541//815 537//815 540//815
f 542//816 537//816 541//816
f 543//817 542//817 541//817
f 543//818 541//818 544//818
f 539//819 543//819 544//819
f 538//820 543//820 539//820
f 538//821 537//821 542//821
f 538//822 542//822 543//822
f 540//823 539//823 541//823
f 541//824 539//824 544//824
g CAT-STARBOARD-SIDE-STARBOARD-05 | SideStarboard | nominal plywood 20 mm
f 545//825 546//825 547//825
f 548//826 546//826 545//826
f 549//827 548//827 545//827
f 549//828 545//828 550//828
f 551//829 549//829 550//829
f 552//830 549//830 551//830
f 547//831 552//831 551//831
f 546//832 552//832 547//832
f 552//833 546//833 548//833
f 552//834 548//834 549//834
f 547//835 551//835 545//835
f 545//836 551//836 550//836
g CAT-STARBOARD-BOTTOM-06 | BottomFlat | nominal plywood 20 mm
f 553//837 554//837 555//837
f 553//838 556//838 554//838
f 556//839 557//839 554//839
f 556//840 558//840 557//840
f 558//841 553//841 557//841
f 557//842 553//842 555//842
f 558//843 556//843 553//843
f 554//844 557//844 555//844
g CAT-STARBOARD-CHINE-PORT-06 | ChinePort | nominal plywood 20 mm
f 559//845 560//845 561//845
f 562//846 560//846 559//846
f 563//847 562//847 559//847
f 563//848 559//848 564//848
f 560//849 563//849 564//849
f 560//850 564//850 561//850
f 563//851 560//851 562//851
f 561//852 564//852 559//852
g CAT-STARBOARD-CHINE-STARBOARD-06 | ChineStarboard | nominal plywood 20 mm
f 565//853 566//853 567//853
f 565//854 567//854 568//854
f 569//855 565//855 568//855
f 570//856 565//856 569//856
f 566//857 570//857 569//857
f 566//858 569//858 567//858
f 566//859 565//859 570//859
f 568//860 567//860 569//860
g CAT-STARBOARD-SIDE-PORT-06 | SidePort | nominal plywood 20 mm
f 571//861 572//861 573//861
f 571//862 573//862 574//862
f 575//863 571//863 574//863
f 575//864 574//864 576//864
f 577//865 575//865 576//865
f 578//866 575//866 577//866
f 572//867 578//867 577//867
f 572//868 577//868 573//868
f 572//869 571//869 575//869
f 572//870 575//870 578//870
f 574//871 573//871 576//871
f 576//872 573//872 577//872
g CAT-STARBOARD-SIDE-STARBOARD-06 | SideStarboard | nominal plywood 20 mm
f 579//873 580//873 581//873
f 579//874 581//874 582//874
f 583//875 579//875 582//875
f 583//876 582//876 584//876
f 585//877 583//877 584//877
f 585//878 584//878 586//878
f 581//879 585//879 586//879
f 580//880 585//880 581//880
f 583//881 580//881 579//881
f 585//882 580//882 583//882
f 581//883 584//883 582//883
f 581//884 586//884 584//884
g CAT-STARBOARD-TRANSOM-01 | Transom | nominal plywood 20 mm
f 587//885 588//885 589//885
f 589//886 588//886 590//886
f 588//887 591//887 590//887
f 590//888 591//888 592//888
f 591//889 593//889 592//889
f 591//890 594//890 593//890
f 594//891 595//891 593//891
f 594//892 596//892 595//892
f 596//893 597//893 595//893
f 596//894 598//894 597//894
f 598//895 587//895 597//895
f 597//896 587//896 589//896
f 588//897 594//897 591//897
f 587//898 596//898 588//898
f 598//899 596//899 587//899
f 588//900 596//900 594//900
f 593//901 590//901 592//901
f 595//902 589//902 590//902
f 595//903 597//903 589//903
f 595//904 590//904 593//904
g CAT-STARBOARD-BULKHEAD-01 | Bulkhead | nominal plywood 20 mm
f 599//905 600//905 601//905
f 601//906 600//906 602//906
f 600//907 603//907 602//907
f 602//908 603//908 604//908
f 603//909 605//909 604//909
f 603//910 606//910 605//910
f 606//911 607//911 605//911
f 606//912 608//912 607//912
f 608//913 609//913 607//913
f 607//914 609//914 610//914
f 609//915 599//915 610//915
f 610//916 599//916 601//916
f 600//917 606//917 603//917
f 600//918 599//918 606//918
f 609//919 608//919 599//919
f 599//920 608//920 606//920
f 605//921 602//921 604//921
f 601//922 602//922 605//922
f 607//923 610//923 601//923
f 607//924 601//924 605//924
g CAT-STARBOARD-BULKHEAD-02 | Bulkhead | nominal plywood 20 mm
f 611//925 612//925 613//925
f 613//926 612//926 614//926
f 612//927 615//927 614//927
f 614//928 615//928 616//928
f 615//929 617//929 616//929
f 615//930 618//930 617//930
f 618//931 619//931 617//931
f 618//932 620//932 619//932
f 620//933 621//933 619//933
f 619//934 621//934 622//934
f 621//935 611//935 622//935
f 622//936 611//936 613//936
f 612//937 618//937 615//937
f 612//938 611//938 618//938
f 621//939 620//939 611//939
f 611//940 620//940 618//940
f 617//941 614//941 616//941
f 613//942 614//942 617//942
f 619//943 622//943 613//943
f 619//944 613//944 617//944
g CAT-STARBOARD-BULKHEAD-03 | Bulkhead | nominal plywood 20 mm
f 623//945 624//945 625//945
f 625//946 624//946 626//946
f 624//947 627//947 626//947
f 626//948 627//948 628//948
f 627//949 629//949 628//949
f 627//950 630//950 629//950
f 630//951 631//951 629//951
f 630//952 632//952 631//952
f 632//953 633//953 631//953
f 631//954 633//954 634//954
f 633//955 623//955 634//955
f 634//956 623//956 625//956
f 624//957 630//957 627//957
f 624//958 623//958 630//958
f 633//959 632//959 623//959
f 623//960 632//960 630//960
f 629//961 626//961 628//961
f 625//962 626//962 629//962
f 631//963 634//963 625//963
f 631//964 625//964 629//964
g CAT-STARBOARD-BULKHEAD-04 | Bulkhead | nominal plywood 20 mm
f 635//965 636//965 637//965
f 637//966 636//966 638//966
f 636//967 639//967 638//967
f 638//968 639//968 640//968
f 639//969 641//969 640//969
f 639//970 642//970 641//970
f 642//971 643//971 641//971
f 642//972 644//972 643//972
f 644//973 645//973 643//973
f 643//974 645//974 646//974
f 645//975 635//975 646//975
f 646//976 635//976 637//976
f 636//977 642//977 639//977
f 636//978 635//978 642//978
f 645//979 644//979 635//979
f 635//980 644//980 642//980
f 641//981 638//981 640//981
f 637//982 638//982 641//982
f 643//983 646//983 637//983
f 643//984 637//984 641//984
g CAT-STARBOARD-BULKHEAD-05 | Bulkhead | nominal plywood 20 mm
f 647//985 648//985 649//985
f 649//986 648//986 650//986
f 648//987 651//987 650//987
f 650//988 651//988 652//988
f 651//989 653//989 652//989
f 651//990 654//990 653//990
f 654//991 655//991 653//991
f 653//992 655//992 656//992
f 655//993 657//993 656//993
f 656//994 657//994 658//994
f 657//995 647//995 658//995
f 658//996 647//996 649//996
f 648//997 654//997 651//997
f 647//998 655//998 648//998
f 657//999 655//999 647//999
f 648//1000 655//1000 654//1000
f 653//1001 650//1001 652//1001
f 656//1002 649//1002 650//1002
f 656//1003 658//1003 649//1003
f 656//1004 650//1004 653//1004
g CAT-STARBOARD-DECK-01 | Deck | nominal plywood 20 mm
f 659//1005 660//1005 661//1005
f 661//1006 660//1006 662//1006
f 660//1007 663//1007 662//1007
f 660//1008 664//1008 663//1008
f 664//1009 665//1009 663//1009
f 663//1010 665//1010 666//1010
f 665//1011 661//1011 666//1011
f 665//1012 659//1012 661//1012
f 659//1013 664//1013 660//1013
f 665//1014 664//1014 659//1014
f 663//1015 661//1015 662//1015
f 663//1016 666//1016 661//1016
g CAT-STARBOARD-DECK-02 | Deck | nominal plywood 20 mm
f 667//1017 668//1017 669//1017
f 669//1018 668//1018 670//1018
f 668//1019 671//1019 670//1019
f 668//1020 672//1020 671//1020
f 672//1021 673//1021 671//1021
f 671//1022 673//1022 674//1022
f 673//1023 669//1023 674//1023
f 673//1024 667//1024 669//1024
f 667//1025 672//1025 668//1025
f 673//1026 672//1026 667//1026
f 671//1027 669//1027 670//1027
f 671//1028 674//1028 669//1028
g CAT-STARBOARD-DECK-03 | Deck | nominal plywood 20 mm
f 675//1029 676//1029 677//1029
f 677//1030 676//1030 678//1030
f 676//1031 679//1031 678//1031
f 676//1032 680//1032 679//1032
f 680//1033 681//1033 679//1033
f 679//1034 681//1034 682//1034
f 681//1035 677//1035 682//1035
f 681//1036 675//1036 677//1036
f 675//1037 680//1037 676//1037
f 681//1038 680//1038 675//1038
f 679//1039 677//1039 678//1039
f 679//1040 682//1040 677//1040
g CAT-STARBOARD-DECK-04 | Deck | nominal plywood 20 mm
f 683//1041 684//1041 685//1041
f 685//1042 684//1042 686//1042
f 684//1043 687//1043 686//1043
f 684//1044 688//1044 687//1044
f 688//1045 689//1045 687//1045
f 687//1046 689//1046 690//1046
f 689//1047 685//1047 690//1047
f 689//1048 683//1048 685//1048
f 683//1049 688//1049 684//1049
f 689//1050 688//1050 683//1050
f 687//1051 685//1051 686//1051
f 687//1052 690//1052 685//1052
g CAT-STARBOARD-DECK-05 | Deck | nominal plywood 20 mm
f 691//1053 692//1053 693//1053
f 693//1054 692//1054 694//1054
f 692//1055 695//1055 694//1055
f 694//1056 695//1056 696//1056
f 695//1057 697//1057 696//1057
f 695//1058 698//1058 697//1058
f 698//1059 693//1059 697//1059
f 698//1060 691//1060 693//1060
f 691//1061 695//1061 692//1061
f 698//1062 695//1062 691//1062
f 696//1063 693//1063 694//1063
f 696//1064 697//1064 693//1064
g CAT-STARBOARD-DECK-06 | Deck | nominal plywood 20 mm
f 699//1065 700//1065 701//1065
f 701//1066 700//1066 702//1066
f 700//1067 703//1067 702//1067
f 702//1068 703//1068 704//1068
f 703//1069 699//1069 704//1069
f 704//1070 699//1070 701//1070
f 703//1071 700//1071 699//1071
f 702//1072 704//1072 701//1072
g CATAMARAN-CONNECTOR-CENTER-01 | Connector | nominal plywood 20 mm
f 705//1073 706//1073 707//1073
f 707//1074 706//1074 708//1074
f 706//1075 709//1075 708//1075
f 708//1076 709//1076 710//1076
f 709//1077 711//1077 710//1077
f 710//1078 711//1078 712//1078
f 711//1079 705//1079 712//1079
f 712//1080 705//1080 707//1080
f 705//1081 709//1081 706//1081
f 711//1082 709//1082 705//1082
f 710//1083 707//1083 708//1083
f 710//1084 712//1084 707//1084
g CATAMARAN-CONNECTOR-CENTER-02 | Connector | nominal plywood 20 mm
f 713//1085 714//1085 715//1085
f 715//1086 714//1086 716//1086
f 714//1087 717//1087 716//1087
f 716//1088 717//1088 718//1088
f 717//1089 719//1089 718//1089
f 718//1090 719//1090 720//1090
f 719//1091 713//1091 720//1091
f 720//1092 713//1092 715//1092
f 713//1093 717//1093 714//1093
f 719//1094 717//1094 713//1094
f 718//1095 715//1095 716//1095
f 718//1096 720//1096 715//1096
g CATAMARAN-CONNECTOR-CENTER-03 | Connector | nominal plywood 20 mm
f 721//1097 722//1097 723//1097
f 723//1098 722//1098 724//1098
f 722//1099 725//1099 724//1099
f 724//1100 725//1100 726//1100
f 725//1101 727//1101 726//1101
f 726//1102 727//1102 728//1102
f 727//1103 721//1103 728//1103
f 728//1104 721//1104 723//1104
f 721//1105 725//1105 722//1105
f 727//1106 725//1106 721//1106
f 726//1107 723//1107 724//1107
f 726//1108 728//1108 723//1108
g CATAMARAN-CONNECTOR-CENTER-04 | Connector | nominal plywood 20 mm
f 729//1109 730//1109 731//1109
f 731//1110 730//1110 732//1110
f 730//1111 733//1111 732//1111
f 732//1112 733//1112 734//1112
f 733//1113 735//1113 734//1113
f 734//1114 735//1114 736//1114
f 735//1115 729//1115 736//1115
f 736//1116 729//1116 731//1116
f 729//1117 733//1117 730//1117
f 735//1118 733//1118 729//1118
f 734//1119 731//1119 732//1119
f 734//1120 736//1120 731//1120
