0
SECTION
2
HEADER
9
$ACADVER
1
AC1015
9
$INSUNITS
70
4
9
$MEASUREMENT
70
1
0
ENDSEC
0
SECTION
2
ENTITIES
0
TEXT
8
INFO
10
20
20
590
40
6
1
Catamaran | SHEET 3 | 1000 x 600 mm | SCALE 1:1
50
0
0
TEXT
8
TOOLPATH
10
20
20
583
40
4
1
TOOLPATH: CAM OUTSIDE OFFSET +0.10 mm | DO NOT CUT BOTH
50
0
0
TEXT
8
TOOLPATH
10
20
20
577
40
3.5
1
CUT layer is nominal finished plywood profile; no toolpath geometry emitted
50
0
0
TEXT
8
INFO
10
20
20
571
40
3.5
1
HOLES: nominal CUT; apply inner compensation in CAM if required
50
0
0
LWPOLYLINE
8
CUT
90
6
70
1
43
0.0
10
75
20
45
10
225
20
45
10
280
20
59.737206
10
280
20
165
10
20
20
165
10
20
20
59.737206
0
TEXT
8
INFO
10
22
20
105
40
4
1
CAT-STARBOARD-BULKHEAD-04 | 260.0x120.0 mm | R0
50
0
0
TEXT
8
INFO
10
22
20
47
40
2.5
1
BEVEL CAT-STARBOARD-BULKHEAD-04: edge 0: Section bulkhead mating perimeter; bevel as required for shell angle
50
0
0
LWPOLYLINE
8
CUT
90
4
70
1
43
0.0
10
293.32284
20
45
10
491.333701
20
45
10
480.914026
20
184.611713
10
284
20
169.915381
0
TEXT
8
INFO
10
286
20
114.8058565
40
4
1
CAT-STARBOARD-SIDE-PORT-06 | 207.3x139.6 mm | R0
50
0
0
TEXT
8
INFO
10
286
20
47
40
2.5
1
BEVEL CAT-STARBOARD-SIDE-PORT-06: edge 0: Bottom chine mating edge; bevel-machine after nominal cut
50
0
0
LWPOLYLINE
8
CUT
90
4
70
1
43
0.0
10
510.900065
20
45
10
683.448417
20
45
10
657.763917
20
192.784662
10
495.333701
20
134.566462
0
TEXT
8
INFO
10
497.333701
20
118.892331
40
4
1
CAT-PORT-BOTTOM-05 | 188.1x147.8 mm | R0
50
0
0
TEXT
8
INFO
10
497.333701
20
47
40
2.5
1
BEVEL CAT-PORT-BOTTOM-05: edge 0: Longitudinal chine mating edges; bevel-machine to 15 deg after laser cut | edge 2: Longitudinal chine mating edges; bevel-machine to 15 deg after laser cut
50
0
0
LWPOLYLINE
8
CUT
90
4
70
1
43
0.0
10
703.014781
20
45
10
875.563133
20
45
10
849.878633
20
192.784662
10
687.448417
20
134.566462
0
TEXT
8
INFO
10
689.448417
20
118.892331
40
4
1
CAT-STARBOARD-BOTTOM-05 | 188.1x147.8 mm | R0
50
0
0
TEXT
8
INFO
10
689.448417
20
47
40
2.5
1
BEVEL CAT-STARBOARD-BOTTOM-05: edge 0: Longitudinal chine mating edges; bevel-machine to 15 deg after laser cut | edge 2: Longitudinal chine mating edges; bevel-machine to 15 deg after laser cut
50
0
0
LWPOLYLINE
8
CUT
90
4
70
1
43
0.0
10
34.737206
20
169
10
160
20
169
10
160
20
366.461682
10
20
20
366.461682
0
TEXT
8
INFO
10
22
20
267.730841
40
4
1
CAT-PORT-SIDE-STARBOARD-06 | 140.0x197.5 mm | R0
50
0
0
TEXT
8
INFO
10
22
20
171
40
2.5
1
BEVEL CAT-PORT-SIDE-STARBOARD-06: edge 0: Bottom chine mating edge; bevel-machine after nominal cut
50
0
0
LWPOLYLINE
8
CUT
90
4
70
1
43
0.0
10
178.737206
20
188.611713
10
304
20
188.611713
10
304
20
386.073395
10
164
20
386.073395
0
TEXT
8
INFO
10
166
20
287.342554
40
4
1
CAT-STARBOARD-SIDE-STARBOARD-06 | 140.0x197.5 mm | R0
50
0
0
TEXT
8
INFO
10
166
20
190.611713
40
2.5
1
BEVEL CAT-STARBOARD-SIDE-STARBOARD-06: edge 0: Bottom chine mating edge; bevel-machine after nominal cut
50
0
0
LWPOLYLINE
8
CUT
90
4
70
1
43
0.0
10
308
20
188.611713
10
478
20
188.611713
10
478
20
338.611713
10
308
20
338.611713
0
TEXT
8
INFO
10
310
20
263.611713
40
4
1
CAT-PORT-BOTTOM-02 | 170.0x150.0 mm | R0
50
0
0
TEXT
8
INFO
10
310
20
190.611713
40
2.5
1
BEVEL CAT-PORT-BOTTOM-02: edge 0: Longitudinal chine mating edges; bevel-machine to 15 deg after laser cut | edge 2: Longitudinal chine mating edges; bevel-machine to 15 deg after laser cut
50
0
0
LWPOLYLINE
8
CUT
90
4
70
1
43
0.0
10
482
20
196.784662
10
652
20
196.784662
10
652
20
346.784662
10
482
20
346.784662
0
TEXT
8
INFO
10
484
20
271.784662
40
4
1
CAT-PORT-BOTTOM-03 | 170.0x150.0 mm | R0
50
0
0
TEXT
8
INFO
10
484
20
198.784662
40
2.5
1
BEVEL CAT-PORT-BOTTOM-03: edge 0: Longitudinal chine mating edges; bevel-machine to 15 deg after laser cut | edge 2: Longitudinal chine mating edges; bevel-machine to 15 deg after laser cut
50
0
0
LWPOLYLINE
8
CUT
90
4
70
1
43
0.0
10
656
20
196.784662
10
826
20
196.784662
10
826
20
346.784662
10
656
20
346.784662
0
TEXT
8
INFO
10
658
20
271.784662
40
4
1
CAT-PORT-BOTTOM-04 | 170.0x150.0 mm | R0
50
0
0
TEXT
8
INFO
10
658
20
198.784662
40
2.5
1
BEVEL CAT-PORT-BOTTOM-04: edge 0: Longitudinal chine mating edges; bevel-machine to 15 deg after laser cut | edge 2: Longitudinal chine mating edges; bevel-machine to 15 deg after laser cut
50
0
0
LWPOLYLINE
8
CUT
90
4
70
1
43
0.0
10
830
20
366.784662
10
830
20
196.784662
10
980
20
196.784662
10
980
20
366.784662
0
TEXT
8
INFO
10
832
20
281.784662
40
4
1
CAT-STARBOARD-BOTTOM-02 | 150.0x170.0 mm | R90
50
0
0
TEXT
8
INFO
10
832
20
198.784662
40
2.5
1
BEVEL CAT-STARBOARD-BOTTOM-02: edge 0: Longitudinal chine mating edges; bevel-machine to 15 deg after laser cut | edge 2: Longitudinal chine mating edges; bevel-machine to 15 deg after laser cut
50
0
0
LWPOLYLINE
8
CUT
90
4
70
1
43
0.0
10
308
20
342.611713
10
478
20
342.611713
10
478
20
492.611713
10
308
20
492.611713
0
TEXT
8
INFO
10
310
20
417.611713
40
4
1
CAT-STARBOARD-BOTTOM-03 | 170.0x150.0 mm | R0
50
0
0
TEXT
8
INFO
10
310
20
344.611713
40
2.5
1
BEVEL CAT-STARBOARD-BOTTOM-03: edge 0: Longitudinal chine mating edges; bevel-machine to 15 deg after laser cut | edge 2: Longitudinal chine mating edges; bevel-machine to 15 deg after laser cut
50
0
0
LWPOLYLINE
8
CUT
90
4
70
1
43
0.0
10
482
20
350.784662
10
652
20
350.784662
10
652
20
500.784662
10
482
20
500.784662
0
TEXT
8
INFO
10
484
20
425.784662
40
4
1
CAT-STARBOARD-BOTTOM-04 | 170.0x150.0 mm | R0
50
0
0
TEXT
8
INFO
10
484
20
352.784662
40
2.5
1
BEVEL CAT-STARBOARD-BOTTOM-04: edge 0: Longitudinal chine mating edges; bevel-machine to 15 deg after laser cut | edge 2: Longitudinal chine mating edges; bevel-machine to 15 deg after laser cut
50
0
0
LWPOLYLINE
8
CUT
90
6
70
1
43
0.0
10
711
20
370.784662
10
801.909091
20
370.784662
10
856.909091
20
385.521868
10
856.909091
20
490.784662
10
656
20
490.784662
10
656
20
385.521868
0
TEXT
8
INFO
10
658
20
430.784662
40
4
1
CAT-PORT-BULKHEAD-05 | 200.9x120.0 mm | R0
50
0
0
TEXT
8
INFO
10
658
20
372.784662
40
2.5
1
BEVEL CAT-PORT-BULKHEAD-05: edge 0: Section bulkhead mating perimeter; bevel as required for shell angle
50
0
0
LWPOLYLINE
8
CUT
90
6
70
1
43
0.0
10
75
20
390.073395
10
165.909091
20
390.073395
10
220.909091
20
404.810601
10
220.909091
20
510.073395
10
20
20
510.073395
10
20
20
404.810601
0
TEXT
8
INFO
10
22
20
450.073395
40
4
1
CAT-STARBOARD-BULKHEAD-05 | 200.9x120.0 mm | R0
50
0
0
TEXT
8
INFO
10
22
20
392.073395
40
2.5
1
BEVEL CAT-STARBOARD-BULKHEAD-05: edge 0: Section bulkhead mating perimeter; bevel as required for shell angle
50
0
0
LWPOLYLINE
8
CUT
90
3
70
1
43
0.0
10
860.909091
20
546.756579
10
860.909091
20
370.784662
10
948.733022
20
394.266996
0
TEXT
8
INFO
10
862.909091
20
458.7706205
40
4
1
CAT-PORT-BOTTOM-06 | 87.8x176.0 mm | R90
50
0
0
TEXT
8
INFO
10
862.909091
20
372.784662
40
2.5
1
BEVEL CAT-PORT-BOTTOM-06: edge 0: Longitudinal chine mating edges; bevel-machine to 15 deg after laser cut | edge 2: Longitudinal chine mating edges; bevel-machine to 15 deg after laser cut
50
0
0
LWPOLYLINE
8
CUT
90
4
70
1
43
0.0
10
224.909091
20
390.073395
10
274.909091
20
390.073395
10
274.909091
20
540.073395
10
224.909091
20
540.073395
0
TEXT
8
INFO
10
226.909091
20
465.073395
40
4
1
CAT-PORT-BOTTOM-01 | 50.0x150.0 mm | R0
50
0
0
TEXT
8
INFO
10
226.909091
20
392.073395
40
2.5
1
BEVEL CAT-PORT-BOTTOM-01: edge 0: Longitudinal chine mating edges; bevel-machine to 15 deg after laser cut | edge 2: Longitudinal chine mating edges; bevel-machine to 15 deg after laser cut
50
0
0
LWPOLYLINE
8
CUT
90
4
70
1
43
0.0
10
656
20
544.784662
10
656
20
494.784662
10
806
20
494.784662
10
806
20
544.784662
0
TEXT
8
INFO
10
658
20
519.784662
40
4
1
CAT-STARBOARD-BOTTOM-01 | 150.0x50.0 mm | R90
50
0
0
TEXT
8
INFO
10
658
20
496.784662
40
2.5
1
BEVEL CAT-STARBOARD-BOTTOM-01: edge 0: Longitudinal chine mating edges; bevel-machine to 15 deg after laser cut | edge 2: Longitudinal chine mating edges; bevel-machine to 15 deg after laser cut
50
0
0
LWPOLYLINE
8
CUT
90
4
70
1
43
0.0
10
879.563133
20
45
10
929.563133
20
45
10
929.563133
20
170.262794
10
879.563133
20
170.262794
0
TEXT
8
INFO
10
881.563133
20
107.631397
40
4
1
CAT-PORT-SIDE-PORT-01 | 50.0x125.3 mm | R0
50
0
0
TEXT
8
INFO
10
881.563133
20
47
40
2.5
1
BEVEL CAT-PORT-SIDE-PORT-01: edge 0: Bottom chine mating edge; bevel-machine after nominal cut
50
0
0
LWPOLYLINE
8
CUT
90
4
70
1
43
0.0
10
278.909091
20
496.611713
10
404.171885
20
496.611713
10
404.171885
20
546.611713
10
278.909091
20
546.611713
0
TEXT
8
INFO
10
280.909091
20
521.611713
40
4
1
CAT-PORT-SIDE-STARBOARD-01 | 125.3x50.0 mm | R0
50
0
0
TEXT
8
INFO
10
280.909091
20
498.611713
40
2.5
1
BEVEL CAT-PORT-SIDE-STARBOARD-01: edge 0: Bottom chine mating edge; bevel-machine after nominal cut
50
0
0
LWPOLYLINE
8
CUT
90
4
70
1
43
0.0
10
408.171885
20
546.611713
10
408.171885
20
496.611713
10
465.112075
20
496.611713
10
465.112075
20
546.611713
0
TEXT
8
INFO
10
410.171885
20
521.611713
40
4
1
CAT-STARBOARD-CHINE-PORT-01 | 56.9x50.0 mm | R90
50
0
0
TEXT
8
INFO
10
410.171885
20
498.611713
40
2.5
1
BEVEL CAT-STARBOARD-CHINE-PORT-01: edge 0: Mates flat bottom and vertical side; post-laser bevel to 15 deg | edge 2: Mates flat bottom and vertical side; post-laser bevel to 15 deg
50
0
0
TEXT
8
INFO
10
20
20
8
40
3.5
1
20 mm plywood, profiles before fiberglass/resin/putty; bevel sanding required
50
0
0
TEXT
8
INFO
10
20
20
14
40
3.5
1
Geometry study only; flotation and performance are not validated
50
0
0
ENDSEC
0
EOF
