0
SECTION
2
HEADER
9
$ACADVER
1
AC1015
9
$INSUNITS
70
4
9
$MEASUREMENT
70
1
0
ENDSEC
0
SECTION
2
ENTITIES
0
TEXT
8
INFO
10
20
20
590
40
6
1
Catamaran | SHEET 5 | 1000 x 600 mm | SCALE 1:1
50
0
0
TEXT
8
TOOLPATH
10
20
20
583
40
4
1
TOOLPATH: CAM OUTSIDE OFFSET +0.10 mm | DO NOT CUT BOTH
50
0
0
TEXT
8
TOOLPATH
10
20
20
577
40
3.5
1
CUT layer is nominal finished plywood profile; no toolpath geometry emitted
50
0
0
TEXT
8
INFO
10
20
20
571
40
3.5
1
HOLES: nominal CUT; apply inner compensation in CAM if required
50
0
0
LWPOLYLINE
8
CUT
90
4
70
1
43
0.0
10
20
20
45
10
190
20
45
10
190
20
101.94019
10
20
20
101.94019
0
TEXT
8
INFO
10
22
20
73.470095
40
4
1
CAT-PORT-CHINE-PORT-04 | 170.0x56.9 mm | R0
50
0
0
TEXT
8
INFO
10
22
20
47
40
2.5
1
BEVEL CAT-PORT-CHINE-PORT-04: edge 0: Mates flat bottom and vertical side; post-laser bevel to 15 deg | edge 2: Mates flat bottom and vertical side; post-laser bevel to 15 deg
50
0
0
LWPOLYLINE
8
CUT
90
4
70
1
43
0.0
10
194
20
45
10
250.94019
20
45
10
250.94019
20
215
10
194
20
215
0
TEXT
8
INFO
10
196
20
130
40
4
1
CAT-PORT-CHINE-STARBOARD-02 | 56.9x170.0 mm | R0
50
0
0
TEXT
8
INFO
10
196
20
47
40
2.5
1
BEVEL CAT-PORT-CHINE-STARBOARD-02: edge 0: Mates flat bottom and vertical side; post-laser bevel to 15 deg | edge 2: Mates flat bottom and vertical side; post-laser bevel to 15 deg
50
0
0
LWPOLYLINE
8
CUT
90
4
70
1
43
0.0
10
254.94019
20
45
10
311.88038
20
45
10
311.88038
20
215
10
254.94019
20
215
0
TEXT
8
INFO
10
256.94019
20
130
40
4
1
CAT-PORT-CHINE-STARBOARD-03 | 56.9x170.0 mm | R0
50
0
0
TEXT
8
INFO
10
256.94019
20
47
40
2.5
1
BEVEL CAT-PORT-CHINE-STARBOARD-03: edge 0: Mates flat bottom and vertical side; post-laser bevel to 15 deg | edge 2: Mates flat bottom and vertical side; post-laser bevel to 15 deg
50
0
0
LWPOLYLINE
8
CUT
90
4
70
1
43
0.0
10
315.88038
20
45
10
372.82057
20
45
10
372.82057
20
215
10
315.88038
20
215
0
TEXT
8
INFO
10
317.88038
20
130
40
4
1
CAT-PORT-CHINE-STARBOARD-04 | 56.9x170.0 mm | R0
50
0
0
TEXT
8
INFO
10
317.88038
20
47
40
2.5
1
BEVEL CAT-PORT-CHINE-STARBOARD-04: edge 0: Mates flat bottom and vertical side; post-laser bevel to 15 deg | edge 2: Mates flat bottom and vertical side; post-laser bevel to 15 deg
50
0
0
LWPOLYLINE
8
CUT
90
4
70
1
43
0.0
10
376.82057
20
45
10
546.82057
20
45
10
546.82057
20
101.94019
10
376.82057
20
101.94019
0
TEXT
8
INFO
10
378.82057
20
73.470095
40
4
1
CAT-STARBOARD-CHINE-PORT-02 | 170.0x56.9 mm | R0
50
0
0
TEXT
8
INFO
10
378.82057
20
47
40
2.5
1
BEVEL CAT-STARBOARD-CHINE-PORT-02: edge 0: Mates flat bottom and vertical side; post-laser bevel to 15 deg | edge 2: Mates flat bottom and vertical side; post-laser bevel to 15 deg
50
0
0
LWPOLYLINE
8
CUT
90
4
70
1
43
0.0
10
550.82057
20
45
10
720.82057
20
45
10
720.82057
20
101.94019
10
550.82057
20
101.94019
0
TEXT
8
INFO
10
552.82057
20
73.470095
40
4
1
CAT-STARBOARD-CHINE-PORT-03 | 170.0x56.9 mm | R0
50
0
0
TEXT
8
INFO
10
552.82057
20
47
40
2.5
1
BEVEL CAT-STARBOARD-CHINE-PORT-03: edge 0: Mates flat bottom and vertical side; post-laser bevel to 15 deg | edge 2: Mates flat bottom and vertical side; post-laser bevel to 15 deg
50
0
0
LWPOLYLINE
8
CUT
90
4
70
1
43
0.0
10
724.82057
20
45
10
894.82057
20
45
10
894.82057
20
101.94019
10
724.82057
20
101.94019
0
TEXT
8
INFO
10
726.82057
20
73.470095
40
4
1
CAT-STARBOARD-CHINE-PORT-04 | 170.0x56.9 mm | R0
50
0
0
TEXT
8
INFO
10
726.82057
20
47
40
2.5
1
BEVEL CAT-STARBOARD-CHINE-PORT-04: edge 0: Mates flat bottom and vertical side; post-laser bevel to 15 deg | edge 2: Mates flat bottom and vertical side; post-laser bevel to 15 deg
50
0
0
LWPOLYLINE
8
CUT
90
4
70
1
43
0.0
10
898.82057
20
45
10
955.76076
20
45
10
955.76076
20
215
10
898.82057
20
215
0
TEXT
8
INFO
10
900.82057
20
130
40
4
1
CAT-STARBOARD-CHINE-STARBOARD-02 | 56.9x170.0 mm | R0
50
0
0
TEXT
8
INFO
10
900.82057
20
47
40
2.5
1
BEVEL CAT-STARBOARD-CHINE-STARBOARD-02: edge 0: Mates flat bottom and vertical side; post-laser bevel to 15 deg | edge 2: Mates flat bottom and vertical side; post-laser bevel to 15 deg
50
0
0
LWPOLYLINE
8
CUT
90
4
70
1
43
0.0
10
20
20
105.94019
10
76.94019
20
105.94019
10
76.94019
20
275.94019
10
20
20
275.94019
0
TEXT
8
INFO
10
22
20
190.94019
40
4
1
CAT-STARBOARD-CHINE-STARBOARD-03 | 56.9x170.0 mm | R0
50
0
0
TEXT
8
INFO
10
22
20
107.94019
40
2.5
1
BEVEL CAT-STARBOARD-CHINE-STARBOARD-03: edge 0: Mates flat bottom and vertical side; post-laser bevel to 15 deg | edge 2: Mates flat bottom and vertical side; post-laser bevel to 15 deg
50
0
0
LWPOLYLINE
8
CUT
90
4
70
1
43
0.0
10
80.94019
20
105.94019
10
137.88038
20
105.94019
10
137.88038
20
275.94019
10
80.94019
20
275.94019
0
TEXT
8
INFO
10
82.94019
20
190.94019
40
4
1
CAT-STARBOARD-CHINE-STARBOARD-04 | 56.9x170.0 mm | R0
50
0
0
TEXT
8
INFO
10
82.94019
20
107.94019
40
2.5
1
BEVEL CAT-STARBOARD-CHINE-STARBOARD-04: edge 0: Mates flat bottom and vertical side; post-laser bevel to 15 deg | edge 2: Mates flat bottom and vertical side; post-laser bevel to 15 deg
50
0
0
TEXT
8
INFO
10
20
20
8
40
3.5
1
20 mm plywood, profiles before fiberglass/resin/putty; bevel sanding required
50
0
0
TEXT
8
INFO
10
20
20
14
40
3.5
1
Geometry study only; flotation and performance are not validated
50
0
0
ENDSEC
0
EOF
