0
SECTION
2
HEADER
9
$ACADVER
1
AC1015
9
$INSUNITS
70
4
9
$MEASUREMENT
70
1
0
ENDSEC
0
SECTION
2
ENTITIES
0
TEXT
8
INFO
10
20
20
590
40
6
1
Catamaran | SHEET 4 | 1000 x 600 mm | SCALE 1:1
50
0
0
TEXT
8
TOOLPATH
10
20
20
583
40
4
1
TOOLPATH: CAM OUTSIDE OFFSET +0.10 mm | DO NOT CUT BOTH
50
0
0
TEXT
8
TOOLPATH
10
20
20
577
40
3.5
1
CUT layer is nominal finished plywood profile; no toolpath geometry emitted
50
0
0
TEXT
8
INFO
10
20
20
571
40
3.5
1
HOLES: nominal CUT; apply inner compensation in CAM if required
50
0
0
LWPOLYLINE
8
CUT
90
4
70
1
43
0.0
10
20
20
45
10
192.548352
20
45
10
192.548352
20
170.262794
10
20
20
170.262794
0
TEXT
8
INFO
10
22
20
107.631397
40
4
1
CAT-PORT-SIDE-PORT-05 | 172.5x125.3 mm | R0
50
0
0
TEXT
8
INFO
10
22
20
47
40
2.5
1
BEVEL CAT-PORT-SIDE-PORT-05: edge 0: Bottom chine mating edge; bevel-machine after nominal cut
50
0
0
LWPOLYLINE
8
CUT
90
4
70
1
43
0.0
10
196.548352
20
45
10
321.811146
20
45
10
321.811146
20
217.548352
10
196.548352
20
217.548352
0
TEXT
8
INFO
10
198.548352
20
131.274176
40
4
1
CAT-PORT-SIDE-STARBOARD-05 | 125.3x172.5 mm | R0
50
0
0
TEXT
8
INFO
10
198.548352
20
47
40
2.5
1
BEVEL CAT-PORT-SIDE-STARBOARD-05: edge 0: Bottom chine mating edge; bevel-machine after nominal cut
50
0
0
LWPOLYLINE
8
CUT
90
4
70
1
43
0.0
10
325.811146
20
45
10
498.359498
20
45
10
498.359498
20
170.262794
10
325.811146
20
170.262794
0
TEXT
8
INFO
10
327.811146
20
107.631397
40
4
1
CAT-STARBOARD-SIDE-PORT-05 | 172.5x125.3 mm | R0
50
0
0
TEXT
8
INFO
10
327.811146
20
47
40
2.5
1
BEVEL CAT-STARBOARD-SIDE-PORT-05: edge 0: Bottom chine mating edge; bevel-machine after nominal cut
50
0
0
LWPOLYLINE
8
CUT
90
4
70
1
43
0.0
10
502.359498
20
45
10
627.622292
20
45
10
627.622292
20
217.548352
10
502.359498
20
217.548352
0
TEXT
8
INFO
10
504.359498
20
131.274176
40
4
1
CAT-STARBOARD-SIDE-STARBOARD-05 | 125.3x172.5 mm | R0
50
0
0
TEXT
8
INFO
10
504.359498
20
47
40
2.5
1
BEVEL CAT-STARBOARD-SIDE-STARBOARD-05: edge 0: Bottom chine mating edge; bevel-machine after nominal cut
50
0
0
LWPOLYLINE
8
CUT
90
4
70
1
43
0.0
10
631.622292
20
45
10
801.622292
20
45
10
801.622292
20
170.262794
10
631.622292
20
170.262794
0
TEXT
8
INFO
10
633.622292
20
107.631397
40
4
1
CAT-PORT-SIDE-PORT-02 | 170.0x125.3 mm | R0
50
0
0
TEXT
8
INFO
10
633.622292
20
47
40
2.5
1
BEVEL CAT-PORT-SIDE-PORT-02: edge 0: Bottom chine mating edge; bevel-machine after nominal cut
50
0
0
LWPOLYLINE
8
CUT
90
4
70
1
43
0.0
10
805.622292
20
45
10
975.622292
20
45
10
975.622292
20
170.262794
10
805.622292
20
170.262794
0
TEXT
8
INFO
10
807.622292
20
107.631397
40
4
1
CAT-PORT-SIDE-PORT-03 | 170.0x125.3 mm | R0
50
0
0
TEXT
8
INFO
10
807.622292
20
47
40
2.5
1
BEVEL CAT-PORT-SIDE-PORT-03: edge 0: Bottom chine mating edge; bevel-machine after nominal cut
50
0
0
LWPOLYLINE
8
CUT
90
4
70
1
43
0.0
10
20
20
174.262794
10
190
20
174.262794
10
190
20
299.525588
10
20
20
299.525588
0
TEXT
8
INFO
10
22
20
236.894191
40
4
1
CAT-PORT-SIDE-PORT-04 | 170.0x125.3 mm | R0
50
0
0
TEXT
8
INFO
10
22
20
176.262794
40
2.5
1
BEVEL CAT-PORT-SIDE-PORT-04: edge 0: Bottom chine mating edge; bevel-machine after nominal cut
50
0
0
LWPOLYLINE
8
CUT
90
4
70
1
43
0.0
10
325.811146
20
174.262794
10
451.07394
20
174.262794
10
451.07394
20
344.262794
10
325.811146
20
344.262794
0
TEXT
8
INFO
10
327.811146
20
259.262794
40
4
1
CAT-PORT-SIDE-STARBOARD-02 | 125.3x170.0 mm | R0
50
0
0
TEXT
8
INFO
10
327.811146
20
176.262794
40
2.5
1
BEVEL CAT-PORT-SIDE-STARBOARD-02: edge 0: Bottom chine mating edge; bevel-machine after nominal cut
50
0
0
LWPOLYLINE
8
CUT
90
4
70
1
43
0.0
10
631.622292
20
174.262794
10
756.885086
20
174.262794
10
756.885086
20
344.262794
10
631.622292
20
344.262794
0
TEXT
8
INFO
10
633.622292
20
259.262794
40
4
1
CAT-PORT-SIDE-STARBOARD-03 | 125.3x170.0 mm | R0
50
0
0
TEXT
8
INFO
10
633.622292
20
176.262794
40
2.5
1
BEVEL CAT-PORT-SIDE-STARBOARD-03: edge 0: Bottom chine mating edge; bevel-machine after nominal cut
50
0
0
LWPOLYLINE
8
CUT
90
4
70
1
43
0.0
10
760.885086
20
174.262794
10
886.14788
20
174.262794
10
886.14788
20
344.262794
10
760.885086
20
344.262794
0
TEXT
8
INFO
10
762.885086
20
259.262794
40
4
1
CAT-PORT-SIDE-STARBOARD-04 | 125.3x170.0 mm | R0
50
0
0
TEXT
8
INFO
10
762.885086
20
176.262794
40
2.5
1
BEVEL CAT-PORT-SIDE-STARBOARD-04: edge 0: Bottom chine mating edge; bevel-machine after nominal cut
50
0
0
LWPOLYLINE
8
CUT
90
4
70
1
43
0.0
10
194
20
391.548352
10
194
20
221.548352
10
319.262794
20
221.548352
10
319.262794
20
391.548352
0
TEXT
8
INFO
10
196
20
306.548352
40
4
1
CAT-STARBOARD-SIDE-PORT-02 | 125.3x170.0 mm | R90
50
0
0
TEXT
8
INFO
10
196
20
223.548352
40
2.5
1
BEVEL CAT-STARBOARD-SIDE-PORT-02: edge 0: Bottom chine mating edge; bevel-machine after nominal cut
50
0
0
LWPOLYLINE
8
CUT
90
4
70
1
43
0.0
10
455.07394
20
221.548352
10
625.07394
20
221.548352
10
625.07394
20
346.811146
10
455.07394
20
346.811146
0
TEXT
8
INFO
10
457.07394
20
284.179749
40
4
1
CAT-STARBOARD-SIDE-PORT-03 | 170.0x125.3 mm | R0
50
0
0
TEXT
8
INFO
10
457.07394
20
223.548352
40
2.5
1
BEVEL CAT-STARBOARD-SIDE-PORT-03: edge 0: Bottom chine mating edge; bevel-machine after nominal cut
50
0
0
LWPOLYLINE
8
CUT
90
4
70
1
43
0.0
10
20
20
303.525588
10
190
20
303.525588
10
190
20
428.788382
10
20
20
428.788382
0
TEXT
8
INFO
10
22
20
366.156985
40
4
1
CAT-STARBOARD-SIDE-PORT-04 | 170.0x125.3 mm | R0
50
0
0
TEXT
8
INFO
10
22
20
305.525588
40
2.5
1
BEVEL CAT-STARBOARD-SIDE-PORT-04: edge 0: Bottom chine mating edge; bevel-machine after nominal cut
50
0
0
LWPOLYLINE
8
CUT
90
4
70
1
43
0.0
10
323.262794
20
348.262794
10
448.525588
20
348.262794
10
448.525588
20
518.262794
10
323.262794
20
518.262794
0
TEXT
8
INFO
10
325.262794
20
433.262794
40
4
1
CAT-STARBOARD-SIDE-STARBOARD-02 | 125.3x170.0 mm | R0
50
0
0
TEXT
8
INFO
10
325.262794
20
350.262794
40
2.5
1
BEVEL CAT-STARBOARD-SIDE-STARBOARD-02: edge 0: Bottom chine mating edge; bevel-machine after nominal cut
50
0
0
LWPOLYLINE
8
CUT
90
4
70
1
43
0.0
10
629.07394
20
348.262794
10
754.336734
20
348.262794
10
754.336734
20
518.262794
10
629.07394
20
518.262794
0
TEXT
8
INFO
10
631.07394
20
433.262794
40
4
1
CAT-STARBOARD-SIDE-STARBOARD-03 | 125.3x170.0 mm | R0
50
0
0
TEXT
8
INFO
10
631.07394
20
350.262794
40
2.5
1
BEVEL CAT-STARBOARD-SIDE-STARBOARD-03: edge 0: Bottom chine mating edge; bevel-machine after nominal cut
50
0
0
LWPOLYLINE
8
CUT
90
4
70
1
43
0.0
10
758.336734
20
348.262794
10
883.599528
20
348.262794
10
883.599528
20
518.262794
10
758.336734
20
518.262794
0
TEXT
8
INFO
10
760.336734
20
433.262794
40
4
1
CAT-STARBOARD-SIDE-STARBOARD-04 | 125.3x170.0 mm | R0
50
0
0
TEXT
8
INFO
10
760.336734
20
350.262794
40
2.5
1
BEVEL CAT-STARBOARD-SIDE-STARBOARD-04: edge 0: Bottom chine mating edge; bevel-machine after nominal cut
50
0
0
LWPOLYLINE
8
CUT
90
3
70
1
43
0.0
10
890.14788
20
350.234711
10
890.14788
20
174.262794
10
977.971811
20
197.745128
0
TEXT
8
INFO
10
892.14788
20
262.2487525
40
4
1
CAT-STARBOARD-BOTTOM-06 | 87.8x176.0 mm | R90
50
0
0
TEXT
8
INFO
10
892.14788
20
176.262794
40
2.5
1
BEVEL CAT-STARBOARD-BOTTOM-06: edge 0: Longitudinal chine mating edges; bevel-machine to 15 deg after laser cut | edge 2: Longitudinal chine mating edges; bevel-machine to 15 deg after laser cut
50
0
0
LWPOLYLINE
8
CUT
90
4
70
1
43
0.0
10
481.064306
20
350.811146
10
538.004496
20
350.811146
10
509.465778
20
520.983046
10
452.525588
20
520.983046
0
TEXT
8
INFO
10
454.525588
20
435.897096
40
4
1
CAT-STARBOARD-CHINE-STARBOARD-05 | 85.5x170.2 mm | R0
50
0
0
TEXT
8
INFO
10
454.525588
20
352.811146
40
2.5
1
BEVEL CAT-STARBOARD-CHINE-STARBOARD-05: edge 0: Mates flat bottom and vertical side; post-laser bevel to 15 deg | edge 2: Mates flat bottom and vertical side; post-laser bevel to 15 deg
50
0
0
LWPOLYLINE
8
CUT
90
4
70
1
43
0.0
10
542.004496
20
523.359498
10
542.004496
20
350.811146
10
598.160467
20
360.228796
10
598.160467
20
532.777148
0
TEXT
8
INFO
10
544.004496
20
441.794147
40
4
1
CAT-STARBOARD-CHINE-PORT-05 | 56.2x182.0 mm | R90
50
0
0
TEXT
8
INFO
10
544.004496
20
352.811146
40
2.5
1
BEVEL CAT-STARBOARD-CHINE-PORT-05: edge 0: Mates flat bottom and vertical side; post-laser bevel to 15 deg | edge 2: Mates flat bottom and vertical side; post-laser bevel to 15 deg
50
0
0
LWPOLYLINE
8
CUT
90
4
70
1
43
0.0
10
887.599528
20
524.234711
10
887.599528
20
354.234711
10
944.539718
20
354.234711
10
944.539718
20
524.234711
0
TEXT
8
INFO
10
889.599528
20
439.234711
40
4
1
CAT-PORT-CHINE-PORT-02 | 56.9x170.0 mm | R90
50
0
0
TEXT
8
INFO
10
889.599528
20
356.234711
40
2.5
1
BEVEL CAT-PORT-CHINE-PORT-02: edge 0: Mates flat bottom and vertical side; post-laser bevel to 15 deg | edge 2: Mates flat bottom and vertical side; post-laser bevel to 15 deg
50
0
0
LWPOLYLINE
8
CUT
90
4
70
1
43
0.0
10
20
20
432.788382
10
190
20
432.788382
10
190
20
489.728572
10
20
20
489.728572
0
TEXT
8
INFO
10
22
20
461.258477
40
4
1
CAT-PORT-CHINE-PORT-03 | 170.0x56.9 mm | R0
50
0
0
TEXT
8
INFO
10
22
20
434.788382
40
2.5
1
BEVEL CAT-PORT-CHINE-PORT-03: edge 0: Mates flat bottom and vertical side; post-laser bevel to 15 deg | edge 2: Mates flat bottom and vertical side; post-laser bevel to 15 deg
50
0
0
LWPOLYLINE
8
CUT
90
4
70
1
43
0.0
10
194
20
395.548352
10
244
20
395.548352
10
244
20
520.811146
10
194
20
520.811146
0
TEXT
8
INFO
10
196
20
458.179749
40
4
1
CAT-STARBOARD-SIDE-PORT-01 | 50.0x125.3 mm | R0
50
0
0
TEXT
8
INFO
10
196
20
397.548352
40
2.5
1
BEVEL CAT-STARBOARD-SIDE-PORT-01: edge 0: Bottom chine mating edge; bevel-machine after nominal cut
50
0
0
LWPOLYLINE
8
CUT
90
4
70
1
43
0.0
10
248
20
520.811146
10
248
20
395.548352
10
298
20
395.548352
10
298
20
520.811146
0
TEXT
8
INFO
10
250
20
458.179749
40
4
1
CAT-STARBOARD-SIDE-STARBOARD-01 | 50.0x125.3 mm | R90
50
0
0
TEXT
8
INFO
10
250
20
397.548352
40
2.5
1
BEVEL CAT-STARBOARD-SIDE-STARBOARD-01: edge 0: Bottom chine mating edge; bevel-machine after nominal cut
50
0
0
LWPOLYLINE
8
CUT
90
4
70
1
43
0.0
10
20
20
493.728572
10
76.94019
20
493.728572
10
76.94019
20
543.728572
10
20
20
543.728572
0
TEXT
8
INFO
10
22
20
518.728572
40
4
1
CAT-STARBOARD-CHINE-STARBOARD-01 | 56.9x50.0 mm | R0
50
0
0
TEXT
8
INFO
10
22
20
495.728572
40
2.5
1
BEVEL CAT-STARBOARD-CHINE-STARBOARD-01: edge 0: Mates flat bottom and vertical side; post-laser bevel to 15 deg | edge 2: Mates flat bottom and vertical side; post-laser bevel to 15 deg
50
0
0
TEXT
8
INFO
10
20
20
8
40
3.5
1
20 mm plywood, profiles before fiberglass/resin/putty; bevel sanding required
50
0
0
TEXT
8
INFO
10
20
20
14
40
3.5
1
Geometry study only; flotation and performance are not validated
50
0
0
ENDSEC
0
EOF
