0
SECTION
2
HEADER
9
$ACADVER
1
AC1015
9
$INSUNITS
70
4
9
$MEASUREMENT
70
1
0
ENDSEC
0
SECTION
2
ENTITIES
0
TEXT
8
INFO
10
20
20
590
40
6
1
Catamaran | SHEET 1 | 1000 x 600 mm | SCALE 1:1
50
0
0
TEXT
8
TOOLPATH
10
20
20
583
40
4
1
TOOLPATH: CAM OUTSIDE OFFSET +0.10 mm | DO NOT CUT BOTH
50
0
0
TEXT
8
TOOLPATH
10
20
20
577
40
3.5
1
CUT layer is nominal finished plywood profile; no toolpath geometry emitted
50
0
0
TEXT
8
INFO
10
20
20
571
40
3.5
1
HOLES: nominal CUT; apply inner compensation in CAM if required
50
0
0
LWPOLYLINE
8
CUT
90
4
70
1
43
0.0
10
54.401664
20
45
10
226.950016
20
45
10
182.430216
20
301.160082
10
20
20
242.941881
0
TEXT
8
INFO
10
22
20
173.080041
40
4
1
CAT-PORT-DECK-05 | 207.0x256.2 mm | R0
50
0
0
TEXT
8
INFO
10
22
20
47
40
2.5
1
BEVEL CAT-PORT-DECK-05: edge 0: Removable deck support edge; keep CUT outline nominal
50
0
0
LWPOLYLINE
8
CUT
90
4
70
1
43
0.0
10
265.35168
20
45
10
437.900032
20
45
10
393.380232
20
301.160082
10
230.950016
20
242.941881
0
TEXT
8
INFO
10
232.950016
20
173.080041
40
4
1
CAT-STARBOARD-DECK-05 | 207.0x256.2 mm | R0
50
0
0
TEXT
8
INFO
10
232.950016
20
47
40
2.5
1
BEVEL CAT-STARBOARD-DECK-05: edge 0: Removable deck support edge; keep CUT outline nominal
50
0
0
LWPOLYLINE
8
CUT
90
4
70
1
43
0.0
10
441.900032
20
45
10
611.900032
20
45
10
611.900032
20
305
10
441.900032
20
305
0
TEXT
8
INFO
10
443.900032
20
175
40
4
1
CAT-PORT-DECK-02 | 170.0x260.0 mm | R0
50
0
0
TEXT
8
INFO
10
443.900032
20
47
40
2.5
1
BEVEL CAT-PORT-DECK-02: edge 0: Removable deck support edge; keep CUT outline nominal
50
0
0
LWPOLYLINE
8
CUT
90
4
70
1
43
0.0
10
615.900032
20
45
10
785.900032
20
45
10
785.900032
20
305
10
615.900032
20
305
0
TEXT
8
INFO
10
617.900032
20
175
40
4
1
CAT-PORT-DECK-03 | 170.0x260.0 mm | R0
50
0
0
TEXT
8
INFO
10
617.900032
20
47
40
2.5
1
BEVEL CAT-PORT-DECK-03: edge 0: Removable deck support edge; keep CUT outline nominal
50
0
0
LWPOLYLINE
8
CUT
90
4
70
1
43
0.0
10
789.900032
20
45
10
959.900032
20
45
10
959.900032
20
305
10
789.900032
20
305
0
TEXT
8
INFO
10
791.900032
20
175
40
4
1
CAT-PORT-DECK-04 | 170.0x260.0 mm | R0
50
0
0
TEXT
8
INFO
10
791.900032
20
47
40
2.5
1
BEVEL CAT-PORT-DECK-04: edge 0: Removable deck support edge; keep CUT outline nominal
50
0
0
LWPOLYLINE
8
CUT
90
4
70
1
43
0.0
10
20
20
475.160082
10
20
20
305.160082
10
280
20
305.160082
10
280
20
475.160082
0
TEXT
8
INFO
10
22
20
390.160082
40
4
1
CAT-STARBOARD-DECK-02 | 260.0x170.0 mm | R90
50
0
0
TEXT
8
INFO
10
22
20
307.160082
40
2.5
1
BEVEL CAT-STARBOARD-DECK-02: edge 0: Removable deck support edge; keep CUT outline nominal
50
0
0
LWPOLYLINE
8
CUT
90
4
70
1
43
0.0
10
284
20
479
10
284
20
309
10
544
20
309
10
544
20
479
0
TEXT
8
INFO
10
286
20
394
40
4
1
CAT-STARBOARD-DECK-03 | 260.0x170.0 mm | R90
50
0
0
TEXT
8
INFO
10
286
20
311
40
2.5
1
BEVEL CAT-STARBOARD-DECK-03: edge 0: Removable deck support edge; keep CUT outline nominal
50
0
0
LWPOLYLINE
8
CUT
90
4
70
1
43
0.0
10
548
20
479
10
548
20
309
10
808
20
309
10
808
20
479
0
TEXT
8
INFO
10
550
20
394
40
4
1
CAT-STARBOARD-DECK-04 | 260.0x170.0 mm | R90
50
0
0
TEXT
8
INFO
10
550
20
311
40
2.5
1
BEVEL CAT-STARBOARD-DECK-04: edge 0: Removable deck support edge; keep CUT outline nominal
50
0
0
LWPOLYLINE
8
CUT
90
4
70
1
43
0.0
10
812
20
507.010861
10
812
20
309
10
951.611713
20
319.419675
10
936.915381
20
516.333701
0
TEXT
8
INFO
10
814
20
412.6668505
40
4
1
CAT-PORT-SIDE-PORT-06 | 139.6x207.3 mm | R90
50
0
0
TEXT
8
INFO
10
814
20
311
40
2.5
1
BEVEL CAT-PORT-SIDE-PORT-06: edge 0: Bottom chine mating edge; bevel-machine after nominal cut
50
0
0
LWPOLYLINE
8
CUT
90
4
70
1
43
0.0
10
20
20
529.160082
10
20
20
479.160082
10
280
20
479.160082
10
280
20
529.160082
0
TEXT
8
INFO
10
22
20
504.160082
40
4
1
CAT-PORT-DECK-01 | 260.0x50.0 mm | R90
50
0
0
TEXT
8
INFO
10
22
20
481.160082
40
2.5
1
BEVEL CAT-PORT-DECK-01: edge 0: Removable deck support edge; keep CUT outline nominal
50
0
0
LWPOLYLINE
8
CUT
90
4
70
1
43
0.0
10
284
20
533
10
284
20
483
10
544
20
483
10
544
20
533
0
TEXT
8
INFO
10
286
20
508
40
4
1
CAT-STARBOARD-DECK-01 | 260.0x50.0 mm | R90
50
0
0
TEXT
8
INFO
10
286
20
485
40
2.5
1
BEVEL CAT-STARBOARD-DECK-01: edge 0: Removable deck support edge; keep CUT outline nominal
50
0
0
LWPOLYLINE
8
CUT
90
3
70
1
43
0.0
10
562.206812
20
483
10
738.17873
20
483
10
548
20
538.139384
0
TEXT
8
INFO
10
550
20
510.569692
40
4
1
CAT-PORT-CHINE-PORT-06 | 190.2x55.1 mm | R0
50
0
0
TEXT
8
INFO
10
550
20
485
40
2.5
1
BEVEL CAT-PORT-CHINE-PORT-06: edge 0: Mates flat bottom and vertical side; post-laser bevel to 15 deg | edge 2: Mates flat bottom and vertical side; post-laser bevel to 15 deg
50
0
0
LWPOLYLINE
8
CUT
90
4
70
1
43
0.0
10
742.17873
20
483
10
792.17873
20
483
10
792.17873
20
539.94019
10
742.17873
20
539.94019
0
TEXT
8
INFO
10
744.17873
20
511.470095
40
4
1
CAT-PORT-CHINE-PORT-01 | 50.0x56.9 mm | R0
50
0
0
TEXT
8
INFO
10
744.17873
20
485
40
2.5
1
BEVEL CAT-PORT-CHINE-PORT-01: edge 0: Mates flat bottom and vertical side; post-laser bevel to 15 deg | edge 2: Mates flat bottom and vertical side; post-laser bevel to 15 deg
50
0
0
LWPOLYLINE
8
CUT
90
4
70
1
43
0.0
10
955.611713
20
309
10
975.611713
20
309
10
975.611713
20
339
10
955.611713
20
339
0
TEXT
8
INFO
10
957.611713
20
324
40
4
1
CATAMARAN-CONNECTOR-CENTER-01 | 20.0x30.0 mm | R0
50
0
0
TEXT
8
INFO
10
957.611713
20
311
40
2.5
1
BEVEL CATAMARAN-CONNECTOR-CENTER-01: edge 0: Deck connector end; post-laser fit/bevel, no shell overlap
50
0
0
LWPOLYLINE
8
CUT
90
4
70
1
43
0.0
10
955.611713
20
343
10
975.611713
20
343
10
975.611713
20
373
10
955.611713
20
373
0
TEXT
8
INFO
10
957.611713
20
358
40
4
1
CATAMARAN-CONNECTOR-CENTER-02 | 20.0x30.0 mm | R0
50
0
0
TEXT
8
INFO
10
957.611713
20
345
40
2.5
1
BEVEL CATAMARAN-CONNECTOR-CENTER-02: edge 0: Deck connector end; post-laser fit/bevel, no shell overlap
50
0
0
LWPOLYLINE
8
CUT
90
4
70
1
43
0.0
10
955.611713
20
377
10
975.611713
20
377
10
975.611713
20
407
10
955.611713
20
407
0
TEXT
8
INFO
10
957.611713
20
392
40
4
1
CATAMARAN-CONNECTOR-CENTER-03 | 20.0x30.0 mm | R0
50
0
0
TEXT
8
INFO
10
957.611713
20
379
40
2.5
1
BEVEL CATAMARAN-CONNECTOR-CENTER-03: edge 0: Deck connector end; post-laser fit/bevel, no shell overlap
50
0
0
LWPOLYLINE
8
CUT
90
4
70
1
43
0.0
10
955.611713
20
411
10
975.611713
20
411
10
975.611713
20
441
10
955.611713
20
441
0
TEXT
8
INFO
10
957.611713
20
426
40
4
1
CATAMARAN-CONNECTOR-CENTER-04 | 20.0x30.0 mm | R0
50
0
0
TEXT
8
INFO
10
957.611713
20
413
40
2.5
1
BEVEL CATAMARAN-CONNECTOR-CENTER-04: edge 0: Deck connector end; post-laser fit/bevel, no shell overlap
50
0
0
TEXT
8
INFO
10
20
20
8
40
3.5
1
20 mm plywood, profiles before fiberglass/resin/putty; bevel sanding required
50
0
0
TEXT
8
INFO
10
20
20
14
40
3.5
1
Geometry study only; flotation and performance are not validated
50
0
0
ENDSEC
0
EOF
