0
SECTION
2
HEADER
9
$ACADVER
1
AC1015
9
$INSUNITS
70
4
9
$MEASUREMENT
70
1
0
ENDSEC
0
SECTION
2
ENTITIES
0
TEXT
8
INFO
10
20
20
590
40
6
1
Catamaran | SHEET 2 | 1000 x 600 mm | SCALE 1:1
50
0
0
TEXT
8
TOOLPATH
10
20
20
583
40
4
1
TOOLPATH: CAM OUTSIDE OFFSET +0.10 mm | DO NOT CUT BOTH
50
0
0
TEXT
8
TOOLPATH
10
20
20
577
40
3.5
1
CUT layer is nominal finished plywood profile; no toolpath geometry emitted
50
0
0
TEXT
8
INFO
10
20
20
571
40
3.5
1
HOLES: nominal CUT; apply inner compensation in CAM if required
50
0
0
LWPOLYLINE
8
CUT
90
6
70
1
43
0.0
10
75
20
45
10
225
20
45
10
280
20
59.737206
10
280
20
185
10
20
20
185
10
20
20
59.737206
0
TEXT
8
INFO
10
22
20
115
40
4
1
CAT-PORT-TRANSOM-01 | 260.0x140.0 mm | R0
50
0
0
TEXT
8
INFO
10
22
20
47
40
2.5
1
BEVEL CAT-PORT-TRANSOM-01: edge 1: Transom-to-bottom and side butt joint; post-laser bevel
50
0
0
LWPOLYLINE
8
CUT
90
6
70
1
43
0.0
10
339
20
45
10
489
20
45
10
544
20
59.737206
10
544
20
185
10
284
20
185
10
284
20
59.737206
0
TEXT
8
INFO
10
286
20
115
40
4
1
CAT-STARBOARD-TRANSOM-01 | 260.0x140.0 mm | R0
50
0
0
TEXT
8
INFO
10
286
20
47
40
2.5
1
BEVEL CAT-STARBOARD-TRANSOM-01: edge 1: Transom-to-bottom and side butt joint; post-laser bevel
50
0
0
LWPOLYLINE
8
CUT
90
3
70
1
43
0.0
10
548
20
45
10
745.461682
20
45
10
643.253338
20
217.967966
0
TEXT
8
INFO
10
550
20
131.483983
40
4
1
CAT-PORT-DECK-06 | 197.5x173.0 mm | R0
50
0
0
TEXT
8
INFO
10
550
20
47
40
2.5
1
BEVEL CAT-PORT-DECK-06: edge 0: Removable deck support edge; keep CUT outline nominal
50
0
0
LWPOLYLINE
8
CUT
90
3
70
1
43
0.0
10
749.461682
20
45
10
946.923364
20
45
10
844.71502
20
217.967966
0
TEXT
8
INFO
10
751.461682
20
131.483983
40
4
1
CAT-STARBOARD-DECK-06 | 197.5x173.0 mm | R0
50
0
0
TEXT
8
INFO
10
751.461682
20
47
40
2.5
1
BEVEL CAT-STARBOARD-DECK-06: edge 0: Removable deck support edge; keep CUT outline nominal
50
0
0
LWPOLYLINE
8
CUT
90
6
70
1
43
0.0
10
75
20
189
10
225
20
189
10
280
20
203.737206
10
280
20
309
10
20
20
309
10
20
20
203.737206
0
TEXT
8
INFO
10
22
20
249
40
4
1
CAT-PORT-BULKHEAD-01 | 260.0x120.0 mm | R0
50
0
0
TEXT
8
INFO
10
22
20
191
40
2.5
1
BEVEL CAT-PORT-BULKHEAD-01: edge 0: Section bulkhead mating perimeter; bevel as required for shell angle
50
0
0
LWPOLYLINE
8
CUT
90
6
70
1
43
0.0
10
339
20
189
10
489
20
189
10
544
20
203.737206
10
544
20
309
10
284
20
309
10
284
20
203.737206
0
TEXT
8
INFO
10
286
20
249
40
4
1
CAT-PORT-BULKHEAD-02 | 260.0x120.0 mm | R0
50
0
0
TEXT
8
INFO
10
286
20
191
40
2.5
1
BEVEL CAT-PORT-BULKHEAD-02: edge 0: Section bulkhead mating perimeter; bevel as required for shell angle
50
0
0
LWPOLYLINE
8
CUT
90
6
70
1
43
0.0
10
603
20
221.967966
10
753
20
221.967966
10
808
20
236.705172
10
808
20
341.967966
10
548
20
341.967966
10
548
20
236.705172
0
TEXT
8
INFO
10
550
20
281.967966
40
4
1
CAT-PORT-BULKHEAD-03 | 260.0x120.0 mm | R0
50
0
0
TEXT
8
INFO
10
550
20
223.967966
40
2.5
1
BEVEL CAT-PORT-BULKHEAD-03: edge 0: Section bulkhead mating perimeter; bevel as required for shell angle
50
0
0
LWPOLYLINE
8
CUT
90
6
70
1
43
0.0
10
812
20
426.967966
10
812
20
276.967966
10
826.737206
20
221.967966
10
932
20
221.967966
10
932
20
481.967966
10
826.737206
20
481.967966
0
TEXT
8
INFO
10
814
20
351.967966
40
4
1
CAT-PORT-BULKHEAD-04 | 120.0x260.0 mm | R90
50
0
0
TEXT
8
INFO
10
814
20
223.967966
40
2.5
1
BEVEL CAT-PORT-BULKHEAD-04: edge 0: Section bulkhead mating perimeter; bevel as required for shell angle
50
0
0
LWPOLYLINE
8
CUT
90
6
70
1
43
0.0
10
75
20
313
10
225
20
313
10
280
20
327.737206
10
280
20
433
10
20
20
433
10
20
20
327.737206
0
TEXT
8
INFO
10
22
20
373
40
4
1
CAT-STARBOARD-BULKHEAD-01 | 260.0x120.0 mm | R0
50
0
0
TEXT
8
INFO
10
22
20
315
40
2.5
1
BEVEL CAT-STARBOARD-BULKHEAD-01: edge 0: Section bulkhead mating perimeter; bevel as required for shell angle
50
0
0
LWPOLYLINE
8
CUT
90
6
70
1
43
0.0
10
339
20
313
10
489
20
313
10
544
20
327.737206
10
544
20
433
10
284
20
433
10
284
20
327.737206
0
TEXT
8
INFO
10
286
20
373
40
4
1
CAT-STARBOARD-BULKHEAD-02 | 260.0x120.0 mm | R0
50
0
0
TEXT
8
INFO
10
286
20
315
40
2.5
1
BEVEL CAT-STARBOARD-BULKHEAD-02: edge 0: Section bulkhead mating perimeter; bevel as required for shell angle
50
0
0
LWPOLYLINE
8
CUT
90
6
70
1
43
0.0
10
603
20
345.967966
10
753
20
345.967966
10
808
20
360.705172
10
808
20
465.967966
10
548
20
465.967966
10
548
20
360.705172
0
TEXT
8
INFO
10
550
20
405.967966
40
4
1
CAT-STARBOARD-BULKHEAD-03 | 260.0x120.0 mm | R0
50
0
0
TEXT
8
INFO
10
550
20
347.967966
40
2.5
1
BEVEL CAT-STARBOARD-BULKHEAD-03: edge 0: Section bulkhead mating perimeter; bevel as required for shell angle
50
0
0
LWPOLYLINE
8
CUT
90
3
70
1
43
0.0
10
20
20
493.94019
10
20
20
437
10
190.406583
20
537.845909
0
TEXT
8
INFO
10
22
20
487.4229545
40
4
1
CAT-PORT-CHINE-STARBOARD-06 | 170.4x100.8 mm | R90
50
0
0
TEXT
8
INFO
10
22
20
439
40
2.5
1
BEVEL CAT-PORT-CHINE-STARBOARD-06: edge 0: Mates flat bottom and vertical side; post-laser bevel to 15 deg | edge 2: Mates flat bottom and vertical side; post-laser bevel to 15 deg
50
0
0
LWPOLYLINE
8
CUT
90
3
70
1
43
0.0
10
194.406583
20
493.94019
10
194.406583
20
437
10
364.813166
20
537.845909
0
TEXT
8
INFO
10
196.406583
20
487.4229545
40
4
1
CAT-STARBOARD-CHINE-STARBOARD-06 | 170.4x100.8 mm | R90
50
0
0
TEXT
8
INFO
10
196.406583
20
439
40
2.5
1
BEVEL CAT-STARBOARD-CHINE-STARBOARD-06: edge 0: Mates flat bottom and vertical side; post-laser bevel to 15 deg | edge 2: Mates flat bottom and vertical side; post-laser bevel to 15 deg
50
0
0
LWPOLYLINE
8
CUT
90
4
70
1
43
0.0
10
368.813166
20
493.94019
10
368.813166
20
437
10
538.985066
20
465.538718
10
538.985066
20
522.478908
0
TEXT
8
INFO
10
370.813166
20
479.739454
40
4
1
CAT-PORT-CHINE-STARBOARD-05 | 170.2x85.5 mm | R90
50
0
0
TEXT
8
INFO
10
370.813166
20
439
40
2.5
1
BEVEL CAT-PORT-CHINE-STARBOARD-05: edge 0: Mates flat bottom and vertical side; post-laser bevel to 15 deg | edge 2: Mates flat bottom and vertical side; post-laser bevel to 15 deg
50
0
0
LWPOLYLINE
8
CUT
90
3
70
1
43
0.0
10
557.191878
20
469.967966
10
733.163796
20
469.967966
10
542.985066
20
525.10735
0
TEXT
8
INFO
10
544.985066
20
497.537658
40
4
1
CAT-STARBOARD-CHINE-PORT-06 | 190.2x55.1 mm | R0
50
0
0
TEXT
8
INFO
10
544.985066
20
471.967966
40
2.5
1
BEVEL CAT-STARBOARD-CHINE-PORT-06: edge 0: Mates flat bottom and vertical side; post-laser bevel to 15 deg | edge 2: Mates flat bottom and vertical side; post-laser bevel to 15 deg
50
0
0
LWPOLYLINE
8
CUT
90
4
70
1
43
0.0
10
746.581446
20
485.967966
10
919.129798
20
485.967966
10
909.712148
20
542.123937
10
737.163796
20
542.123937
0
TEXT
8
INFO
10
739.163796
20
514.0459515
40
4
1
CAT-PORT-CHINE-PORT-05 | 182.0x56.2 mm | R0
50
0
0
TEXT
8
INFO
10
739.163796
20
487.967966
40
2.5
1
BEVEL CAT-PORT-CHINE-PORT-05: edge 0: Mates flat bottom and vertical side; post-laser bevel to 15 deg | edge 2: Mates flat bottom and vertical side; post-laser bevel to 15 deg
50
0
0
LWPOLYLINE
8
CUT
90
4
70
1
43
0.0
10
923.129798
20
542.908156
10
923.129798
20
485.967966
10
973.129798
20
485.967966
10
973.129798
20
542.908156
0
TEXT
8
INFO
10
925.129798
20
514.438061
40
4
1
CAT-PORT-CHINE-STARBOARD-01 | 50.0x56.9 mm | R90
50
0
0
TEXT
8
INFO
10
925.129798
20
487.967966
40
2.5
1
BEVEL CAT-PORT-CHINE-STARBOARD-01: edge 0: Mates flat bottom and vertical side; post-laser bevel to 15 deg | edge 2: Mates flat bottom and vertical side; post-laser bevel to 15 deg
50
0
0
TEXT
8
INFO
10
20
20
8
40
3.5
1
20 mm plywood, profiles before fiberglass/resin/putty; bevel sanding required
50
0
0
TEXT
8
INFO
10
20
20
14
40
3.5
1
Geometry study only; flotation and performance are not validated
50
0
0
ENDSEC
0
EOF
