0
SECTION
2
HEADER
9
$ACADVER
1
AC1015
9
$INSUNITS
70
4
9
$MEASUREMENT
70
1
0
ENDSEC
0
SECTION
2
ENTITIES
0
TEXT
8
INFO
10
20
20
590
40
6
1
Trimaran | SHEET 2 | 1000 x 600 mm | SCALE 1:1
50
0
0
TEXT
8
TOOLPATH
10
20
20
583
40
4
1
TOOLPATH: CAM OUTSIDE OFFSET +0.10 mm | DO NOT CUT BOTH
50
0
0
TEXT
8
TOOLPATH
10
20
20
577
40
3.5
1
CUT layer is nominal finished plywood profile; no toolpath geometry emitted
50
0
0
TEXT
8
INFO
10
20
20
571
40
3.5
1
HOLES: nominal CUT; apply inner compensation in CAM if required
50
0
0
LWPOLYLINE
8
CUT
90
6
70
1
43
0.0
10
75
20
45
10
265
20
45
10
320
20
59.737206
10
320
20
165
10
20
20
165
10
20
20
59.737206
0
TEXT
8
INFO
10
22
20
105
40
4
1
TRI-MAIN-BULKHEAD-03 | 300.0x120.0 mm | R0
50
0
0
TEXT
8
INFO
10
22
20
47
40
2.5
1
BEVEL TRI-MAIN-BULKHEAD-03: edge 0: Section bulkhead mating perimeter; bevel as required for shell angle
50
0
0
LWPOLYLINE
8
CUT
90
6
70
1
43
0.0
10
379
20
45
10
569
20
45
10
624
20
59.737206
10
624
20
165
10
324
20
165
10
324
20
59.737206
0
TEXT
8
INFO
10
326
20
105
40
4
1
TRI-MAIN-BULKHEAD-04 | 300.0x120.0 mm | R0
50
0
0
TEXT
8
INFO
10
326
20
47
40
2.5
1
BEVEL TRI-MAIN-BULKHEAD-04: edge 0: Section bulkhead mating perimeter; bevel as required for shell angle
50
0
0
LWPOLYLINE
8
CUT
90
4
70
1
43
0.0
10
628
20
45
10
798
20
45
10
798
20
235
10
628
20
235
0
TEXT
8
INFO
10
630
20
140
40
4
1
TRI-MAIN-BOTTOM-02 | 170.0x190.0 mm | R0
50
0
0
TEXT
8
INFO
10
630
20
47
40
2.5
1
BEVEL TRI-MAIN-BOTTOM-02: edge 0: Longitudinal chine mating edges; bevel-machine to 15 deg after laser cut | edge 2: Longitudinal chine mating edges; bevel-machine to 15 deg after laser cut
50
0
0
LWPOLYLINE
8
CUT
90
4
70
1
43
0.0
10
802
20
45
10
972
20
45
10
972
20
235
10
802
20
235
0
TEXT
8
INFO
10
804
20
140
40
4
1
TRI-MAIN-BOTTOM-03 | 170.0x190.0 mm | R0
50
0
0
TEXT
8
INFO
10
804
20
47
40
2.5
1
BEVEL TRI-MAIN-BOTTOM-03: edge 0: Longitudinal chine mating edges; bevel-machine to 15 deg after laser cut | edge 2: Longitudinal chine mating edges; bevel-machine to 15 deg after laser cut
50
0
0
LWPOLYLINE
8
CUT
90
4
70
1
43
0.0
10
20
20
169
10
190
20
169
10
190
20
359
10
20
20
359
0
TEXT
8
INFO
10
22
20
264
40
4
1
TRI-MAIN-BOTTOM-04 | 170.0x190.0 mm | R0
50
0
0
TEXT
8
INFO
10
22
20
171
40
2.5
1
BEVEL TRI-MAIN-BOTTOM-04: edge 0: Longitudinal chine mating edges; bevel-machine to 15 deg after laser cut | edge 2: Longitudinal chine mating edges; bevel-machine to 15 deg after laser cut
50
0
0
LWPOLYLINE
8
CUT
90
3
70
1
43
0.0
10
194
20
169
10
388.473014
20
169
10
296.74046
20
334.118597
0
TEXT
8
INFO
10
196
20
251.5592985
40
4
1
TRI-MAIN-DECK-06 | 194.5x165.1 mm | R0
50
0
0
TEXT
8
INFO
10
196
20
171
40
2.5
1
BEVEL TRI-MAIN-DECK-06: edge 0: Removable deck support edge; keep CUT outline nominal
50
0
0
LWPOLYLINE
8
CUT
90
4
70
1
43
0.0
10
401.938316
20
169
10
596.968924
20
169
10
586.390027
20
308.599738
10
392.473014
20
293.904667
0
TEXT
8
INFO
10
394.473014
20
238.799869
40
4
1
TRI-MAIN-SIDE-PORT-06 | 204.5x139.6 mm | R0
50
0
0
TEXT
8
INFO
10
394.473014
20
171
40
2.5
1
BEVEL TRI-MAIN-SIDE-PORT-06: edge 0: Bottom chine mating edge; bevel-machine after nominal cut
50
0
0
LWPOLYLINE
8
CUT
90
6
70
1
43
0.0
10
655.968924
20
239
10
734.857813
20
239
10
789.857813
20
253.737206
10
789.857813
20
359
10
600.968924
20
359
10
600.968924
20
253.737206
0
TEXT
8
INFO
10
602.968924
20
299
40
4
1
TRI-MAIN-BULKHEAD-05 | 188.9x120.0 mm | R0
50
0
0
TEXT
8
INFO
10
602.968924
20
241
40
2.5
1
BEVEL TRI-MAIN-BULKHEAD-05: edge 0: Section bulkhead mating perimeter; bevel as required for shell angle
50
0
0
LWPOLYLINE
8
CUT
90
4
70
1
43
0.0
10
793.857813
20
239
10
972.705289
20
239
10
972.705289
20
364.262794
10
793.857813
20
364.262794
0
TEXT
8
INFO
10
795.857813
20
301.631397
40
4
1
TRI-MAIN-SIDE-PORT-05 | 178.8x125.3 mm | R0
50
0
0
TEXT
8
INFO
10
795.857813
20
241
40
2.5
1
BEVEL TRI-MAIN-SIDE-PORT-05: edge 0: Bottom chine mating edge; bevel-machine after nominal cut
50
0
0
LWPOLYLINE
8
CUT
90
4
70
1
43
0.0
10
392.473014
20
312.599738
10
517.735808
20
312.599738
10
517.735808
20
491.447214
10
392.473014
20
491.447214
0
TEXT
8
INFO
10
394.473014
20
402.023476
40
4
1
TRI-MAIN-SIDE-STARBOARD-05 | 125.3x178.8 mm | R0
50
0
0
TEXT
8
INFO
10
394.473014
20
314.599738
40
2.5
1
BEVEL TRI-MAIN-SIDE-STARBOARD-05: edge 0: Bottom chine mating edge; bevel-machine after nominal cut
50
0
0
LWPOLYLINE
8
CUT
90
4
70
1
43
0.0
10
194
20
338.118597
10
364
20
338.118597
10
364
20
463.381391
10
194
20
463.381391
0
TEXT
8
INFO
10
196
20
400.749994
40
4
1
TRI-MAIN-SIDE-PORT-02 | 170.0x125.3 mm | R0
50
0
0
TEXT
8
INFO
10
196
20
340.118597
40
2.5
1
BEVEL TRI-MAIN-SIDE-PORT-02: edge 0: Bottom chine mating edge; bevel-machine after nominal cut
50
0
0
LWPOLYLINE
8
CUT
90
4
70
1
43
0.0
10
20
20
363
10
190
20
363
10
190
20
488.262794
10
20
20
488.262794
0
TEXT
8
INFO
10
22
20
425.631397
40
4
1
TRI-MAIN-SIDE-PORT-03 | 170.0x125.3 mm | R0
50
0
0
TEXT
8
INFO
10
22
20
365
40
2.5
1
BEVEL TRI-MAIN-SIDE-PORT-03: edge 0: Bottom chine mating edge; bevel-machine after nominal cut
50
0
0
LWPOLYLINE
8
CUT
90
4
70
1
43
0.0
10
521.735808
20
363
10
691.735808
20
363
10
691.735808
20
488.262794
10
521.735808
20
488.262794
0
TEXT
8
INFO
10
523.735808
20
425.631397
40
4
1
TRI-MAIN-SIDE-PORT-04 | 170.0x125.3 mm | R0
50
0
0
TEXT
8
INFO
10
523.735808
20
365
40
2.5
1
BEVEL TRI-MAIN-SIDE-PORT-04: edge 0: Bottom chine mating edge; bevel-machine after nominal cut
50
0
0
LWPOLYLINE
8
CUT
90
4
70
1
43
0.0
10
695.735808
20
368.262794
10
820.998602
20
368.262794
10
820.998602
20
538.262794
10
695.735808
20
538.262794
0
TEXT
8
INFO
10
697.735808
20
453.262794
40
4
1
TRI-MAIN-SIDE-STARBOARD-02 | 125.3x170.0 mm | R0
50
0
0
TEXT
8
INFO
10
697.735808
20
370.262794
40
2.5
1
BEVEL TRI-MAIN-SIDE-STARBOARD-02: edge 0: Bottom chine mating edge; bevel-machine after nominal cut
50
0
0
LWPOLYLINE
8
CUT
90
4
70
1
43
0.0
10
824.998602
20
368.262794
10
950.261396
20
368.262794
10
950.261396
20
538.262794
10
824.998602
20
538.262794
0
TEXT
8
INFO
10
826.998602
20
453.262794
40
4
1
TRI-MAIN-SIDE-STARBOARD-03 | 125.3x170.0 mm | R0
50
0
0
TEXT
8
INFO
10
826.998602
20
370.262794
40
2.5
1
BEVEL TRI-MAIN-SIDE-STARBOARD-03: edge 0: Bottom chine mating edge; bevel-machine after nominal cut
50
0
0
LWPOLYLINE
8
CUT
90
4
70
1
43
0.0
10
194
20
467.381391
10
364
20
467.381391
10
364
20
524.321581
10
194
20
524.321581
0
TEXT
8
INFO
10
196
20
495.851486
40
4
1
TRI-MAIN-CHINE-PORT-02 | 170.0x56.9 mm | R0
50
0
0
TEXT
8
INFO
10
196
20
469.381391
40
2.5
1
BEVEL TRI-MAIN-CHINE-PORT-02: edge 0: Mates flat bottom and vertical side; post-laser bevel to 15 deg | edge 2: Mates flat bottom and vertical side; post-laser bevel to 15 deg
50
0
0
LWPOLYLINE
8
CUT
90
4
70
1
43
0.0
10
20
20
492.262794
10
190
20
492.262794
10
190
20
549.202984
10
20
20
549.202984
0
TEXT
8
INFO
10
22
20
520.732889
40
4
1
TRI-MAIN-CHINE-PORT-03 | 170.0x56.9 mm | R0
50
0
0
TEXT
8
INFO
10
22
20
494.262794
40
2.5
1
BEVEL TRI-MAIN-CHINE-PORT-03: edge 0: Mates flat bottom and vertical side; post-laser bevel to 15 deg | edge 2: Mates flat bottom and vertical side; post-laser bevel to 15 deg
50
0
0
LWPOLYLINE
8
CUT
90
4
70
1
43
0.0
10
521.735808
20
492.262794
10
691.735808
20
492.262794
10
691.735808
20
549.202984
10
521.735808
20
549.202984
0
TEXT
8
INFO
10
523.735808
20
520.732889
40
4
1
TRI-MAIN-CHINE-PORT-04 | 170.0x56.9 mm | R0
50
0
0
TEXT
8
INFO
10
523.735808
20
494.262794
40
2.5
1
BEVEL TRI-MAIN-CHINE-PORT-04: edge 0: Mates flat bottom and vertical side; post-laser bevel to 15 deg | edge 2: Mates flat bottom and vertical side; post-laser bevel to 15 deg
50
0
0
LWPOLYLINE
8
CUT
90
4
70
1
43
0.0
10
368
20
545.447214
10
368
20
495.447214
10
493.262794
20
495.447214
10
493.262794
20
545.447214
0
TEXT
8
INFO
10
370
20
520.447214
40
4
1
TRI-MAIN-SIDE-PORT-01 | 125.3x50.0 mm | R90
50
0
0
TEXT
8
INFO
10
370
20
497.447214
40
2.5
1
BEVEL TRI-MAIN-SIDE-PORT-01: edge 0: Bottom chine mating edge; bevel-machine after nominal cut
50
0
0
LWPOLYLINE
8
CUT
90
4
70
1
43
0.0
10
954.261396
20
368.262794
10
974.261396
20
368.262794
10
974.261396
20
542.693856
10
954.261396
20
542.693856
0
TEXT
8
INFO
10
956.261396
20
455.478325
40
4
1
TRI-AMA-PORT-CHINE-PORT-04 | 20.0x174.4 mm | R0
50
0
0
TEXT
8
INFO
10
956.261396
20
370.262794
40
2.5
1
BEVEL TRI-AMA-PORT-CHINE-PORT-04: edge 0: Mates flat bottom and vertical side; post-laser bevel to 15 deg | edge 2: Mates flat bottom and vertical side; post-laser bevel to 15 deg
50
0
0
LWPOLYLINE
8
CUT
90
4
70
1
43
0.0
10
521.735808
20
338.481643
10
521.735808
20
312.599738
10
571.735808
20
312.599738
10
571.735808
20
338.481643
0
TEXT
8
INFO
10
523.735808
20
325.5406905
40
4
1
TRI-AMA-PORT-CHINE-STARBOARD-01 | 50.0x25.9 mm | R90
50
0
0
TEXT
8
INFO
10
523.735808
20
314.599738
40
2.5
1
BEVEL TRI-AMA-PORT-CHINE-STARBOARD-01: edge 0: Mates flat bottom and vertical side; post-laser bevel to 15 deg | edge 2: Mates flat bottom and vertical side; post-laser bevel to 15 deg
50
0
0
LWPOLYLINE
8
CUT
90
4
70
1
43
0.0
10
600.968924
20
169
10
620.968924
20
169
10
620.968924
20
210.514537
10
600.968924
20
210.514537
0
TEXT
8
INFO
10
602.968924
20
189.7572685
40
4
1
TRI-AMA-PORT-DECK-05 | 20.0x41.5 mm | R0
50
0
0
TEXT
8
INFO
10
602.968924
20
171
40
2.5
1
BEVEL TRI-AMA-PORT-DECK-05: edge 0: Removable deck support edge; keep CUT outline nominal
50
0
0
LWPOLYLINE
8
CUT
90
4
70
1
43
0.0
10
575.735808
20
312.599738
10
595.735808
20
312.599738
10
595.735808
20
354.114275
10
575.735808
20
354.114275
0
TEXT
8
INFO
10
577.735808
20
333.3570065
40
4
1
TRI-AMA-STARBOARD-DECK-05 | 20.0x41.5 mm | R0
50
0
0
TEXT
8
INFO
10
577.735808
20
314.599738
40
2.5
1
BEVEL TRI-AMA-STARBOARD-DECK-05: edge 0: Removable deck support edge; keep CUT outline nominal
50
0
0
LWPOLYLINE
8
CUT
90
4
70
1
43
0.0
10
368
20
338.118597
10
388
20
338.118597
10
388
20
363.118597
10
368
20
363.118597
0
TEXT
8
INFO
10
370
20
350.618597
40
4
1
TRIMARAN-CONNECTOR-PORT-03 | 20.0x25.0 mm | R0
50
0
0
TEXT
8
INFO
10
370
20
340.118597
40
2.5
1
BEVEL TRIMARAN-CONNECTOR-PORT-03: edge 0: Deck connector end; post-laser fit/bevel, no shell overlap
50
0
0
LWPOLYLINE
8
CUT
90
4
70
1
43
0.0
10
368
20
367.118597
10
388
20
367.118597
10
388
20
392.118597
10
368
20
392.118597
0
TEXT
8
INFO
10
370
20
379.618597
40
4
1
TRIMARAN-CONNECTOR-PORT-04 | 20.0x25.0 mm | R0
50
0
0
TEXT
8
INFO
10
370
20
369.118597
40
2.5
1
BEVEL TRIMARAN-CONNECTOR-PORT-04: edge 0: Deck connector end; post-laser fit/bevel, no shell overlap
50
0
0
LWPOLYLINE
8
CUT
90
4
70
1
43
0.0
10
368
20
396.118597
10
388
20
396.118597
10
388
20
421.118597
10
368
20
421.118597
0
TEXT
8
INFO
10
370
20
408.618597
40
4
1
TRIMARAN-CONNECTOR-STARBOARD-01 | 20.0x25.0 mm | R0
50
0
0
TEXT
8
INFO
10
370
20
398.118597
40
2.5
1
BEVEL TRIMARAN-CONNECTOR-STARBOARD-01: edge 0: Deck connector end; post-laser fit/bevel, no shell overlap
50
0
0
LWPOLYLINE
8
CUT
90
4
70
1
43
0.0
10
368
20
425.118597
10
388
20
425.118597
10
388
20
450.118597
10
368
20
450.118597
0
TEXT
8
INFO
10
370
20
437.618597
40
4
1
TRIMARAN-CONNECTOR-STARBOARD-02 | 20.0x25.0 mm | R0
50
0
0
TEXT
8
INFO
10
370
20
427.118597
40
2.5
1
BEVEL TRIMARAN-CONNECTOR-STARBOARD-02: edge 0: Deck connector end; post-laser fit/bevel, no shell overlap
50
0
0
LWPOLYLINE
8
CUT
90
4
70
1
43
0.0
10
368
20
454.118597
10
388
20
454.118597
10
388
20
479.118597
10
368
20
479.118597
0
TEXT
8
INFO
10
370
20
466.618597
40
4
1
TRIMARAN-CONNECTOR-STARBOARD-03 | 20.0x25.0 mm | R0
50
0
0
TEXT
8
INFO
10
370
20
456.118597
40
2.5
1
BEVEL TRIMARAN-CONNECTOR-STARBOARD-03: edge 0: Deck connector end; post-laser fit/bevel, no shell overlap
50
0
0
LWPOLYLINE
8
CUT
90
4
70
1
43
0.0
10
497.262794
20
495.447214
10
517.262794
20
495.447214
10
517.262794
20
520.447214
10
497.262794
20
520.447214
0
TEXT
8
INFO
10
499.262794
20
507.947214
40
4
1
TRIMARAN-CONNECTOR-STARBOARD-04 | 20.0x25.0 mm | R0
50
0
0
TEXT
8
INFO
10
499.262794
20
497.447214
40
2.5
1
BEVEL TRIMARAN-CONNECTOR-STARBOARD-04: edge 0: Deck connector end; post-laser fit/bevel, no shell overlap
50
0
0
TEXT
8
INFO
10
20
20
8
40
3.5
1
20 mm plywood, profiles before fiberglass/resin/putty; bevel sanding required
50
0
0
TEXT
8
INFO
10
20
20
14
40
3.5
1
Geometry study only; flotation and performance are not validated
50
0
0
ENDSEC
0
EOF
