0
SECTION
2
HEADER
9
$ACADVER
1
AC1015
9
$INSUNITS
70
4
9
$MEASUREMENT
70
1
0
ENDSEC
0
SECTION
2
ENTITIES
0
TEXT
8
INFO
10
20
20
590
40
6
1
Trimaran | SHEET 3 | 1000 x 600 mm | SCALE 1:1
50
0
0
TEXT
8
TOOLPATH
10
20
20
583
40
4
1
TOOLPATH: CAM OUTSIDE OFFSET +0.10 mm | DO NOT CUT BOTH
50
0
0
TEXT
8
TOOLPATH
10
20
20
577
40
3.5
1
CUT layer is nominal finished plywood profile; no toolpath geometry emitted
50
0
0
TEXT
8
INFO
10
20
20
571
40
3.5
1
HOLES: nominal CUT; apply inner compensation in CAM if required
50
0
0
LWPOLYLINE
8
CUT
90
4
70
1
43
0.0
10
20
20
45
10
145.262794
20
45
10
145.262794
20
215
10
20
20
215
0
TEXT
8
INFO
10
22
20
130
40
4
1
TRI-MAIN-SIDE-STARBOARD-04 | 125.3x170.0 mm | R0
50
0
0
TEXT
8
INFO
10
22
20
47
40
2.5
1
BEVEL TRI-MAIN-SIDE-STARBOARD-04: edge 0: Bottom chine mating edge; bevel-machine after nominal cut
50
0
0
LWPOLYLINE
8
CUT
90
4
70
1
43
0.0
10
151.466744
20
45
10
325.897806
20
45
10
323.614457
20
151.998426
10
149.262794
20
148.277757
0
TEXT
8
INFO
10
151.262794
20
98.499213
40
4
1
TRI-AMA-PORT-SIDE-PORT-04 | 176.6x107.0 mm | R0
50
0
0
TEXT
8
INFO
10
151.262794
20
47
40
2.5
1
BEVEL TRI-AMA-PORT-SIDE-PORT-04: edge 0: Bottom chine mating edge; bevel-machine after nominal cut
50
0
0
LWPOLYLINE
8
CUT
90
4
70
1
43
0.0
10
332.101756
20
45
10
506.532818
20
45
10
504.249469
20
151.998426
10
329.897806
20
148.277757
0
TEXT
8
INFO
10
331.897806
20
98.499213
40
4
1
TRI-AMA-STARBOARD-SIDE-PORT-04 | 176.6x107.0 mm | R0
50
0
0
TEXT
8
INFO
10
331.897806
20
47
40
2.5
1
BEVEL TRI-AMA-STARBOARD-SIDE-PORT-04: edge 0: Bottom chine mating edge; bevel-machine after nominal cut
50
0
0
LWPOLYLINE
8
CUT
90
4
70
1
43
0.0
10
564.195364
20
45
10
621.135554
20
45
10
567.473008
20
215.607007
10
510.532818
20
215.607007
0
TEXT
8
INFO
10
512.532818
20
130.3035035
40
4
1
TRI-MAIN-CHINE-STARBOARD-05 | 110.6x170.6 mm | R0
50
0
0
TEXT
8
INFO
10
512.532818
20
47
40
2.5
1
BEVEL TRI-MAIN-CHINE-STARBOARD-05: edge 0: Mates flat bottom and vertical side; post-laser bevel to 15 deg | edge 2: Mates flat bottom and vertical side; post-laser bevel to 15 deg
50
0
0
LWPOLYLINE
8
CUT
90
4
70
1
43
0.0
10
628.857071
20
45
10
732.158341
20
45
10
732.158341
20
219.391358
10
625.135554
20
219.391358
0
TEXT
8
INFO
10
627.135554
20
132.195679
40
4
1
TRI-AMA-PORT-SIDE-STARBOARD-04 | 107.0x174.4 mm | R0
50
0
0
TEXT
8
INFO
10
627.135554
20
47
40
2.5
1
BEVEL TRI-AMA-PORT-SIDE-STARBOARD-04: edge 0: Bottom chine mating edge; bevel-machine after nominal cut
50
0
0
LWPOLYLINE
8
CUT
90
4
70
1
43
0.0
10
739.879858
20
45
10
843.181128
20
45
10
843.181128
20
219.391358
10
736.158341
20
219.391358
0
TEXT
8
INFO
10
738.158341
20
132.195679
40
4
1
TRI-AMA-STARBOARD-SIDE-STARBOARD-04 | 107.0x174.4 mm | R0
50
0
0
TEXT
8
INFO
10
738.158341
20
47
40
2.5
1
BEVEL TRI-AMA-STARBOARD-SIDE-STARBOARD-04: edge 0: Bottom chine mating edge; bevel-machine after nominal cut
50
0
0
LWPOLYLINE
8
CUT
90
4
70
1
43
0.0
10
847.181128
20
215
10
847.181128
20
45
10
950.482398
20
45
10
950.482398
20
215
0
TEXT
8
INFO
10
849.181128
20
130
40
4
1
TRI-AMA-PORT-SIDE-PORT-02 | 103.3x170.0 mm | R90
50
0
0
TEXT
8
INFO
10
849.181128
20
47
40
2.5
1
BEVEL TRI-AMA-PORT-SIDE-PORT-02: edge 0: Bottom chine mating edge; bevel-machine after nominal cut
50
0
0
LWPOLYLINE
8
CUT
90
4
70
1
43
0.0
10
149.262794
20
155.998426
10
319.262794
20
155.998426
10
319.262794
20
259.299696
10
149.262794
20
259.299696
0
TEXT
8
INFO
10
151.262794
20
207.649061
40
4
1
TRI-AMA-PORT-SIDE-PORT-03 | 170.0x103.3 mm | R0
50
0
0
TEXT
8
INFO
10
151.262794
20
157.998426
40
2.5
1
BEVEL TRI-AMA-PORT-SIDE-PORT-03: edge 0: Bottom chine mating edge; bevel-machine after nominal cut
50
0
0
LWPOLYLINE
8
CUT
90
4
70
1
43
0.0
10
323.262794
20
155.998426
10
426.564064
20
155.998426
10
426.564064
20
325.998426
10
323.262794
20
325.998426
0
TEXT
8
INFO
10
325.262794
20
240.998426
40
4
1
TRI-AMA-PORT-SIDE-STARBOARD-02 | 103.3x170.0 mm | R0
50
0
0
TEXT
8
INFO
10
325.262794
20
157.998426
40
2.5
1
BEVEL TRI-AMA-PORT-SIDE-STARBOARD-02: edge 0: Bottom chine mating edge; bevel-machine after nominal cut
50
0
0
LWPOLYLINE
8
CUT
90
4
70
1
43
0.0
10
20
20
219
10
123.30127
20
219
10
123.30127
20
389
10
20
20
389
0
TEXT
8
INFO
10
22
20
304
40
4
1
TRI-AMA-PORT-SIDE-STARBOARD-03 | 103.3x170.0 mm | R0
50
0
0
TEXT
8
INFO
10
22
20
221
40
2.5
1
BEVEL TRI-AMA-PORT-SIDE-STARBOARD-03: edge 0: Bottom chine mating edge; bevel-machine after nominal cut
50
0
0
LWPOLYLINE
8
CUT
90
4
70
1
43
0.0
10
847.181128
20
389
10
847.181128
20
219
10
950.482398
20
219
10
950.482398
20
389
0
TEXT
8
INFO
10
849.181128
20
304
40
4
1
TRI-AMA-STARBOARD-SIDE-PORT-02 | 103.3x170.0 mm | R90
50
0
0
TEXT
8
INFO
10
849.181128
20
221
40
2.5
1
BEVEL TRI-AMA-STARBOARD-SIDE-PORT-02: edge 0: Bottom chine mating edge; bevel-machine after nominal cut
50
0
0
LWPOLYLINE
8
CUT
90
4
70
1
43
0.0
10
430.564064
20
219.607007
10
600.564064
20
219.607007
10
600.564064
20
322.908277
10
430.564064
20
322.908277
0
TEXT
8
INFO
10
432.564064
20
271.257642
40
4
1
TRI-AMA-STARBOARD-SIDE-PORT-03 | 170.0x103.3 mm | R0
50
0
0
TEXT
8
INFO
10
432.564064
20
221.607007
40
2.5
1
BEVEL TRI-AMA-STARBOARD-SIDE-PORT-03: edge 0: Bottom chine mating edge; bevel-machine after nominal cut
50
0
0
LWPOLYLINE
8
CUT
90
4
70
1
43
0.0
10
604.564064
20
223.391358
10
707.865334
20
223.391358
10
707.865334
20
393.391358
10
604.564064
20
393.391358
0
TEXT
8
INFO
10
606.564064
20
308.391358
40
4
1
TRI-AMA-STARBOARD-SIDE-STARBOARD-02 | 103.3x170.0 mm | R0
50
0
0
TEXT
8
INFO
10
606.564064
20
225.391358
40
2.5
1
BEVEL TRI-AMA-STARBOARD-SIDE-STARBOARD-02: edge 0: Bottom chine mating edge; bevel-machine after nominal cut
50
0
0
LWPOLYLINE
8
CUT
90
4
70
1
43
0.0
10
711.865334
20
223.391358
10
815.166604
20
223.391358
10
815.166604
20
393.391358
10
711.865334
20
393.391358
0
TEXT
8
INFO
10
713.865334
20
308.391358
40
4
1
TRI-AMA-STARBOARD-SIDE-STARBOARD-03 | 103.3x170.0 mm | R0
50
0
0
TEXT
8
INFO
10
713.865334
20
225.391358
40
2.5
1
BEVEL TRI-AMA-STARBOARD-SIDE-STARBOARD-03: edge 0: Bottom chine mating edge; bevel-machine after nominal cut
50
0
0
LWPOLYLINE
8
CUT
90
4
70
1
43
0.0
10
132.256777
20
263.299696
10
306.648134
20
263.299696
10
284.348355
20
360.781591
10
127.30127
20
284.962339
0
TEXT
8
INFO
10
129.30127
20
312.0406435
40
4
1
TRI-AMA-PORT-DECK-04 | 179.3x97.5 mm | R0
50
0
0
TEXT
8
INFO
10
129.30127
20
265.299696
40
2.5
1
BEVEL TRI-AMA-PORT-DECK-04: edge 0: Removable deck support edge; keep CUT outline nominal
50
0
0
LWPOLYLINE
8
CUT
90
4
70
1
43
0.0
10
430.564064
20
501.299634
10
430.564064
20
326.908277
10
528.045959
20
349.208056
10
452.226707
20
506.255141
0
TEXT
8
INFO
10
432.564064
20
416.581709
40
4
1
TRI-AMA-STARBOARD-DECK-04 | 97.5x179.3 mm | R90
50
0
0
TEXT
8
INFO
10
432.564064
20
328.908277
40
2.5
1
BEVEL TRI-AMA-STARBOARD-DECK-04: edge 0: Removable deck support edge; keep CUT outline nominal
50
0
0
LWPOLYLINE
8
CUT
90
4
70
1
43
0.0
10
310.648134
20
499.998426
10
310.648134
20
329.998426
10
410.648134
20
329.998426
10
410.648134
20
499.998426
0
TEXT
8
INFO
10
312.648134
20
414.998426
40
4
1
TRI-AMA-PORT-DECK-02 | 100.0x170.0 mm | R90
50
0
0
TEXT
8
INFO
10
312.648134
20
331.998426
40
2.5
1
BEVEL TRI-AMA-PORT-DECK-02: edge 0: Removable deck support edge; keep CUT outline nominal
50
0
0
LWPOLYLINE
8
CUT
90
4
70
1
43
0.0
10
127.30127
20
364.781591
10
297.30127
20
364.781591
10
297.30127
20
464.781591
10
127.30127
20
464.781591
0
TEXT
8
INFO
10
129.30127
20
414.781591
40
4
1
TRI-AMA-PORT-DECK-03 | 170.0x100.0 mm | R0
50
0
0
TEXT
8
INFO
10
129.30127
20
366.781591
40
2.5
1
BEVEL TRI-AMA-PORT-DECK-03: edge 0: Removable deck support edge; keep CUT outline nominal
50
0
0
LWPOLYLINE
8
CUT
90
4
70
1
43
0.0
10
532.045959
20
397.391358
10
702.045959
20
397.391358
10
702.045959
20
497.391358
10
532.045959
20
497.391358
0
TEXT
8
INFO
10
534.045959
20
447.391358
40
4
1
TRI-AMA-STARBOARD-DECK-02 | 170.0x100.0 mm | R0
50
0
0
TEXT
8
INFO
10
534.045959
20
399.391358
40
2.5
1
BEVEL TRI-AMA-STARBOARD-DECK-02: edge 0: Removable deck support edge; keep CUT outline nominal
50
0
0
LWPOLYLINE
8
CUT
90
4
70
1
43
0.0
10
706.045959
20
397.391358
10
876.045959
20
397.391358
10
876.045959
20
497.391358
10
706.045959
20
497.391358
0
TEXT
8
INFO
10
708.045959
20
447.391358
40
4
1
TRI-AMA-STARBOARD-DECK-03 | 170.0x100.0 mm | R0
50
0
0
TEXT
8
INFO
10
708.045959
20
399.391358
40
2.5
1
BEVEL TRI-AMA-STARBOARD-DECK-03: edge 0: Removable deck support edge; keep CUT outline nominal
50
0
0
LWPOLYLINE
8
CUT
90
6
70
1
43
0.0
10
45
20
393
10
95
20
393
10
120
20
399.69873
10
120
20
503
10
20
20
503
10
20
20
399.69873
0
TEXT
8
INFO
10
22
20
448
40
4
1
TRI-AMA-PORT-TRANSOM-01 | 100.0x110.0 mm | R0
50
0
0
TEXT
8
INFO
10
22
20
395
40
2.5
1
BEVEL TRI-AMA-PORT-TRANSOM-01: edge 1: Transom-to-bottom and side butt joint; post-laser bevel
50
0
0
LWPOLYLINE
8
CUT
90
4
70
1
43
0.0
10
124
20
525.721781
10
124
20
468.781591
10
294
20
468.781591
10
294
20
525.721781
0
TEXT
8
INFO
10
126
20
497.251686
40
4
1
TRI-MAIN-CHINE-STARBOARD-02 | 170.0x56.9 mm | R90
50
0
0
TEXT
8
INFO
10
126
20
470.781591
40
2.5
1
BEVEL TRI-MAIN-CHINE-STARBOARD-02: edge 0: Mates flat bottom and vertical side; post-laser bevel to 15 deg | edge 2: Mates flat bottom and vertical side; post-laser bevel to 15 deg
50
0
0
LWPOLYLINE
8
CUT
90
6
70
1
43
0.0
10
880.045959
20
468
10
880.045959
20
418
10
886.744689
20
393
10
970.045959
20
393
10
970.045959
20
493
10
886.744689
20
493
0
TEXT
8
INFO
10
882.045959
20
443
40
4
1
TRI-AMA-PORT-BULKHEAD-01 | 90.0x100.0 mm | R90
50
0
0
TEXT
8
INFO
10
882.045959
20
395
40
2.5
1
BEVEL TRI-AMA-PORT-BULKHEAD-01: edge 0: Section bulkhead mating perimeter; bevel as required for shell angle
50
0
0
LWPOLYLINE
8
CUT
90
4
70
1
43
0.0
10
532.045959
20
501.391358
10
702.045959
20
501.391358
10
702.045959
20
527.273263
10
532.045959
20
527.273263
0
TEXT
8
INFO
10
534.045959
20
514.3323105
40
4
1
TRI-AMA-PORT-CHINE-PORT-03 | 170.0x25.9 mm | R0
50
0
0
TEXT
8
INFO
10
534.045959
20
503.391358
40
2.5
1
BEVEL TRI-AMA-PORT-CHINE-PORT-03: edge 0: Mates flat bottom and vertical side; post-laser bevel to 15 deg | edge 2: Mates flat bottom and vertical side; post-laser bevel to 15 deg
50
0
0
LWPOLYLINE
8
CUT
90
4
70
1
43
0.0
10
706.045959
20
527.273263
10
706.045959
20
501.391358
10
876.045959
20
501.391358
10
876.045959
20
527.273263
0
TEXT
8
INFO
10
708.045959
20
514.3323105
40
4
1
TRI-AMA-PORT-CHINE-STARBOARD-02 | 170.0x25.9 mm | R90
50
0
0
TEXT
8
INFO
10
708.045959
20
503.391358
40
2.5
1
BEVEL TRI-AMA-PORT-CHINE-STARBOARD-02: edge 0: Mates flat bottom and vertical side; post-laser bevel to 15 deg | edge 2: Mates flat bottom and vertical side; post-laser bevel to 15 deg
50
0
0
LWPOLYLINE
8
CUT
90
4
70
1
43
0.0
10
298
20
536.137046
10
298
20
510.255141
10
468
20
510.255141
10
468
20
536.137046
0
TEXT
8
INFO
10
300
20
523.1960935
40
4
1
TRI-AMA-PORT-CHINE-STARBOARD-03 | 170.0x25.9 mm | R90
50
0
0
TEXT
8
INFO
10
300
20
512.255141
40
2.5
1
BEVEL TRI-AMA-PORT-CHINE-STARBOARD-03: edge 0: Mates flat bottom and vertical side; post-laser bevel to 15 deg | edge 2: Mates flat bottom and vertical side; post-laser bevel to 15 deg
50
0
0
LWPOLYLINE
8
CUT
90
5
70
1
43
0.0
10
880.045959
20
518.465018
10
880.045959
20
506.96195
10
885.797493
20
497
10
969.855051
20
519.523155
10
964.103516
20
540.988173
0
TEXT
8
INFO
10
882.045959
20
518.9940865
40
4
1
TRI-AMA-PORT-BULKHEAD-04 | 89.8x44.0 mm | R90
50
0
0
TEXT
8
INFO
10
882.045959
20
499
40
2.5
1
BEVEL TRI-AMA-PORT-BULKHEAD-04: edge 0: Section bulkhead mating perimeter; bevel as required for shell angle
50
0
0
LWPOLYLINE
8
CUT
90
4
70
1
43
0.0
10
954.482398
20
45
10
974.482398
20
45
10
974.482398
20
219.431062
10
954.482398
20
219.431062
0
TEXT
8
INFO
10
956.482398
20
132.215531
40
4
1
TRI-AMA-PORT-CHINE-STARBOARD-04 | 20.0x174.4 mm | R0
50
0
0
TEXT
8
INFO
10
956.482398
20
47
40
2.5
1
BEVEL TRI-AMA-PORT-CHINE-STARBOARD-04: edge 0: Mates flat bottom and vertical side; post-laser bevel to 15 deg | edge 2: Mates flat bottom and vertical side; post-laser bevel to 15 deg
50
0
0
LWPOLYLINE
8
CUT
90
4
70
1
43
0.0
10
20
20
549.721781
10
20
20
529.721781
10
194.431062
20
529.721781
10
194.431062
20
549.721781
0
TEXT
8
INFO
10
22
20
539.721781
40
4
1
TRI-AMA-STARBOARD-CHINE-PORT-04 | 174.4x20.0 mm | R90
50
0
0
TEXT
8
INFO
10
22
20
531.721781
40
2.5
1
BEVEL TRI-AMA-STARBOARD-CHINE-PORT-04: edge 0: Mates flat bottom and vertical side; post-laser bevel to 15 deg | edge 2: Mates flat bottom and vertical side; post-laser bevel to 15 deg
50
0
0
LWPOLYLINE
8
CUT
90
4
70
1
43
0.0
10
430.564064
20
155.998426
10
480.564064
20
155.998426
10
480.564064
20
212.938616
10
430.564064
20
212.938616
0
TEXT
8
INFO
10
432.564064
20
184.468521
40
4
1
TRI-MAIN-CHINE-PORT-01 | 50.0x56.9 mm | R0
50
0
0
TEXT
8
INFO
10
432.564064
20
157.998426
40
2.5
1
BEVEL TRI-MAIN-CHINE-PORT-01: edge 0: Mates flat bottom and vertical side; post-laser bevel to 15 deg | edge 2: Mates flat bottom and vertical side; post-laser bevel to 15 deg
50
0
0
LWPOLYLINE
8
CUT
90
4
70
1
43
0.0
10
532.045959
20
326.908277
10
588.986149
20
326.908277
10
588.986149
20
376.908277
10
532.045959
20
376.908277
0
TEXT
8
INFO
10
534.045959
20
351.908277
40
4
1
TRI-MAIN-CHINE-STARBOARD-01 | 56.9x50.0 mm | R0
50
0
0
TEXT
8
INFO
10
534.045959
20
328.908277
40
2.5
1
BEVEL TRI-MAIN-CHINE-STARBOARD-01: edge 0: Mates flat bottom and vertical side; post-laser bevel to 15 deg | edge 2: Mates flat bottom and vertical side; post-laser bevel to 15 deg
50
0
0
LWPOLYLINE
8
CUT
90
4
70
1
43
0.0
10
472
20
510.255141
10
522
20
510.255141
10
522
20
536.137046
10
472
20
536.137046
0
TEXT
8
INFO
10
474
20
523.1960935
40
4
1
TRI-AMA-STARBOARD-CHINE-PORT-01 | 50.0x25.9 mm | R0
50
0
0
TEXT
8
INFO
10
474
20
512.255141
40
2.5
1
BEVEL TRI-AMA-STARBOARD-CHINE-PORT-01: edge 0: Mates flat bottom and vertical side; post-laser bevel to 15 deg | edge 2: Mates flat bottom and vertical side; post-laser bevel to 15 deg
50
0
0
TEXT
8
INFO
10
20
20
8
40
3.5
1
20 mm plywood, profiles before fiberglass/resin/putty; bevel sanding required
50
0
0
TEXT
8
INFO
10
20
20
14
40
3.5
1
Geometry study only; flotation and performance are not validated
50
0
0
ENDSEC
0
EOF
