0
SECTION
2
HEADER
9
$ACADVER
1
AC1015
9
$INSUNITS
70
4
9
$MEASUREMENT
70
1
0
ENDSEC
0
SECTION
2
ENTITIES
0
TEXT
8
INFO
10
20
20
590
40
6
1
Trimaran | SHEET 1 | 1000 x 600 mm | SCALE 1:1
50
0
0
TEXT
8
TOOLPATH
10
20
20
583
40
4
1
TOOLPATH: CAM OUTSIDE OFFSET +0.10 mm | DO NOT CUT BOTH
50
0
0
TEXT
8
TOOLPATH
10
20
20
577
40
3.5
1
CUT layer is nominal finished plywood profile; no toolpath geometry emitted
50
0
0
TEXT
8
INFO
10
20
20
571
40
3.5
1
HOLES: nominal CUT; apply inner compensation in CAM if required
50
0
0
LWPOLYLINE
8
CUT
90
4
70
1
43
0.0
10
78.674729
20
45
10
257.522205
20
45
10
164.33293
20
330.159182
10
20
20
224.54467
0
TEXT
8
INFO
10
22
20
187.579591
40
4
1
TRI-MAIN-DECK-05 | 237.5x285.2 mm | R0
50
0
0
TEXT
8
INFO
10
22
20
47
40
2.5
1
BEVEL TRI-MAIN-DECK-05: edge 0: Removable deck support edge; keep CUT outline nominal
50
0
0
LWPOLYLINE
8
CUT
90
4
70
1
43
0.0
10
261.522205
20
45
10
431.522205
20
45
10
431.522205
20
345
10
261.522205
20
345
0
TEXT
8
INFO
10
263.522205
20
195
40
4
1
TRI-MAIN-DECK-02 | 170.0x300.0 mm | R0
50
0
0
TEXT
8
INFO
10
263.522205
20
47
40
2.5
1
BEVEL TRI-MAIN-DECK-02: edge 0: Removable deck support edge; keep CUT outline nominal
50
0
0
LWPOLYLINE
8
CUT
90
4
70
1
43
0.0
10
435.522205
20
45
10
605.522205
20
45
10
605.522205
20
345
10
435.522205
20
345
0
TEXT
8
INFO
10
437.522205
20
195
40
4
1
TRI-MAIN-DECK-03 | 170.0x300.0 mm | R0
50
0
0
TEXT
8
INFO
10
437.522205
20
47
40
2.5
1
BEVEL TRI-MAIN-DECK-03: edge 0: Removable deck support edge; keep CUT outline nominal
50
0
0
LWPOLYLINE
8
CUT
90
4
70
1
43
0.0
10
609.522205
20
45
10
779.522205
20
45
10
779.522205
20
345
10
609.522205
20
345
0
TEXT
8
INFO
10
611.522205
20
195
40
4
1
TRI-MAIN-DECK-04 | 170.0x300.0 mm | R0
50
0
0
TEXT
8
INFO
10
611.522205
20
47
40
2.5
1
BEVEL TRI-MAIN-DECK-04: edge 0: Removable deck support edge; keep CUT outline nominal
50
0
0
LWPOLYLINE
8
CUT
90
6
70
1
43
0.0
10
783.522205
20
290
10
783.522205
20
100
10
798.259411
20
45
10
923.522205
20
45
10
923.522205
20
345
10
798.259411
20
345
0
TEXT
8
INFO
10
785.522205
20
195
40
4
1
TRI-MAIN-TRANSOM-01 | 140.0x300.0 mm | R90
50
0
0
TEXT
8
INFO
10
785.522205
20
47
40
2.5
1
BEVEL TRI-MAIN-TRANSOM-01: edge 1: Transom-to-bottom and side butt joint; post-laser bevel
50
0
0
LWPOLYLINE
8
CUT
90
4
70
1
43
0.0
10
44.505328
20
334.159182
10
223.352804
20
334.159182
10
164.33293
20
514.759997
10
20
20
409.145485
0
TEXT
8
INFO
10
22
20
424.4595895
40
4
1
TRI-MAIN-BOTTOM-05 | 203.4x180.6 mm | R0
50
0
0
TEXT
8
INFO
10
22
20
336.159182
40
2.5
1
BEVEL TRI-MAIN-BOTTOM-05: edge 0: Longitudinal chine mating edges; bevel-machine to 15 deg after laser cut | edge 2: Longitudinal chine mating edges; bevel-machine to 15 deg after laser cut
50
0
0
LWPOLYLINE
8
CUT
90
6
70
1
43
0.0
10
282.352804
20
349
10
472.352804
20
349
10
527.352804
20
363.737206
10
527.352804
20
469
10
227.352804
20
469
10
227.352804
20
363.737206
0
TEXT
8
INFO
10
229.352804
20
409
40
4
1
TRI-MAIN-BULKHEAD-01 | 300.0x120.0 mm | R0
50
0
0
TEXT
8
INFO
10
229.352804
20
351
40
2.5
1
BEVEL TRI-MAIN-BULKHEAD-01: edge 0: Section bulkhead mating perimeter; bevel as required for shell angle
50
0
0
LWPOLYLINE
8
CUT
90
6
70
1
43
0.0
10
586.352804
20
349
10
776.352804
20
349
10
831.352804
20
363.737206
10
831.352804
20
469
10
531.352804
20
469
10
531.352804
20
363.737206
0
TEXT
8
INFO
10
533.352804
20
409
40
4
1
TRI-MAIN-BULKHEAD-02 | 300.0x120.0 mm | R0
50
0
0
TEXT
8
INFO
10
533.352804
20
351
40
2.5
1
BEVEL TRI-MAIN-BULKHEAD-02: edge 0: Section bulkhead mating perimeter; bevel as required for shell angle
50
0
0
LWPOLYLINE
8
CUT
90
4
70
1
43
0.0
10
850.09001
20
349
10
975.352804
20
349
10
975.352804
20
543.473014
10
835.352804
20
543.473014
0
TEXT
8
INFO
10
837.352804
20
446.236507
40
4
1
TRI-MAIN-SIDE-STARBOARD-06 | 140.0x194.5 mm | R0
50
0
0
TEXT
8
INFO
10
837.352804
20
351
40
2.5
1
BEVEL TRI-MAIN-SIDE-STARBOARD-06: edge 0: Bottom chine mating edge; bevel-machine after nominal cut
50
0
0
LWPOLYLINE
8
CUT
90
4
70
1
43
0.0
10
927.522205
20
45
10
977.522205
20
45
10
977.522205
20
345
10
927.522205
20
345
0
TEXT
8
INFO
10
929.522205
20
195
40
4
1
TRI-MAIN-DECK-01 | 50.0x300.0 mm | R0
50
0
0
TEXT
8
INFO
10
929.522205
20
47
40
2.5
1
BEVEL TRI-MAIN-DECK-01: edge 0: Removable deck support edge; keep CUT outline nominal
50
0
0
LWPOLYLINE
8
CUT
90
3
70
1
43
0.0
10
227.352804
20
473
10
401.86889
20
473
10
384.038279
20
549.847421
0
TEXT
8
INFO
10
229.352804
20
511.4237105
40
4
1
TRI-MAIN-BOTTOM-06 | 174.5x76.8 mm | R0
50
0
0
TEXT
8
INFO
10
229.352804
20
475
40
2.5
1
BEVEL TRI-MAIN-BOTTOM-06: edge 0: Longitudinal chine mating edges; bevel-machine to 15 deg after laser cut | edge 2: Longitudinal chine mating edges; bevel-machine to 15 deg after laser cut
50
0
0
LWPOLYLINE
8
CUT
90
4
70
1
43
0.0
10
422.95359
20
473
10
601.801067
20
473
10
584.716366
20
527.316648
10
405.86889
20
527.316648
0
TEXT
8
INFO
10
407.86889
20
500.158324
40
4
1
TRI-MAIN-CHINE-PORT-05 | 195.9x54.3 mm | R0
50
0
0
TEXT
8
INFO
10
407.86889
20
475
40
2.5
1
BEVEL TRI-MAIN-CHINE-PORT-05: edge 0: Mates flat bottom and vertical side; post-laser bevel to 15 deg | edge 2: Mates flat bottom and vertical side; post-laser bevel to 15 deg
50
0
0
LWPOLYLINE
8
CUT
90
3
70
1
43
0.0
10
618.232267
20
473
10
792.748353
20
473
10
605.801067
20
528.566631
0
TEXT
8
INFO
10
607.801067
20
500.7833155
40
4
1
TRI-MAIN-CHINE-PORT-06 | 186.9x55.6 mm | R0
50
0
0
TEXT
8
INFO
10
607.801067
20
475
40
2.5
1
BEVEL TRI-MAIN-CHINE-PORT-06: edge 0: Mates flat bottom and vertical side; post-laser bevel to 15 deg | edge 2: Mates flat bottom and vertical side; post-laser bevel to 15 deg
50
0
0
LWPOLYLINE
8
CUT
90
4
70
1
43
0.0
10
20
20
518.759997
10
190
20
518.759997
10
190
20
544.641902
10
20
20
544.641902
0
TEXT
8
INFO
10
22
20
531.7009495
40
4
1
TRI-AMA-PORT-CHINE-PORT-02 | 170.0x25.9 mm | R0
50
0
0
TEXT
8
INFO
10
22
20
520.759997
40
2.5
1
BEVEL TRI-AMA-PORT-CHINE-PORT-02: edge 0: Mates flat bottom and vertical side; post-laser bevel to 15 deg | edge 2: Mates flat bottom and vertical side; post-laser bevel to 15 deg
50
0
0
LWPOLYLINE
8
CUT
90
4
70
1
43
0.0
10
796.748353
20
523
10
796.748353
20
473
10
822.630258
20
473
10
822.630258
20
523
0
TEXT
8
INFO
10
798.748353
20
498
40
4
1
TRI-AMA-PORT-CHINE-PORT-01 | 25.9x50.0 mm | R90
50
0
0
TEXT
8
INFO
10
798.748353
20
475
40
2.5
1
BEVEL TRI-AMA-PORT-CHINE-PORT-01: edge 0: Mates flat bottom and vertical side; post-laser bevel to 15 deg | edge 2: Mates flat bottom and vertical side; post-laser bevel to 15 deg
50
0
0
LWPOLYLINE
8
CUT
90
4
70
1
43
0.0
10
194
20
518.759997
10
214
20
518.759997
10
214
20
543.759997
10
194
20
543.759997
0
TEXT
8
INFO
10
196
20
531.259997
40
4
1
TRIMARAN-CONNECTOR-PORT-01 | 20.0x25.0 mm | R0
50
0
0
TEXT
8
INFO
10
196
20
520.759997
40
2.5
1
BEVEL TRIMARAN-CONNECTOR-PORT-01: edge 0: Deck connector end; post-laser fit/bevel, no shell overlap
50
0
0
LWPOLYLINE
8
CUT
90
4
70
1
43
0.0
10
796.748353
20
547
10
796.748353
20
527
10
821.748353
20
527
10
821.748353
20
547
0
TEXT
8
INFO
10
798.748353
20
537
40
4
1
TRIMARAN-CONNECTOR-PORT-02 | 25.0x20.0 mm | R90
50
0
0
TEXT
8
INFO
10
798.748353
20
529
40
2.5
1
BEVEL TRIMARAN-CONNECTOR-PORT-02: edge 0: Deck connector end; post-laser fit/bevel, no shell overlap
50
0
0
TEXT
8
INFO
10
20
20
8
40
3.5
1
20 mm plywood, profiles before fiberglass/resin/putty; bevel sanding required
50
0
0
TEXT
8
INFO
10
20
20
14
40
3.5
1
Geometry study only; flotation and performance are not validated
50
0
0
ENDSEC
0
EOF
