0
SECTION
2
HEADER
9
$ACADVER
1
AC1015
9
$INSUNITS
70
4
9
$MEASUREMENT
70
1
0
ENDSEC
0
SECTION
2
ENTITIES
0
TEXT
8
INFO
10
20
20
590
40
6
1
Trimaran | SHEET 4 | 1000 x 600 mm | SCALE 1:1
50
0
0
TEXT
8
TOOLPATH
10
20
20
583
40
4
1
TOOLPATH: CAM OUTSIDE OFFSET +0.10 mm | DO NOT CUT BOTH
50
0
0
TEXT
8
TOOLPATH
10
20
20
577
40
3.5
1
CUT layer is nominal finished plywood profile; no toolpath geometry emitted
50
0
0
TEXT
8
INFO
10
20
20
571
40
3.5
1
HOLES: nominal CUT; apply inner compensation in CAM if required
50
0
0
LWPOLYLINE
8
CUT
90
3
70
1
43
0.0
10
58.100408
20
45
10
115.040598
20
45
10
20
20
215.306263
0
TEXT
8
INFO
10
22
20
130.1531315
40
4
1
TRI-MAIN-CHINE-STARBOARD-06 | 95.0x170.3 mm | R0
50
0
0
TEXT
8
INFO
10
22
20
47
40
2.5
1
BEVEL TRI-MAIN-CHINE-STARBOARD-06: edge 0: Mates flat bottom and vertical side; post-laser bevel to 15 deg | edge 2: Mates flat bottom and vertical side; post-laser bevel to 15 deg
50
0
0
LWPOLYLINE
8
CUT
90
6
70
1
43
0.0
10
144.040598
20
45
10
194.040598
20
45
10
219.040598
20
51.69873
10
219.040598
20
155
10
119.040598
20
155
10
119.040598
20
51.69873
0
TEXT
8
INFO
10
121.040598
20
100
40
4
1
TRI-AMA-STARBOARD-TRANSOM-01 | 100.0x110.0 mm | R0
50
0
0
TEXT
8
INFO
10
121.040598
20
47
40
2.5
1
BEVEL TRI-AMA-STARBOARD-TRANSOM-01: edge 1: Transom-to-bottom and side butt joint; post-laser bevel
50
0
0
LWPOLYLINE
8
CUT
90
4
70
1
43
0.0
10
223.040598
20
45
10
279.980788
20
45
10
279.980788
20
215
10
223.040598
20
215
0
TEXT
8
INFO
10
225.040598
20
130
40
4
1
TRI-MAIN-CHINE-STARBOARD-03 | 56.9x170.0 mm | R0
50
0
0
TEXT
8
INFO
10
225.040598
20
47
40
2.5
1
BEVEL TRI-MAIN-CHINE-STARBOARD-03: edge 0: Mates flat bottom and vertical side; post-laser bevel to 15 deg | edge 2: Mates flat bottom and vertical side; post-laser bevel to 15 deg
50
0
0
LWPOLYLINE
8
CUT
90
4
70
1
43
0.0
10
283.980788
20
45
10
340.920978
20
45
10
340.920978
20
215
10
283.980788
20
215
0
TEXT
8
INFO
10
285.980788
20
130
40
4
1
TRI-MAIN-CHINE-STARBOARD-04 | 56.9x170.0 mm | R0
50
0
0
TEXT
8
INFO
10
285.980788
20
47
40
2.5
1
BEVEL TRI-MAIN-CHINE-STARBOARD-04: edge 0: Mates flat bottom and vertical side; post-laser bevel to 15 deg | edge 2: Mates flat bottom and vertical side; post-laser bevel to 15 deg
50
0
0
LWPOLYLINE
8
CUT
90
4
70
1
43
0.0
10
344.920978
20
45
10
394.920978
20
45
10
394.920978
20
235
10
344.920978
20
235
0
TEXT
8
INFO
10
346.920978
20
140
40
4
1
TRI-MAIN-BOTTOM-01 | 50.0x190.0 mm | R0
50
0
0
TEXT
8
INFO
10
346.920978
20
47
40
2.5
1
BEVEL TRI-MAIN-BOTTOM-01: edge 0: Longitudinal chine mating edges; bevel-machine to 15 deg after laser cut | edge 2: Longitudinal chine mating edges; bevel-machine to 15 deg after laser cut
50
0
0
LWPOLYLINE
8
CUT
90
6
70
1
43
0.0
10
423.920978
20
45
10
473.920978
20
45
10
498.920978
20
51.69873
10
498.920978
20
135
10
398.920978
20
135
10
398.920978
20
51.69873
0
TEXT
8
INFO
10
400.920978
20
90
40
4
1
TRI-AMA-PORT-BULKHEAD-02 | 100.0x90.0 mm | R0
50
0
0
TEXT
8
INFO
10
400.920978
20
47
40
2.5
1
BEVEL TRI-AMA-PORT-BULKHEAD-02: edge 0: Section bulkhead mating perimeter; bevel as required for shell angle
50
0
0
LWPOLYLINE
8
CUT
90
6
70
1
43
0.0
10
527.920978
20
45
10
577.920978
20
45
10
602.920978
20
51.69873
10
602.920978
20
135
10
502.920978
20
135
10
502.920978
20
51.69873
0
TEXT
8
INFO
10
504.920978
20
90
40
4
1
TRI-AMA-PORT-BULKHEAD-03 | 100.0x90.0 mm | R0
50
0
0
TEXT
8
INFO
10
504.920978
20
47
40
2.5
1
BEVEL TRI-AMA-PORT-BULKHEAD-03: edge 0: Section bulkhead mating perimeter; bevel as required for shell angle
50
0
0
LWPOLYLINE
8
CUT
90
6
70
1
43
0.0
10
631.920978
20
45
10
681.920978
20
45
10
706.920978
20
51.69873
10
706.920978
20
135
10
606.920978
20
135
10
606.920978
20
51.69873
0
TEXT
8
INFO
10
608.920978
20
90
40
4
1
TRI-AMA-STARBOARD-BULKHEAD-01 | 100.0x90.0 mm | R0
50
0
0
TEXT
8
INFO
10
608.920978
20
47
40
2.5
1
BEVEL TRI-AMA-STARBOARD-BULKHEAD-01: edge 0: Section bulkhead mating perimeter; bevel as required for shell angle
50
0
0
LWPOLYLINE
8
CUT
90
6
70
1
43
0.0
10
735.920978
20
45
10
785.920978
20
45
10
810.920978
20
51.69873
10
810.920978
20
135
10
710.920978
20
135
10
710.920978
20
51.69873
0
TEXT
8
INFO
10
712.920978
20
90
40
4
1
TRI-AMA-STARBOARD-BULKHEAD-02 | 100.0x90.0 mm | R0
50
0
0
TEXT
8
INFO
10
712.920978
20
47
40
2.5
1
BEVEL TRI-AMA-STARBOARD-BULKHEAD-02: edge 0: Section bulkhead mating perimeter; bevel as required for shell angle
50
0
0
LWPOLYLINE
8
CUT
90
6
70
1
43
0.0
10
839.920978
20
45
10
889.920978
20
45
10
914.920978
20
51.69873
10
914.920978
20
135
10
814.920978
20
135
10
814.920978
20
51.69873
0
TEXT
8
INFO
10
816.920978
20
90
40
4
1
TRI-AMA-STARBOARD-BULKHEAD-03 | 100.0x90.0 mm | R0
50
0
0
TEXT
8
INFO
10
816.920978
20
47
40
2.5
1
BEVEL TRI-AMA-STARBOARD-BULKHEAD-03: edge 0: Section bulkhead mating perimeter; bevel as required for shell angle
50
0
0
LWPOLYLINE
8
CUT
90
3
70
1
43
0.0
10
918.920978
20
216.828403
10
918.920978
20
45
10
968.388935
20
52.2747
0
TEXT
8
INFO
10
920.920978
20
130.9142015
40
4
1
TRI-AMA-PORT-BOTTOM-04 | 49.5x171.8 mm | R90
50
0
0
TEXT
8
INFO
10
920.920978
20
47
40
2.5
1
BEVEL TRI-AMA-PORT-BOTTOM-04: edge 0: Longitudinal chine mating edges; bevel-machine to 15 deg after laser cut | edge 2: Longitudinal chine mating edges; bevel-machine to 15 deg after laser cut
50
0
0
LWPOLYLINE
8
CUT
90
3
70
1
43
0.0
10
398.920978
20
139
10
570.749381
20
139
10
563.474681
20
188.467957
0
TEXT
8
INFO
10
400.920978
20
163.7339785
40
4
1
TRI-AMA-STARBOARD-BOTTOM-04 | 171.8x49.5 mm | R0
50
0
0
TEXT
8
INFO
10
400.920978
20
141
40
2.5
1
BEVEL TRI-AMA-STARBOARD-BOTTOM-04: edge 0: Longitudinal chine mating edges; bevel-machine to 15 deg after laser cut | edge 2: Longitudinal chine mating edges; bevel-machine to 15 deg after laser cut
50
0
0
LWPOLYLINE
8
CUT
90
4
70
1
43
0.0
10
574.749381
20
139
10
744.749381
20
139
10
744.749381
20
189
10
574.749381
20
189
0
TEXT
8
INFO
10
576.749381
20
164
40
4
1
TRI-AMA-PORT-BOTTOM-02 | 170.0x50.0 mm | R0
50
0
0
TEXT
8
INFO
10
576.749381
20
141
40
2.5
1
BEVEL TRI-AMA-PORT-BOTTOM-02: edge 0: Longitudinal chine mating edges; bevel-machine to 15 deg after laser cut | edge 2: Longitudinal chine mating edges; bevel-machine to 15 deg after laser cut
50
0
0
LWPOLYLINE
8
CUT
90
4
70
1
43
0.0
10
748.749381
20
309
10
748.749381
20
139
10
798.749381
20
139
10
798.749381
20
309
0
TEXT
8
INFO
10
750.749381
20
224
40
4
1
TRI-AMA-PORT-BOTTOM-03 | 50.0x170.0 mm | R90
50
0
0
TEXT
8
INFO
10
750.749381
20
141
40
2.5
1
BEVEL TRI-AMA-PORT-BOTTOM-03: edge 0: Longitudinal chine mating edges; bevel-machine to 15 deg after laser cut | edge 2: Longitudinal chine mating edges; bevel-machine to 15 deg after laser cut
50
0
0
LWPOLYLINE
8
CUT
90
4
70
1
43
0.0
10
802.749381
20
309
10
802.749381
20
139
10
852.749381
20
139
10
852.749381
20
309
0
TEXT
8
INFO
10
804.749381
20
224
40
4
1
TRI-AMA-STARBOARD-BOTTOM-02 | 50.0x170.0 mm | R90
50
0
0
TEXT
8
INFO
10
804.749381
20
141
40
2.5
1
BEVEL TRI-AMA-STARBOARD-BOTTOM-02: edge 0: Longitudinal chine mating edges; bevel-machine to 15 deg after laser cut | edge 2: Longitudinal chine mating edges; bevel-machine to 15 deg after laser cut
50
0
0
LWPOLYLINE
8
CUT
90
4
70
1
43
0.0
10
856.749381
20
309
10
856.749381
20
139
10
906.749381
20
139
10
906.749381
20
309
0
TEXT
8
INFO
10
858.749381
20
224
40
4
1
TRI-AMA-STARBOARD-BOTTOM-03 | 50.0x170.0 mm | R90
50
0
0
TEXT
8
INFO
10
858.749381
20
141
40
2.5
1
BEVEL TRI-AMA-STARBOARD-BOTTOM-03: edge 0: Longitudinal chine mating edges; bevel-machine to 15 deg after laser cut | edge 2: Longitudinal chine mating edges; bevel-machine to 15 deg after laser cut
50
0
0
LWPOLYLINE
8
CUT
90
4
70
1
43
0.0
10
119.040598
20
284.262794
10
119.040598
20
159
10
169.040598
20
159
10
169.040598
20
284.262794
0
TEXT
8
INFO
10
121.040598
20
221.631397
40
4
1
TRI-MAIN-SIDE-STARBOARD-01 | 50.0x125.3 mm | R90
50
0
0
TEXT
8
INFO
10
121.040598
20
161
40
2.5
1
BEVEL TRI-MAIN-SIDE-STARBOARD-01: edge 0: Bottom chine mating edge; bevel-machine after nominal cut
50
0
0
LWPOLYLINE
8
CUT
90
4
70
1
43
0.0
10
398.920978
20
192.467957
10
448.920978
20
192.467957
10
448.920978
20
295.769227
10
398.920978
20
295.769227
0
TEXT
8
INFO
10
400.920978
20
244.118592
40
4
1
TRI-AMA-PORT-SIDE-PORT-01 | 50.0x103.3 mm | R0
50
0
0
TEXT
8
INFO
10
400.920978
20
194.467957
40
2.5
1
BEVEL TRI-AMA-PORT-SIDE-PORT-01: edge 0: Bottom chine mating edge; bevel-machine after nominal cut
50
0
0
LWPOLYLINE
8
CUT
90
4
70
1
43
0.0
10
452.920978
20
192.467957
10
556.222248
20
192.467957
10
556.222248
20
242.467957
10
452.920978
20
242.467957
0
TEXT
8
INFO
10
454.920978
20
217.467957
40
4
1
TRI-AMA-PORT-SIDE-STARBOARD-01 | 103.3x50.0 mm | R0
50
0
0
TEXT
8
INFO
10
454.920978
20
194.467957
40
2.5
1
BEVEL TRI-AMA-PORT-SIDE-STARBOARD-01: edge 0: Bottom chine mating edge; bevel-machine after nominal cut
50
0
0
LWPOLYLINE
8
CUT
90
4
70
1
43
0.0
10
560.222248
20
193
10
610.222248
20
193
10
610.222248
20
296.30127
10
560.222248
20
296.30127
0
TEXT
8
INFO
10
562.222248
20
244.650635
40
4
1
TRI-AMA-STARBOARD-SIDE-PORT-01 | 50.0x103.3 mm | R0
50
0
0
TEXT
8
INFO
10
562.222248
20
195
40
2.5
1
BEVEL TRI-AMA-STARBOARD-SIDE-PORT-01: edge 0: Bottom chine mating edge; bevel-machine after nominal cut
50
0
0
LWPOLYLINE
8
CUT
90
4
70
1
43
0.0
10
614.222248
20
193
10
717.523518
20
193
10
717.523518
20
243
10
614.222248
20
243
0
TEXT
8
INFO
10
616.222248
20
218
40
4
1
TRI-AMA-STARBOARD-SIDE-STARBOARD-01 | 103.3x50.0 mm | R0
50
0
0
TEXT
8
INFO
10
616.222248
20
195
40
2.5
1
BEVEL TRI-AMA-STARBOARD-SIDE-STARBOARD-01: edge 0: Bottom chine mating edge; bevel-machine after nominal cut
50
0
0
LWPOLYLINE
8
CUT
90
4
70
1
43
0.0
10
173.040598
20
219
10
223.040598
20
219
10
223.040598
20
319
10
173.040598
20
319
0
TEXT
8
INFO
10
175.040598
20
269
40
4
1
TRI-AMA-PORT-DECK-01 | 50.0x100.0 mm | R0
50
0
0
TEXT
8
INFO
10
175.040598
20
221
40
2.5
1
BEVEL TRI-AMA-PORT-DECK-01: edge 0: Removable deck support edge; keep CUT outline nominal
50
0
0
LWPOLYLINE
8
CUT
90
4
70
1
43
0.0
10
227.040598
20
219
10
277.040598
20
219
10
277.040598
20
319
10
227.040598
20
319
0
TEXT
8
INFO
10
229.040598
20
269
40
4
1
TRI-AMA-STARBOARD-DECK-01 | 50.0x100.0 mm | R0
50
0
0
TEXT
8
INFO
10
229.040598
20
221
40
2.5
1
BEVEL TRI-AMA-STARBOARD-DECK-01: edge 0: Removable deck support edge; keep CUT outline nominal
50
0
0
LWPOLYLINE
8
CUT
90
4
70
1
43
0.0
10
281.040598
20
389
10
281.040598
20
219
10
306.922503
20
219
10
306.922503
20
389
0
TEXT
8
INFO
10
283.040598
20
304
40
4
1
TRI-AMA-STARBOARD-CHINE-PORT-02 | 25.9x170.0 mm | R90
50
0
0
TEXT
8
INFO
10
283.040598
20
221
40
2.5
1
BEVEL TRI-AMA-STARBOARD-CHINE-PORT-02: edge 0: Mates flat bottom and vertical side; post-laser bevel to 15 deg | edge 2: Mates flat bottom and vertical side; post-laser bevel to 15 deg
50
0
0
LWPOLYLINE
8
CUT
90
4
70
1
43
0.0
10
310.922503
20
389
10
310.922503
20
219
10
336.804408
20
219
10
336.804408
20
389
0
TEXT
8
INFO
10
312.922503
20
304
40
4
1
TRI-AMA-STARBOARD-CHINE-PORT-03 | 25.9x170.0 mm | R90
50
0
0
TEXT
8
INFO
10
312.922503
20
221
40
2.5
1
BEVEL TRI-AMA-STARBOARD-CHINE-PORT-03: edge 0: Mates flat bottom and vertical side; post-laser bevel to 15 deg | edge 2: Mates flat bottom and vertical side; post-laser bevel to 15 deg
50
0
0
LWPOLYLINE
8
CUT
90
4
70
1
43
0.0
10
20
20
219.306263
10
45.881905
20
219.306263
10
45.881905
20
389.306263
10
20
20
389.306263
0
TEXT
8
INFO
10
22
20
304.306263
40
4
1
TRI-AMA-STARBOARD-CHINE-STARBOARD-02 | 25.9x170.0 mm | R0
50
0
0
TEXT
8
INFO
10
22
20
221.306263
40
2.5
1
BEVEL TRI-AMA-STARBOARD-CHINE-STARBOARD-02: edge 0: Mates flat bottom and vertical side; post-laser bevel to 15 deg | edge 2: Mates flat bottom and vertical side; post-laser bevel to 15 deg
50
0
0
LWPOLYLINE
8
CUT
90
4
70
1
43
0.0
10
49.881905
20
219.306263
10
75.76381
20
219.306263
10
75.76381
20
389.306263
10
49.881905
20
389.306263
0
TEXT
8
INFO
10
51.881905
20
304.306263
40
4
1
TRI-AMA-STARBOARD-CHINE-STARBOARD-03 | 25.9x170.0 mm | R0
50
0
0
TEXT
8
INFO
10
51.881905
20
221.306263
40
2.5
1
BEVEL TRI-AMA-STARBOARD-CHINE-STARBOARD-03: edge 0: Mates flat bottom and vertical side; post-laser bevel to 15 deg | edge 2: Mates flat bottom and vertical side; post-laser bevel to 15 deg
50
0
0
LWPOLYLINE
8
CUT
90
5
70
1
43
0.0
10
933.272536
20
220.828403
10
944.775604
20
220.828403
10
954.737554
20
226.579937
10
932.214399
20
310.637495
10
910.749381
20
304.88596
0
TEXT
8
INFO
10
912.749381
20
265.732949
40
4
1
TRI-AMA-STARBOARD-BULKHEAD-04 | 44.0x89.8 mm | R0
50
0
0
TEXT
8
INFO
10
912.749381
20
222.828403
40
2.5
1
BEVEL TRI-AMA-STARBOARD-BULKHEAD-04: edge 0: Section bulkhead mating perimeter; bevel as required for shell angle
50
0
0
LWPOLYLINE
8
CUT
90
4
70
1
43
0.0
10
721.523518
20
193
10
741.523518
20
193
10
741.523518
20
367.431062
10
721.523518
20
367.431062
0
TEXT
8
INFO
10
723.523518
20
280.215531
40
4
1
TRI-AMA-STARBOARD-CHINE-STARBOARD-04 | 20.0x174.4 mm | R0
50
0
0
TEXT
8
INFO
10
723.523518
20
195
40
2.5
1
BEVEL TRI-AMA-STARBOARD-CHINE-STARBOARD-04: edge 0: Mates flat bottom and vertical side; post-laser bevel to 15 deg | edge 2: Mates flat bottom and vertical side; post-laser bevel to 15 deg
50
0
0
LWPOLYLINE
8
CUT
90
4
70
1
43
0.0
10
340.804408
20
239
10
390.804408
20
239
10
390.804408
20
289
10
340.804408
20
289
0
TEXT
8
INFO
10
342.804408
20
264
40
4
1
TRI-AMA-PORT-BOTTOM-01 | 50.0x50.0 mm | R0
50
0
0
TEXT
8
INFO
10
342.804408
20
241
40
2.5
1
BEVEL TRI-AMA-PORT-BOTTOM-01: edge 0: Longitudinal chine mating edges; bevel-machine to 15 deg after laser cut | edge 2: Longitudinal chine mating edges; bevel-machine to 15 deg after laser cut
50
0
0
LWPOLYLINE
8
CUT
90
4
70
1
43
0.0
10
452.920978
20
246.467957
10
502.920978
20
246.467957
10
502.920978
20
296.467957
10
452.920978
20
296.467957
0
TEXT
8
INFO
10
454.920978
20
271.467957
40
4
1
TRI-AMA-STARBOARD-BOTTOM-01 | 50.0x50.0 mm | R0
50
0
0
TEXT
8
INFO
10
454.920978
20
248.467957
40
2.5
1
BEVEL TRI-AMA-STARBOARD-BOTTOM-01: edge 0: Longitudinal chine mating edges; bevel-machine to 15 deg after laser cut | edge 2: Longitudinal chine mating edges; bevel-machine to 15 deg after laser cut
50
0
0
LWPOLYLINE
8
CUT
90
4
70
1
43
0.0
10
173.040598
20
159
10
198.922503
20
159
10
198.922503
20
209
10
173.040598
20
209
0
TEXT
8
INFO
10
175.040598
20
184
40
4
1
TRI-AMA-STARBOARD-CHINE-STARBOARD-01 | 25.9x50.0 mm | R0
50
0
0
TEXT
8
INFO
10
175.040598
20
161
40
2.5
1
BEVEL TRI-AMA-STARBOARD-CHINE-STARBOARD-01: edge 0: Mates flat bottom and vertical side; post-laser bevel to 15 deg | edge 2: Mates flat bottom and vertical side; post-laser bevel to 15 deg
50
0
0
TEXT
8
INFO
10
20
20
8
40
3.5
1
20 mm plywood, profiles before fiberglass/resin/putty; bevel sanding required
50
0
0
TEXT
8
INFO
10
20
20
14
40
3.5
1
Geometry study only; flotation and performance are not validated
50
0
0
ENDSEC
0
EOF
